<svg xmlns="http://www.w3.org/2000/svg" width="114" height="145" viewBox="0 0 114 145" fill="none">
      <path d="M-28.8916 -13.0557H149.331V165.192H-28.8916V-13.0557Z" fill="#F8F6F8"/>
      <path d="M80.9151 0.287109C81.1501 0.307476 81.3816 0.356912 81.6044 0.434198C83.2169 1.00811 96.8717 7.13353 97.7645 8.17238C97.989 8.43418 98.0943 8.91383 98.1779 9.24578C98.9376 12.245 99.4571 15.3343 100.089 18.3632C100.645 21.0288 101.346 23.7041 101.774 26.3912C101.856 26.9082 101.929 27.5126 101.856 28.033C101.667 29.4047 92.4683 39.5382 90.9358 40.6901C91.4928 43.756 92.3421 47.2027 93.0061 50.279L98.358 74.1814C99.069 77.3242 99.7556 80.4723 100.417 83.6255C100.701 84.9607 101.208 86.9485 101.37 88.2341C100.768 89.3916 99.6729 91.04 98.9689 92.1846C96.7933 95.7216 94.4707 99.1804 92.3343 102.745C94.3628 102.766 96.4296 102.62 97.9882 104.206C102.036 108.325 105.915 112.673 109.566 117.15C110.694 118.534 112.032 120.468 112.794 122.104C114.23 126.351 114.079 131.548 113.857 135.995C113.806 136.864 113.684 138.358 113.4 139.062C112.877 140.357 109.28 141.887 107.973 142.409C105.395 143.439 101.891 144.613 99.1186 144.941C98.3876 145.028 97.2354 144.727 96.5688 144.436C94.475 143.546 92.8355 141.838 92.0314 139.709C89.3572 139.357 87.1547 137.802 86.8649 134.957C84.068 134.526 82.3275 133.091 81.9054 130.197C80.715 129.961 79.6403 129.326 78.8579 128.398C77.503 126.765 77.2628 125.213 77.4421 123.192C75.5615 123.559 75.3892 123.689 73.5034 123.173C71.5489 122.639 69.556 122.158 67.5954 121.621L42.0386 114.875L33.0739 112.559C31.0863 112.052 28.7079 111.571 26.8348 110.826C26.4231 110.662 25.443 105.877 25.2648 105.123L22.8251 94.7852L15.5821 96.9114C13.7034 97.4528 11.867 97.9393 10.0542 96.8827C8.47154 95.9323 7.23694 94.565 6.80348 92.7442C6.06849 89.7215 5.3435 86.6831 4.57082 83.6717C3.96236 81.2991 3.25164 79.0171 4.61668 76.7376C6.00774 74.4155 8.09673 73.9423 10.5316 73.34C7.32701 59.7563 3.4813 46.2814 0.291123 32.6882C0.0901876 31.8319 -0.38078 30.3388 0.733461 29.8976C2.16246 29.3316 3.63454 28.8467 5.07877 28.3224L12.6479 25.5222L61.1992 7.49907L75.3666 2.26254C76.8285 1.72867 79.5315 0.538988 80.9151 0.287109Z" fill="black"/>
      <path d="M88.7475 40.9326C88.7971 40.9639 88.858 40.9827 88.8963 41.0268C88.9511 41.0885 98.1877 83.9873 99.1728 87.809C97.6716 90.2677 96.154 92.716 94.6206 95.1538C93.0734 97.5673 91.1806 100.367 89.8683 102.876C87.1828 103.053 81.3862 103.705 79.1453 105.229C76.0639 107.324 72.9258 113.96 71.7406 117.505C71.3751 118.598 72.2366 119.968 72.7796 120.834C71.65 120.383 69.1838 119.876 67.8898 119.536C64.1069 118.521 60.3179 117.531 56.5223 116.565L36.1009 111.206C33.5441 110.549 30.9157 109.824 28.3522 109.235L26.4352 100.894C26.0052 99.1696 25.584 97.4428 25.1716 95.7143C24.9622 94.8074 24.8454 93.7447 24.4735 92.8935C24.4166 92.7639 24.3042 92.5315 24.1702 92.4714C23.5897 92.2103 14.3611 95.4341 12.722 95.5107C12.2172 95.5342 11.6875 95.3984 11.2264 95.2008C10.1835 94.7543 9.47768 94.0076 9.07198 92.9588C8.72006 92.0484 8.52635 91.0501 8.28877 90.1041C7.8648 88.426 7.45292 86.7445 7.05322 85.0595C6.58104 83.0778 5.41032 79.8731 6.23895 77.9514C7.01545 76.1507 9.09139 75.8356 10.7908 75.4048C12.3805 74.9948 13.9722 74.5936 15.566 74.2011C16.5681 73.9563 17.8356 73.7103 18.7865 73.3595C18.9963 74.0958 19.7482 77.6616 20.114 77.9792C20.2558 78.102 20.6136 78.1377 20.793 78.1142C21.272 78.0489 30.4149 68.8189 31.3217 67.7011C31.2011 66.8156 30.6278 64.7792 30.3948 63.8398C29.7063 61.1253 29.0544 58.4016 28.4394 55.6694C31.8207 54.9603 35.7538 53.8546 39.1401 52.976L53.3216 49.3517C65.0859 46.3618 76.8958 43.5551 88.7475 40.9326Z" fill="#F8F6F8"/>
      <path d="M52.9039 65.0097C58.5045 64.7672 63.2377 69.1179 63.4674 74.7199C63.6972 80.3214 59.3365 85.0457 53.7354 85.2624C48.1517 85.48 43.4462 81.1352 43.2169 75.5511C42.9877 69.9672 47.3212 65.2514 52.9039 65.0097Z" fill="black"/>
      <path d="M52.8806 66.6105C54.9682 66.3636 56.8867 67.1315 58.4928 68.4056C56.5991 68.0782 55.0811 68.3784 53.5355 69.5441C52.3126 70.4553 51.5145 71.8261 51.3257 73.3395C51.1363 74.8679 51.5613 76.4093 52.5075 77.6243C54.6668 80.4285 58.471 80.5582 61.187 78.4537C60.597 79.6209 60.282 80.1309 59.3926 81.0656C54.2932 86.0092 46.1248 83.4199 45.0463 76.4911C44.7042 74.2325 45.2825 71.9302 46.6516 70.1011C48.1907 68.0212 50.3717 66.9818 52.8806 66.6105Z" fill="#F8F6F8"/>
      <path d="M82.7229 58.5088C88.0992 57.9519 92.9072 61.865 93.4545 67.2434C94.0019 72.6219 90.0815 77.4237 84.7026 77.9616C79.3368 78.4986 74.5506 74.589 74.0041 69.2237C73.4584 63.8585 77.3588 59.0644 82.7229 58.5088Z" fill="black"/>
      <path d="M83.1683 59.906C84.7739 59.7826 86.8894 60.2531 88.153 61.2899L88.0381 61.2725C86.4143 61.0371 85.0402 61.2723 83.7183 62.3008C79.5282 65.5605 81.5732 71.9019 86.698 72.4735C88.4776 72.672 89.9291 71.9571 91.2719 70.8522C90.6993 72.3101 90.4861 72.7063 89.4696 73.9065C85.6328 78.0942 79.2714 77.2038 76.6051 72.2166C74.6775 68.6112 76.0507 63.6553 79.3654 61.3658C80.6986 60.4453 81.5567 60.1579 83.1683 59.906Z" fill="#F8F6F8"/>
      <path d="M69.0052 67.7283C69.3263 67.6932 69.3873 67.6915 69.7092 67.7096C69.966 67.8676 69.9747 67.8584 70.1243 68.1693C71.0537 70.1012 71.9823 72.0714 72.9099 74.001L79.6229 88.1476C79.5576 88.4349 79.4976 88.7778 79.3322 89.0276C79.0268 89.4897 70.9937 91.3375 69.9442 91.5899C69.7823 91.6316 69.1288 91.8249 69.0165 91.7631C68.4291 91.4393 68.2003 90.1512 69.0366 89.9388C69.9686 89.703 70.8475 89.4993 71.7543 89.2782C73.667 88.8126 75.5781 88.3374 77.4865 87.8535C75.4484 83.4808 73.3642 79.13 71.2347 74.8017C70.8196 73.9381 68.2394 68.8537 68.3665 68.2675C68.5553 67.9505 68.6711 67.9217 69.0052 67.7283Z" fill="black"/>
      <path d="M55.4062 54.5508C55.4641 54.553 55.5225 54.5491 55.5798 54.5575C55.8567 54.5981 56.0263 54.7906 56.1717 55.0148C56.3419 55.2773 56.4601 55.5197 56.3674 55.8366C56.0875 56.7932 41.7575 64.9151 39.9286 65.9749C39.5262 65.8798 39.3272 65.7838 39.0943 65.4326C38.764 64.9346 38.9617 64.4401 39.434 64.1641C41.0776 63.2036 42.7215 62.2488 44.3566 61.2753C48.0554 59.0594 51.7387 56.818 55.4062 54.5508Z" fill="black"/>
      <path d="M78.1054 98.2093C78.5962 98.1509 79.4342 97.9534 79.6265 98.5609C80.0877 100.019 78.9051 99.9082 77.9165 100.034C72.877 100.67 67.6295 101.645 62.8006 103.246C62.4038 103.363 62.0879 103.476 61.6833 103.283C61.2551 103.077 60.8009 102.367 61.2342 101.974C61.7129 101.54 62.912 101.234 63.556 101.058C68.2665 99.7741 73.2338 98.6557 78.1054 98.2093Z" fill="black"/>
      <path d="M73.7614 50.4824C78.5799 51.2901 83.3783 52.3413 88.2516 52.8721C89.4403 53.0015 91.0625 53.3918 89.6675 54.8665C87.7443 54.7638 73.8737 52.7375 73.3472 52.1863C73.1853 52.0163 73.1262 51.8325 73.1323 51.6006C73.1444 51.1143 73.422 50.7907 73.7614 50.4824Z" fill="black"/>
      <path d="M90.5353 104.916C91.7623 104.875 94.7864 104.87 95.855 105.084C97.7982 106.709 100.326 109.708 102.071 111.643C104.413 114.239 106.763 116.975 108.873 119.763C109.301 120.329 110.748 122.396 110.938 123.017C112.089 126.802 112.056 131.332 111.876 135.253C111.832 136.209 111.617 137.521 111.481 138.432C107.768 140.353 103.481 142.157 99.2733 142.84C96.9089 143.225 94.896 140.994 93.8648 139.025C95.5417 137.868 97.0316 134.051 98.0671 132.038C99.0688 131.749 102.53 130.825 103.069 130.115C103.199 129.944 103.291 129.757 103.242 129.538C103.193 129.322 103.053 129.121 102.865 129.005C102.411 128.725 97.947 130.265 97.1343 130.485C96.1866 131.792 95.4686 133.304 94.7585 134.749C94.4261 135.425 94.1207 136.168 93.6812 136.779C93.3331 137.263 92.8797 137.669 92.2679 137.745C91.4734 137.844 90.712 137.382 90.1185 136.902C89.3736 136.299 88.7722 135.561 88.6922 134.571C88.5834 133.225 89.4893 131.86 90.0976 130.717C90.7946 129.407 91.959 126.9 92.9519 125.935C94.2877 124.637 100.658 123.254 101.337 122.233C101.45 122.062 101.488 121.813 101.46 121.612C101.426 121.371 101.322 121.099 101.103 120.967C100.881 120.833 100.575 120.865 100.338 120.933C99.4177 121.196 98.4657 121.697 97.5711 122.052C96.0265 122.665 94.4131 123.197 92.9093 123.903C92.5542 124.069 92.2061 124.257 91.9138 124.521C90.8669 125.469 90.1663 126.996 89.4693 128.202C88.9254 129.152 88.3867 130.081 87.9055 131.064C87.7001 131.484 87.285 132.683 86.9674 132.866C85.2217 132.985 83.53 130.819 83.8702 129.053C83.9877 128.446 84.2157 127.881 84.4681 127.311C85.5933 124.776 86.802 122.289 88.2379 119.914C90.7294 118.486 94.7725 117.855 97.2082 116.151C97.7347 115.262 96.8201 114.62 96.056 114.961C93.6394 116.04 89.9557 117.214 87.6905 118.269C86.0267 119.045 82.685 126.653 82.1881 128.357C80.7679 127.849 79.5887 126.572 79.4077 125.088C79.0196 121.91 82.2507 116.631 83.9799 114.088C86.963 112.896 90.2368 112.005 93.2713 110.925C94.5775 110.576 94.5862 108.696 93.0477 109.135C89.7565 110.074 86.3321 111.675 83.0104 112.451C81.8678 113.913 80.5677 116.506 79.6322 118.162C79.2415 118.853 78.7481 119.963 78.3069 120.566C78.1041 120.847 77.8213 121.062 77.4949 121.179C75.6762 121.835 74.0436 119.417 73.5493 117.954C74.0453 115.804 77.3757 109.764 78.8786 108.017C81.109 105.423 87.2615 105.068 90.5353 104.916Z" fill="#F8F6F8"/>
  </svg>