<svg xmlns="http://www.w3.org/2000/svg" width="107" height="174" viewBox="0 0 107 174" fill="none">
      <path d="M0 0H106.838L106.828 63.223L106.832 85.409C106.84 89.306 106.882 93.2275 106.854 97.1254C106.851 97.6339 106.704 98.5957 106.353 98.9697C106.211 99.122 106.109 99.3058 106.051 99.5059C106.588 103.996 106.129 107.673 105.902 112.012C106.129 112.721 106.375 112.249 106.517 112.939C107.056 115.554 106.901 118.709 106.873 121.399C106.843 124.004 106.829 126.609 106.831 129.214L106.828 159.387L106.827 168.766C106.828 170.138 106.764 172.679 106.892 174H55.6549H55.2654H0V155.561V75.9356V0Z" fill="black"/>
      <path d="M0 0H106.838L106.828 63.223L106.832 85.409C106.84 89.306 106.882 93.2275 106.854 97.1254C106.851 97.6339 106.704 98.5957 106.353 98.9697C106.211 99.122 106.109 99.3058 106.051 99.5059C104.768 93.8465 102.808 89.8056 97.8767 86.3534C94.8649 84.2451 90.5257 83.1117 86.8586 83.1381C85.6994 83.1465 83.7332 83.5194 82.5313 83.7395L82.5515 79.7122C82.562 77.1354 82.6075 74.8969 80.6709 72.9282C74.274 66.4249 49.6673 65.4724 40.507 65.4395C41.3768 54.3373 48.9901 43.4414 51.0857 32.2107C52.8526 22.7418 51.7021 14.9754 47.0421 6.45867C45.6375 3.89168 44.4385 2.35174 42.8499 0C42.017 0.60405 41.2313 1.31514 40.3535 1.94701C40.4223 2.01647 40.4886 2.08831 40.5524 2.16243C42.6232 4.5956 45.5856 10.0966 46.7407 13.1335C54.4473 33.3943 39.0458 46.6552 37.3932 65.4463C28.081 65.7747 16.6178 66.7063 7.76963 69.6462C3.84443 70.9504 1.74118 72.2535 0 75.9356V0Z" fill="#F8F6F8"/>
      <path d="M41.0101 12.5498C41.711 13.0437 43.2907 18.8185 43.4494 20.054C43.6374 21.5196 44.0123 23.4436 43.9877 24.9058C43.8869 30.9155 42.151 36.7147 39.8466 42.22C38.7822 44.7724 37.6369 46.9979 36.8239 49.6178C36.3113 49.2928 35.6908 49.0143 35.14 48.7479L34.022 48.2969C34.4307 46.6382 35.5006 44.5511 36.1607 42.9049C37.2459 40.1986 38.4758 37.2976 39.3538 34.5249C41.4676 27.8495 41.527 20.2399 38.2407 13.9244C39.1497 13.4461 40.1384 13.0757 41.0101 12.5498Z" fill="black"/>
      <path d="M82.5438 139.02C85.8924 138.646 89.082 137.798 91.9459 136.017C99.3649 131.402 103.473 123.242 105.303 114.941C105.518 113.969 105.674 112.987 105.902 112.013C106.129 112.722 106.375 112.249 106.518 112.939C107.057 115.554 106.901 118.709 106.873 121.4C106.844 124.004 106.829 126.609 106.831 129.214L106.828 159.387L106.827 168.767C106.828 170.139 106.764 172.68 106.893 174H55.6553C57.0064 173.065 59.9279 171.787 61.5092 170.988L76.1126 163.736C75.9077 163.127 75.5809 162.398 75.3273 161.795C78.0106 160.809 81.8296 158.804 82.3529 155.657C82.6753 153.718 82.5458 151.383 82.5435 149.386L82.5438 139.02Z" fill="#F8F6F8"/>
      <path d="M0 155.561C1.06382 158.364 2.69214 159.894 5.53471 161.08C16.7254 165.75 30.1178 165.872 42.0525 166.058C45.0823 166.105 48.1969 165.835 51.1591 165.84C52.197 167.825 54.4605 171.966 55.2654 174H0V155.561Z" fill="#F8F6F8"/>
      <path d="M3.15544 81.0762C10.6173 84.8239 21.341 85.5607 29.5707 86.0531C34.2009 86.3752 38.8421 86.5159 43.4834 86.4749C47.5308 86.4054 51.7362 85.9906 55.633 85.9553C61.4717 96.4974 53.843 107.782 51.0169 118.016C48.3444 127.693 48.7636 139.89 53.8205 148.775C51.6112 149.981 49.2877 151.082 47.0094 152.153C46.3019 152.523 45.5987 152.899 44.8716 153.23C45.4354 154.109 46.1665 155.708 46.6493 156.679L49.7 162.801C45.244 163.268 37.426 162.983 32.9532 162.854C27.119 162.686 6.0354 160.785 3.36681 155.605L3.33812 155.549C2.99466 154.888 3.13853 146.806 3.1386 145.485L3.13749 127.401L3.15544 81.0762Z" fill="#F8F6F8"/>
      <path d="M79.077 81.1611C79.2918 81.4119 79.2136 88.0075 79.214 88.8966C82.2148 87.6495 83.6034 86.1035 87.199 86.2578C109.836 87.2294 105.357 118.816 94.2647 130.229C89.9554 134.663 84.9908 136.013 79.2304 136.012C79.0838 140.288 79.288 144.642 79.2065 148.931C79.1671 151.004 79.575 154.314 78.7303 156.113C78.3391 156.947 75.0612 158.753 74.1316 158.921C73.7566 158.804 73.8506 158.805 73.5713 158.421C70.9713 153.741 68.2997 147.82 65.8214 142.932C63.4943 143.838 58.9021 146.217 56.4995 147.435C53.4254 140.679 51.8814 133.681 52.5451 126.23C53.8331 111.768 65.1273 100.498 59.0155 85.6591C60.6638 85.6563 63.1128 85.2577 64.7613 85.0056C69.5918 84.2669 74.7101 83.4657 79.077 81.1611Z" fill="#F8F6F8"/>
      <path d="M85.3973 92.5871C86.0163 92.5099 87.2649 92.5846 87.8907 92.666C90.5455 93.0026 92.9567 94.3841 94.5909 96.5046C95.2972 97.434 96.1418 99.076 96.3776 100.218C98.2014 109.056 95.0948 120.983 87.7695 126.551C85.2904 128.394 82.2973 129.414 79.2096 129.469C79.1187 121.809 79.2103 113.983 79.2046 106.309L79.1955 99.1271C79.1943 97.8461 79.1373 95.7319 79.3265 94.5171C81.4329 93.2152 82.9704 92.7965 85.3973 92.5871Z" fill="black"/>
      <path d="M85.8204 95.7234C85.903 95.7123 85.9858 95.7045 86.069 95.7C90.9357 95.4006 93.7293 99.5121 93.8389 103.976C93.9989 110.494 92.0403 117.772 87.5605 122.617C85.8562 124.274 84.7442 124.959 82.5494 125.818L82.5364 107.641C82.5363 104.139 82.4248 99.7291 82.6106 96.3018C83.7693 95.9458 84.6171 95.8389 85.8204 95.7234Z" fill="#F8F6F8"/>
      <path d="M40.4482 68.6924C47.9515 68.6968 76.3927 69.107 79.344 76.8008C78.8775 77.3537 78.6512 77.5395 78.0991 77.9949C74.9675 80.2816 73.6848 78.4605 70.3585 77.7921C68.3603 77.3906 66.298 76.9397 64.28 76.6326C56.7849 75.4921 49.0326 75.122 41.4565 74.9749C40.94 72.6159 40.6667 71.119 40.4482 68.6924Z" fill="#F8F6F8"/>
      <path d="M35.5765 68.759C36.119 68.7151 36.8323 68.7323 37.3883 68.7298C37.3931 70.3578 37.6812 73.561 38.2872 74.9766C35.637 74.9897 32.8032 75.2653 30.144 75.4106C24.1582 75.7428 18.3022 76.4121 12.4481 77.7236C10.552 78.1484 7.72619 79.5357 5.96258 78.9391C4.78923 78.3139 3.83852 77.771 3.06299 76.6626C3.2467 76.2772 3.42477 75.9227 3.71014 75.6004C8.17439 70.5579 24.4388 69.305 31.1218 68.9043C32.6048 68.8154 34.0931 68.844 35.5765 68.759Z" fill="#F8F6F8"/>
      <path d="M63.2155 150.061L63.4183 150.114C65.4149 153.687 67.1166 157.757 69.0471 161.227C66.7372 162.48 64.2618 163.658 61.9138 164.854C60.6325 165.506 59.0484 166.188 57.841 166.934L57.8255 166.935C57.3327 166.71 52.6639 156.919 52.0469 155.429C53.2622 155.045 55.4068 153.921 56.5843 153.335L63.2155 150.061Z" fill="#F8F6F8"/>
  </svg>