<svg xmlns="http://www.w3.org/2000/svg" width="113" height="73" viewBox="0 0 113 73" fill="none">
  <path d="M0 9H73V73H0V36.8641V32.5751V9Z" fill="black"/>
  <path d="M0 9H73V73H0V36.8641C0.207104 37.3296 0.298684 38.2798 0.44123 38.8254C2.88847 48.191 10.5118 54.3052 18.4632 59.2749C21.3593 61.0924 24.341 62.77 27.3978 64.3019C27.99 64.5984 28.5793 64.8638 29.1805 65.1389C32.6253 66.7153 36.0187 68.3847 39.4726 69.9418C41.4251 70.822 43.3128 71.885 45.3273 72.6394C46.2013 71.8412 46.9423 70.7242 47.7699 69.8621C48.7533 68.8377 49.6153 67.6947 50.5523 66.6314C52.5339 64.3965 54.4909 62.1399 56.423 59.8621C57.3231 58.8088 58.2626 57.7629 59.1302 56.6855C60.7793 54.6344 62.3391 52.5133 63.805 50.3278C69.8037 41.5515 75.98 30.0119 71.0788 19.3109C69.1344 15.0665 65.4444 11.6935 61.0109 10.1941C56.2132 8.61176 50.9841 8.99534 46.4688 11.2608C41.9021 13.5168 38.9086 16.6969 36.4396 21.1599C35.9026 22.1306 35.4144 23.0825 35.0573 24.1371C33.5324 22.6202 29.6632 19.9888 27.7137 19.1348C22.0259 16.6433 16.7533 16.3143 10.916 18.5837C6.38419 20.3805 2.83468 24.0261 1.15957 28.6043C0.779538 29.6322 0.454774 30.6753 0.235326 31.7496C0.180847 32.0163 0.115536 32.3301 0 32.5751V9Z" fill="#F5F5F5"/>
  <path d="M53.9767 11.9013C54.6044 11.778 56.5559 11.8887 57.2145 11.9551C60.8431 12.3206 64.3667 14.4198 66.6735 17.2146C69.9435 21.1749 70.5666 25.4782 70.0198 30.4294C69.6466 33.8076 68.486 36.643 67.0254 39.6917C64.8954 44.0588 62.3419 48.2064 59.402 52.0751C55.551 57.1649 51.1332 61.9168 46.9623 66.7497C46.1559 67.6841 45.5365 68.6527 44.5491 69.4349C42.29 68.4889 39.9273 67.2775 37.6923 66.2296C35.4036 65.177 33.1225 64.1083 30.849 63.0234C29.8743 62.565 28.788 62.1073 27.8404 61.6184C25.6008 60.463 23.4376 59.1523 21.2276 57.9339C20.349 57.4413 19.421 56.7861 18.5583 56.2335C15.3898 54.1749 12.1236 51.8091 9.4929 49.0982C5.62956 45.117 2.58172 40.3599 2.70063 34.624C2.79129 30.2504 4.23362 26.9124 7.4239 23.8386C10.4396 20.9331 14.8136 19.6893 18.9253 19.6331C23.9683 19.684 28.8619 22.2343 32.5733 25.5096C33.8116 26.6023 34.8287 27.6643 35.9811 28.8553C38.9829 20.1005 43.9783 12.7799 53.9767 11.9013Z" fill="#F5F5F5"/>
</svg>
