<svg width="342" height="510" viewBox="0 0 342 510" fill="none" xmlns="http://www.w3.org/2000/svg">
<path d="M171.256 55.2949L171.256 55.0389L170.744 55.0389L170.744 55.2949L171 55.2949L171.256 55.2949ZM171 55.2949L170.744 55.2949L170.744 55.5499L171 55.5499L171.256 55.5499L171.256 55.2949L171 55.2949ZM171 57.59L170.744 57.59L170.744 58.1L171 58.1L171.256 58.1L171.256 57.59L171 57.59ZM171 60.14L170.744 60.14L170.744 60.65L171 60.65L171.256 60.65L171.256 60.14L171 60.14ZM171 62.69L170.744 62.69L170.744 63.2L171 63.2L171.256 63.2L171.256 62.69L171 62.69ZM171 65.2401L170.744 65.2401L170.744 65.7501L171 65.7501L171.256 65.7501L171.256 65.2401L171 65.2401ZM171 67.7901L170.744 67.7901L170.744 68.3001L171 68.3001L171.256 68.3001L171.256 67.7901L171 67.7901ZM171 70.3401L170.744 70.3401L170.744 70.8501L171 70.8501L171.256 70.8501L171.256 70.3401L171 70.3401ZM171 72.8902L170.744 72.8902L170.744 73.4002L171 73.4002L171.256 73.4002L171.256 72.8902L171 72.8902ZM171 75.4402L170.744 75.4402L170.744 75.9502L171 75.9502L171.256 75.9502L171.256 75.4402L171 75.4402ZM171 77.9902L170.744 77.9902L170.744 78.5002L171 78.5002L171.256 78.5002L171.256 77.9902L171 77.9902ZM171 80.5403L170.744 80.5403L170.744 81.0503L171 81.0503L171.256 81.0503L171.256 80.5403L171 80.5403ZM171 83.0903L170.744 83.0903L170.744 83.6003L171 83.6003L171.256 83.6003L171.256 83.0903L171 83.0903ZM171 85.6403L170.744 85.6403L170.744 86.1503L171 86.1503L171.256 86.1503L171.256 85.6403L171 85.6403ZM171 88.1904L170.744 88.1904L170.744 88.7004L171 88.7004L171.256 88.7004L171.256 88.1904L171 88.1904ZM171 90.7404L170.744 90.7404L170.744 91.2504L171 91.2504L171.256 91.2504L171.256 90.7404L171 90.7404ZM171 93.2904L170.744 93.2904L170.744 93.8004L171 93.8004L171.256 93.8004L171.256 93.2904L171 93.2904ZM171 95.8405L170.744 95.8405L170.744 96.3505L171 96.3505L171.256 96.3505L171.256 95.8405L171 95.8405ZM171 98.3905L170.744 98.3905L170.744 98.9005L171 98.9005L171.256 98.9005L171.256 98.3905L171 98.3905ZM171 100.941L170.744 100.941L170.744 101.451L171 101.451L171.256 101.451L171.256 100.941L171 100.941ZM171 103.491L170.744 103.491L170.744 104.001L171 104.001L171.256 104.001L171.256 103.491L171 103.491ZM171 106.041L170.744 106.041L170.744 106.551L171 106.551L171.256 106.551L171.256 106.041L171 106.041ZM171 108.591L170.744 108.591L170.744 109.101L171 109.101L171.256 109.101L171.256 108.591L171 108.591ZM171 111.141L170.744 111.141L170.744 111.651L171 111.651L171.256 111.651L171.256 111.141L171 111.141ZM171 113.691L170.744 113.691L170.744 114.201L171 114.201L171.256 114.201L171.256 113.691L171 113.691ZM171 116.241L170.744 116.241L170.744 116.751L171 116.751L171.256 116.751L171.256 116.241L171 116.241ZM171 118.791L170.744 118.791L170.744 119.301L171 119.301L171.256 119.301L171.256 118.791L171 118.791ZM171 121.341L170.744 121.341L170.744 121.851L171 121.851L171.256 121.851L171.256 121.341L171 121.341ZM171 123.891L170.744 123.891L170.744 124.401L171 124.401L171.256 124.401L171.256 123.891L171 123.891ZM171 126.441L170.744 126.441L170.744 126.951L171 126.951L171.256 126.951L171.256 126.441L171 126.441ZM171 128.991L170.744 128.991L170.744 129.501L171 129.501L171.256 129.501L171.256 128.991L171 128.991ZM171 131.541L170.744 131.541L170.744 132.051L171 132.051L171.256 132.051L171.256 131.541L171 131.541ZM171 134.091L170.744 134.091L170.744 134.601L171 134.601L171.256 134.601L171.256 134.091L171 134.091ZM171 136.641L170.744 136.641L170.744 137.151L171 137.151L171.256 137.151L171.256 136.641L171 136.641ZM171 139.191L170.744 139.191L170.744 139.701L171 139.701L171.256 139.701L171.256 139.191L171 139.191ZM171 141.741L170.744 141.741L170.744 142.251L171 142.251L171.256 142.251L171.256 141.741L171 141.741ZM171 144.291L170.744 144.291L170.744 144.801L171 144.801L171.256 144.801L171.256 144.291L171 144.291ZM171 146.841L170.744 146.841L170.744 147.351L171 147.351L171.256 147.351L171.256 146.841L171 146.841ZM171 149.391L170.744 149.391L170.744 149.901L171 149.901L171.256 149.901L171.256 149.391L171 149.391ZM171 151.941L170.744 151.941L170.744 152.451L171 152.451L171.256 152.451L171.256 151.941L171 151.941ZM171 154.491L170.744 154.491L170.744 155.001L171 155.001L171.256 155.001L171.256 154.491L171 154.491ZM171 157.041L170.744 157.041L170.744 157.551L171 157.551L171.256 157.551L171.256 157.041L171 157.041ZM171 159.591L170.744 159.591L170.744 160.101L171 160.101L171.256 160.101L171.256 159.591L171 159.591ZM171 162.141L170.744 162.141L170.744 162.651L171 162.651L171.256 162.651L171.256 162.141L171 162.141ZM171 164.691L170.744 164.691L170.744 165.201L171 165.201L171.256 165.201L171.256 164.691L171 164.691ZM171 167.241L170.744 167.241L170.744 167.751L171 167.751L171.256 167.751L171.256 167.241L171 167.241ZM171 169.791L170.744 169.791L170.744 170.301L171 170.301L171.256 170.301L171.256 169.791L171 169.791ZM171 172.341L170.744 172.341L170.744 172.851L171 172.851L171.256 172.851L171.256 172.341L171 172.341ZM171 174.892L170.744 174.892L170.744 175.402L171 175.402L171.256 175.402L171.256 174.892L171 174.892ZM171 177.442L170.744 177.442L170.744 177.952L171 177.952L171.256 177.952L171.256 177.442L171 177.442ZM171 179.992L170.744 179.992L170.744 180.502L171 180.502L171.256 180.502L171.256 179.992L171 179.992ZM171 182.542L170.744 182.542L170.744 183.052L171 183.052L171.256 183.052L171.256 182.542L171 182.542ZM171 185.092L170.744 185.092L170.744 185.602L171 185.602L171.256 185.602L171.256 185.092L171 185.092ZM171 187.642L170.744 187.642L170.744 188.152L171 188.152L171.256 188.152L171.256 187.642L171 187.642ZM171 190.192L170.744 190.192L170.744 190.702L171 190.702L171.256 190.702L171.256 190.192L171 190.192ZM171 192.742L170.744 192.742L170.744 193.252L171 193.252L171.256 193.252L171.256 192.742L171 192.742ZM171 195.292L170.744 195.292L170.744 195.802L171 195.802L171.256 195.802L171.256 195.292L171 195.292ZM171 197.842L170.744 197.842L170.744 198.352L171 198.352L171.256 198.352L171.256 197.842L171 197.842ZM171 200.392L170.744 200.392L170.744 200.902L171 200.902L171.256 200.902L171.256 200.392L171 200.392ZM171 202.942L170.744 202.942L170.744 203.452L171 203.452L171.256 203.452L171.256 202.942L171 202.942ZM171 205.492L170.744 205.492L170.744 206.002L171 206.002L171.256 206.002L171.256 205.492L171 205.492ZM171 208.042L170.744 208.042L170.744 208.552L171 208.552L171.256 208.552L171.256 208.042L171 208.042ZM171 210.592L170.744 210.592L170.744 211.102L171 211.102L171.256 211.102L171.256 210.592L171 210.592ZM171 213.142L170.744 213.142L170.744 213.652L171 213.652L171.256 213.652L171.256 213.142L171 213.142ZM171 215.692L170.744 215.692L170.744 216.202L171 216.202L171.256 216.202L171.256 215.692L171 215.692ZM171 218.242L170.744 218.242L170.744 218.752L171 218.752L171.256 218.752L171.256 218.242L171 218.242ZM171 220.792L170.744 220.792L170.744 221.302L171 221.302L171.256 221.302L171.256 220.792L171 220.792ZM171 223.342L170.744 223.342L170.744 223.852L171 223.852L171.256 223.852L171.256 223.342L171 223.342ZM171 225.892L170.744 225.892L170.744 226.402L171 226.402L171.256 226.402L171.256 225.892L171 225.892ZM171 228.442L170.744 228.442L170.744 228.952L171 228.952L171.256 228.952L171.256 228.442L171 228.442ZM171 230.992L170.744 230.992L170.744 231.502L171 231.502L171.256 231.502L171.256 230.992L171 230.992ZM171 233.542L170.744 233.542L170.744 234.052L171 234.052L171.256 234.052L171.256 233.542L171 233.542ZM171 236.092L170.744 236.092L170.744 236.602L171 236.602L171.256 236.602L171.256 236.092L171 236.092ZM171 238.642L170.744 238.642L170.744 239.152L171 239.152L171.256 239.152L171.256 238.642L171 238.642ZM171 241.192L170.744 241.192L170.744 241.702L171 241.702L171.256 241.702L171.256 241.192L171 241.192ZM171 243.742L170.744 243.742L170.744 244.252L171 244.252L171.256 244.252L171.256 243.742L171 243.742ZM171 246.292L170.744 246.292L170.744 246.802L171 246.802L171.256 246.802L171.256 246.292L171 246.292ZM171 248.842L170.744 248.842L170.744 249.353L171 249.353L171.256 249.353L171.256 248.842L171 248.842ZM171 251.393L170.744 251.393L170.744 251.903L171 251.903L171.256 251.903L171.256 251.393L171 251.393ZM171 253.943L170.744 253.943L170.744 254.453L171 254.453L171.256 254.453L171.256 253.943L171 253.943ZM171 256.493L170.744 256.493L170.744 257.003L171 257.003L171.256 257.003L171.256 256.493L171 256.493ZM171 259.043L170.744 259.043L170.744 259.553L171 259.553L171.256 259.553L171.256 259.043L171 259.043ZM171 261.593L170.744 261.593L170.744 262.103L171 262.103L171.256 262.103L171.256 261.593L171 261.593ZM171 264.143L170.744 264.143L170.744 264.653L171 264.653L171.256 264.653L171.256 264.143L171 264.143ZM171 266.693L170.744 266.693L170.744 267.203L171 267.203L171.256 267.203L171.256 266.693L171 266.693ZM171 269.243L170.744 269.243L170.744 269.753L171 269.753L171.256 269.753L171.256 269.243L171 269.243ZM171 271.793L170.744 271.793L170.744 272.303L171 272.303L171.256 272.303L171.256 271.793L171 271.793ZM171 274.343L170.744 274.343L170.744 274.853L171 274.853L171.256 274.853L171.256 274.343L171 274.343ZM171 276.893L170.744 276.893L170.744 277.403L171 277.403L171.256 277.403L171.256 276.893L171 276.893ZM171 279.443L170.744 279.443L170.744 279.953L171 279.953L171.256 279.953L171.256 279.443L171 279.443ZM171 281.993L170.744 281.993L170.744 282.503L171 282.503L171.256 282.503L171.256 281.993L171 281.993ZM171 284.543L170.744 284.543L170.744 285.053L171 285.053L171.256 285.053L171.256 284.543L171 284.543ZM171 287.093L170.744 287.093L170.744 287.603L171 287.603L171.256 287.603L171.256 287.093L171 287.093ZM171 289.643L170.744 289.643L170.744 290.153L171 290.153L171.256 290.153L171.256 289.643L171 289.643ZM171 292.193L170.744 292.193L170.744 292.703L171 292.703L171.256 292.703L171.256 292.193L171 292.193ZM171 294.743L170.744 294.743L170.744 295.253L171 295.253L171.256 295.253L171.256 294.743L171 294.743ZM171 297.293L170.744 297.293L170.744 297.803L171 297.803L171.256 297.803L171.256 297.293L171 297.293ZM171 299.843L170.744 299.843L170.744 300.353L171 300.353L171.256 300.353L171.256 299.843L171 299.843ZM171 302.393L170.744 302.393L170.744 302.903L171 302.903L171.256 302.903L171.256 302.393L171 302.393ZM171 304.943L170.744 304.943L170.744 305.453L171 305.453L171.256 305.453L171.256 304.943L171 304.943ZM171 307.493L170.744 307.493L170.744 308.003L171 308.003L171.256 308.003L171.256 307.493L171 307.493ZM171 310.043L170.744 310.043L170.744 310.553L171 310.553L171.256 310.553L171.256 310.043L171 310.043ZM171 312.593L170.744 312.593L170.744 313.103L171 313.103L171.256 313.103L171.256 312.593L171 312.593ZM171 315.143L170.744 315.143L170.744 315.653L171 315.653L171.256 315.653L171.256 315.143L171 315.143ZM171 317.693L170.744 317.693L170.744 318.203L171 318.203L171.256 318.203L171.256 317.693L171 317.693ZM171 320.243L170.744 320.243L170.744 320.499L171 320.499L171.256 320.499L171.256 320.243L171 320.243Z" fill="white" fill-opacity="0.48"/>
<path d="M171.256 386.031L171.256 385.775L170.744 385.775L170.744 386.031L171 386.031L171.256 386.031ZM171 386.031L170.744 386.031L170.744 386.289L171 386.289L171.256 386.289L171.256 386.031L171 386.031ZM171 388.351L170.744 388.351L170.744 388.867L171 388.867L171.256 388.867L171.256 388.351L171 388.351ZM171 390.929L170.744 390.929L170.744 391.444L171 391.444L171.256 391.444L171.256 390.929L171 390.929ZM171 393.506L170.744 393.506L170.744 394.022L171 394.022L171.256 394.022L171.256 393.506L171 393.506ZM171 396.084L170.744 396.084L170.744 396.599L171 396.599L171.256 396.599L171.256 396.084L171 396.084ZM171 398.661L170.744 398.661L170.744 399.177L171 399.177L171.256 399.177L171.256 398.661L171 398.661ZM171 401.239L170.744 401.239L170.744 401.754L171 401.754L171.256 401.754L171.256 401.239L171 401.239ZM171 403.816L170.744 403.816L170.744 404.332L171 404.332L171.256 404.332L171.256 403.816L171 403.816ZM171 406.394L170.744 406.394L170.744 406.909L171 406.909L171.256 406.909L171.256 406.394L171 406.394ZM171 408.971L170.744 408.971L170.744 409.487L171 409.487L171.256 409.487L171.256 408.971L171 408.971ZM171 411.549L170.744 411.549L170.744 412.064L171 412.064L171.256 412.064L171.256 411.549L171 411.549ZM171 414.126L170.744 414.126L170.744 414.642L171 414.642L171.256 414.642L171.256 414.126L171 414.126ZM171 416.704L170.744 416.704L170.744 417.219L171 417.219L171.256 417.219L171.256 416.704L171 416.704ZM171 419.281L170.744 419.281L170.744 419.797L171 419.797L171.256 419.797L171.256 419.281L171 419.281ZM171 421.859L170.744 421.859L170.744 422.374L171 422.374L171.256 422.374L171.256 421.859L171 421.859ZM171 424.437L170.744 424.437L170.744 424.952L171 424.952L171.256 424.952L171.256 424.437L171 424.437ZM171 427.014L170.744 427.014L170.744 427.53L171 427.53L171.256 427.53L171.256 427.014L171 427.014ZM171 429.592L170.744 429.592L170.744 430.107L171 430.107L171.256 430.107L171.256 429.592L171 429.592ZM171 432.169L170.744 432.169L170.744 432.685L171 432.685L171.256 432.685L171.256 432.169L171 432.169ZM171 434.747L170.744 434.747L170.744 435.262L171 435.262L171.256 435.262L171.256 434.747L171 434.747ZM171 437.324L170.744 437.324L170.744 437.84L171 437.84L171.256 437.84L171.256 437.324L171 437.324ZM171 439.902L170.744 439.902L170.744 440.417L171 440.417L171.256 440.417L171.256 439.902L171 439.902ZM171 442.479L170.744 442.479L170.744 442.995L171 442.995L171.256 442.995L171.256 442.479L171 442.479ZM171 445.057L170.744 445.057L170.744 445.572L171 445.572L171.256 445.572L171.256 445.057L171 445.057ZM171 447.634L170.744 447.634L170.744 448.15L171 448.15L171.256 448.15L171.256 447.634L171 447.634ZM171 450.212L170.744 450.212L170.744 450.727L171 450.727L171.256 450.727L171.256 450.212L171 450.212ZM171 452.789L170.744 452.789L170.744 453.305L171 453.305L171.256 453.305L171.256 452.789L171 452.789ZM171 455.367L170.744 455.367L170.744 455.882L171 455.882L171.256 455.882L171.256 455.367L171 455.367ZM171 457.944L170.744 457.944L170.744 458.46L171 458.46L171.256 458.46L171.256 457.944L171 457.944ZM171 460.522L170.744 460.522L170.744 460.78L171 460.78L171.256 460.78L171.256 460.522L171 460.522Z" fill="white" fill-opacity="0.48"/>
<path d="M79.3563 333.809V328.69C79.3563 324.166 83.0238 320.498 87.5479 320.498H171" stroke="white" stroke-opacity="0.48" stroke-width="0.511976" stroke-dasharray="0.51 2.05"/>
<path d="M79.3563 372.72V377.84C79.3563 382.364 83.0238 386.031 87.5479 386.031H171" stroke="white" stroke-opacity="0.48" stroke-width="0.511976" stroke-dasharray="0.51 2.05"/>
<path d="M171 320.498H252.404C256.928 320.498 260.596 324.166 260.596 328.69V334.321" stroke="white" stroke-opacity="0.48" stroke-width="0.511976" stroke-dasharray="0.51 2.05"/>
<path d="M171 386.031H252.404C256.928 386.031 260.596 382.364 260.596 377.84V372.208" stroke="white" stroke-opacity="0.48" stroke-width="0.511976" stroke-dasharray="0.51 2.05"/>
<rect x="91.6437" y="16.3848" width="158.713" height="38.9102" rx="8.19162" fill="black"/>
<rect x="91.8997" y="16.6408" width="158.201" height="38.3982" rx="7.93563" stroke="white" stroke-opacity="0.48" stroke-width="0.511976" stroke-dasharray="0.51 2.05"/>
<rect x="99.8354" y="24.5762" width="22.5269" height="22.5269" rx="4.09581" fill="white" fill-opacity="0.08"/>
<path fill-rule="evenodd" clip-rule="evenodd" d="M115.195 39.9358H107.003V31.7441H115.195V39.9358ZM108.368 33.1094V38.5705H113.829V33.1094H108.368Z" fill="white"/>
<path d="M109.392 34.1334H112.806V37.5465L109.392 34.1334Z" fill="white"/>
<path d="M129.178 38.3398V32.6057H130.259V35.0468H130.308L132.307 32.6057H133.552L131.291 35.2434L133.749 38.3398H132.43L130.308 35.5793H130.259V38.3398H129.178ZM135.328 38.4218C134.493 38.4218 133.911 37.9221 133.911 37.1603V37.0865C133.911 36.1691 134.689 35.7103 136.319 35.7103H136.655V35.5219C136.655 35.096 136.385 34.8338 135.861 34.8338H135.82C135.402 34.8338 134.943 34.9731 134.534 35.2598L134.116 34.5389C134.632 34.2031 135.254 33.9901 135.885 33.9901H135.959C136.991 33.9901 137.622 34.5717 137.622 35.5383V37.4633C137.622 37.7582 137.695 38.0613 137.769 38.3398H136.803C136.762 38.217 136.721 38.0204 136.696 37.8483C136.336 38.217 135.852 38.4218 135.328 38.4218ZM135.541 37.6026C135.975 37.6026 136.377 37.406 136.655 37.0783V36.3657H136.409C135.361 36.3657 134.894 36.5786 134.894 37.0292V37.0701C134.894 37.3896 135.156 37.6026 135.541 37.6026ZM140.453 38.4054C139.232 38.4054 138.389 37.5371 138.389 36.3165V36.0871C138.389 34.8748 139.249 34.0147 140.428 34.0147H140.494C141.231 34.0147 141.862 34.3587 142.263 34.9977L141.526 35.4892C141.28 35.0386 140.944 34.8338 140.518 34.8338H140.453C139.83 34.8338 139.445 35.3171 139.445 36.1199V36.3001C139.445 37.0783 139.863 37.578 140.494 37.578H140.568C140.969 37.578 141.297 37.3568 141.542 36.9145L142.28 37.4388C141.87 38.0695 141.272 38.4054 140.527 38.4054H140.453ZM144.092 38.4218C143.256 38.4218 142.675 37.9221 142.675 37.1603V37.0865C142.675 36.1691 143.453 35.7103 145.083 35.7103H145.419V35.5219C145.419 35.096 145.149 34.8338 144.624 34.8338H144.583C144.166 34.8338 143.707 34.9731 143.297 35.2598L142.879 34.5389C143.396 34.2031 144.018 33.9901 144.649 33.9901H144.723C145.755 33.9901 146.385 34.5717 146.385 35.5383V37.4633C146.385 37.7582 146.459 38.0613 146.533 38.3398H145.566C145.525 38.217 145.484 38.0204 145.46 37.8483C145.099 38.217 144.616 38.4218 144.092 38.4218ZM144.305 37.6026C144.739 37.6026 145.14 37.406 145.419 37.0783V36.3657H145.173C144.125 36.3657 143.658 36.5786 143.658 37.0292V37.0701C143.658 37.3896 143.92 37.6026 144.305 37.6026ZM151.991 38.43C150.377 38.43 149.279 37.2586 149.279 35.5465V35.3909C149.279 33.7034 150.401 32.5156 151.974 32.5156H152.032C152.941 32.5156 153.768 32.9743 154.227 33.7443L153.408 34.326C153.121 33.8017 152.662 33.4822 152.056 33.4822H151.982C151.04 33.4822 150.393 34.2358 150.393 35.3909V35.5547C150.393 36.7097 151.04 37.4633 151.999 37.4633H152.081C152.687 37.4633 153.154 37.1275 153.44 36.6196L154.235 37.2094C153.785 37.9794 152.982 38.43 152.056 38.43H151.991ZM154.939 38.3398V32.4419H155.954V34.6045C156.315 34.2277 156.823 33.9983 157.388 33.9983C158.305 33.9983 158.83 34.5881 158.83 35.612V38.3398H157.814V35.825C157.814 35.1861 157.544 34.883 157.003 34.883C156.356 34.883 155.954 35.3008 155.954 35.9807V38.3398H154.939ZM161.635 38.4136C160.382 38.4136 159.546 37.5698 159.546 36.3165V36.1527C159.546 34.883 160.382 34.0065 161.61 34.0065H161.692C162.823 34.0065 163.609 34.8093 163.609 35.9725V36.5213H160.554V36.5295C160.611 37.1603 161.045 37.5616 161.7 37.5616H161.782C162.29 37.5616 162.667 37.3241 162.921 37.0128L163.478 37.6272C163.077 38.1105 162.429 38.4136 161.741 38.4136H161.635ZM160.57 35.8414H162.634V35.8168C162.61 35.1943 162.233 34.8011 161.676 34.8011H161.602C161.045 34.8011 160.668 35.1943 160.57 35.8414ZM166.192 38.4054C164.972 38.4054 164.128 37.5371 164.128 36.3165V36.0871C164.128 34.8748 164.988 34.0147 166.168 34.0147H166.233C166.97 34.0147 167.601 34.3587 168.003 34.9977L167.265 35.4892C167.02 35.0386 166.684 34.8338 166.258 34.8338H166.192C165.57 34.8338 165.185 35.3171 165.185 36.1199V36.3001C165.185 37.0783 165.602 37.578 166.233 37.578H166.307C166.708 37.578 167.036 37.3568 167.282 36.9145L168.019 37.4388C167.609 38.0695 167.011 38.4054 166.266 38.4054H166.192ZM168.652 38.3398V32.4419H169.668V35.8742H169.734L171.298 34.0802H172.437L170.643 36.0544L172.494 38.3398H171.274L169.734 36.3247H169.668V38.3398H168.652ZM175.303 38.4136C174.746 38.4136 174.271 38.2006 173.944 37.8402C173.927 38.0122 173.878 38.217 173.829 38.3398H173.026V32.4419H174.042V34.498C174.361 34.1867 174.796 34.0065 175.303 34.0065H175.377C176.491 34.0065 177.261 34.8584 177.261 36.0871V36.3329C177.261 37.5616 176.491 38.4136 175.377 38.4136H175.303ZM175.09 37.6026H175.156C175.787 37.6026 176.205 37.0865 176.205 36.2919V36.0953C176.205 35.3253 175.787 34.8174 175.156 34.8174H175.09C174.46 34.8174 174.042 35.3253 174.042 36.0953V36.2919C174.042 37.0783 174.452 37.6026 175.09 37.6026ZM179.867 38.4136C178.63 38.4136 177.769 37.5534 177.769 36.3329V36.0871C177.769 34.8666 178.63 34.0065 179.867 34.0065H179.948C181.185 34.0065 182.046 34.8666 182.046 36.0871V36.3329C182.046 37.5534 181.185 38.4136 179.948 38.4136H179.867ZM179.875 37.6026H179.94C180.579 37.6026 180.989 37.0783 180.989 36.2919V36.0953C180.989 35.3253 180.571 34.8174 179.94 34.8174H179.875C179.244 34.8174 178.826 35.3253 178.826 36.0953V36.2919C178.826 37.0783 179.236 37.6026 179.875 37.6026ZM182.139 38.3398L183.556 36.1609V36.1281L182.204 34.0802H183.359L184.219 35.5301H184.252L185.088 34.0802H186.21L184.867 36.1281V36.1609L186.267 38.3398H185.121L184.219 36.7752H184.178L183.269 38.3398H182.139Z" fill="white"/>
<g filter="url(#filter0_d_10755_6735)">
<rect x="164.856" y="10.2402" width="12.2874" height="12.2874" rx="3.07186" fill="#315AFF" shape-rendering="crispEdges"/>
<g clip-path="url(#clip0_10755_6735)">
<path d="M171 14.3926V16.3125" stroke="white" stroke-width="0.819162" stroke-linecap="square" stroke-linejoin="round"/>
<path d="M172.152 14.584C172.73 14.9608 173.112 15.5706 173.112 16.3119C173.112 16.872 172.889 17.4092 172.493 17.8052C172.097 18.2013 171.56 18.4238 171 18.4238C170.44 18.4238 169.903 18.2013 169.507 17.8052C169.111 17.4092 168.888 16.872 168.888 16.3119C168.888 15.5706 169.27 14.9608 169.848 14.584" stroke="white" stroke-width="0.819162" stroke-linejoin="round"/>
</g>
</g>
<rect x="91.6437" y="79.8691" width="158.713" height="38.9102" rx="8.19162" fill="black"/>
<rect x="91.8997" y="80.1251" width="158.201" height="38.3982" rx="7.93563" stroke="white" stroke-opacity="0.48" stroke-width="0.511976" stroke-dasharray="0.51 2.05"/>
<rect x="99.8353" y="88.0605" width="22.5269" height="22.5269" rx="4.09581" fill="white" fill-opacity="0.08"/>
<path d="M109.361 101.824V101.234H110.999V96.3932L109.377 97.5973V96.8765L110.77 95.8443H111.646V101.234H112.998V101.824H109.361Z" fill="white"/>
<path d="M128.481 101.824L130.415 96.0901H131.824L133.757 101.824H132.61L132.184 100.473H130.062L129.628 101.824H128.481ZM130.308 99.5879H131.938L131.152 97.1632H131.086L130.308 99.5879ZM134.221 101.824V97.5646H136.302C137.08 97.5646 137.604 97.9987 137.604 98.6459V98.7851C137.604 99.121 137.424 99.4077 137.137 99.6043C137.555 99.7845 137.809 100.129 137.809 100.538V100.677C137.809 101.365 137.244 101.824 136.392 101.824H134.221ZM135.188 99.3258H135.999C136.392 99.3258 136.621 99.1456 136.621 98.8425V98.7851C136.621 98.4738 136.4 98.2936 136.007 98.2936H135.188V99.3258ZM135.188 101.095H136.138C136.556 101.095 136.818 100.89 136.818 100.579V100.497C136.818 100.178 136.564 99.9811 136.146 99.9811H135.188V101.095ZM139.309 101.824V98.4001H138.113V97.5646H141.52V98.4001H140.325V101.824H139.309ZM143.964 101.898C142.727 101.898 141.867 101.038 141.867 99.8173V99.5715C141.867 98.351 142.727 97.4909 143.964 97.4909H144.045C145.282 97.4909 146.143 98.351 146.143 99.5715V99.8173C146.143 101.038 145.282 101.898 144.045 101.898H143.964ZM143.972 101.087H144.037C144.676 101.087 145.086 100.563 145.086 99.7763V99.5797C145.086 98.8097 144.668 98.3018 144.037 98.3018H143.972C143.341 98.3018 142.923 98.8097 142.923 99.5797V99.7763C142.923 100.563 143.333 101.087 143.972 101.087ZM146.927 103.463V97.5646H147.73C147.771 97.6875 147.82 97.9004 147.836 98.0725C148.172 97.7038 148.647 97.4909 149.204 97.4909H149.27C150.392 97.4909 151.154 98.3428 151.154 99.5715V99.8173C151.154 101.046 150.392 101.898 149.27 101.898H149.204C148.696 101.898 148.262 101.718 147.943 101.406V103.463H146.927ZM148.983 101.087H149.057C149.679 101.087 150.105 100.571 150.105 99.7763V99.5797C150.105 98.8097 149.679 98.3018 149.057 98.3018H148.983C148.352 98.3018 147.935 98.8097 147.935 99.5797V99.7763C147.935 100.571 148.352 101.087 148.983 101.087ZM151.941 101.824V97.5646H152.94V100.276H153.006L154.685 97.5646H155.799V101.824H154.808V98.8834H154.734L152.924 101.824H151.941ZM158.284 101.898C157.506 101.898 156.875 101.57 156.465 100.899L157.219 100.415C157.456 100.849 157.8 101.054 158.259 101.054H158.333C158.759 101.054 159.029 100.849 159.029 100.555V100.497C159.029 100.17 158.792 99.9975 158.374 99.9975H157.817V99.3094H158.325C158.661 99.3094 158.865 99.1292 158.865 98.8425V98.7851C158.865 98.4984 158.636 98.3264 158.276 98.3264H158.21C157.784 98.3264 157.465 98.5558 157.276 98.9244L156.555 98.3592C156.932 97.8349 157.538 97.4909 158.316 97.4909H158.39C159.209 97.4909 159.857 97.9578 159.857 98.6131V98.7032C159.857 99.0473 159.66 99.3504 159.34 99.5715C159.766 99.7763 160.037 100.129 160.037 100.579V100.661C160.037 101.382 159.332 101.898 158.366 101.898H158.284ZM161.931 101.906C161.096 101.906 160.514 101.406 160.514 100.645V100.571C160.514 99.6534 161.292 99.1947 162.922 99.1947H163.258V99.0063C163.258 98.5803 162.988 98.3182 162.464 98.3182H162.423C162.005 98.3182 161.546 98.4575 161.137 98.7442L160.719 98.0233C161.235 97.6875 161.858 97.4745 162.488 97.4745H162.562C163.594 97.4745 164.225 98.0561 164.225 99.0227V100.948C164.225 101.243 164.299 101.546 164.372 101.824H163.406C163.365 101.701 163.324 101.505 163.299 101.333C162.939 101.701 162.456 101.906 161.931 101.906ZM162.144 101.087C162.578 101.087 162.98 100.89 163.258 100.563V99.85H163.013C161.964 99.85 161.497 100.063 161.497 100.514V100.555C161.497 100.874 161.759 101.087 162.144 101.087ZM168.662 102.873V101.824H165.27V97.5646H166.286V101.021H168.015V97.5646H169.03V101.021H169.628V102.873H168.662ZM170.808 96.9912C170.456 96.9912 170.21 96.7618 170.21 96.4423C170.21 96.1147 170.464 95.8853 170.808 95.8853C171.168 95.8853 171.431 96.1147 171.431 96.4423C171.431 96.7618 171.177 96.9912 170.808 96.9912ZM170.3 101.824V97.5646H171.316V101.824H170.3ZM172.026 101.824L172.968 100.21C172.501 99.9975 172.182 99.5797 172.182 99.0473V98.8998C172.182 98.1134 172.788 97.5646 173.648 97.5646H175.647V101.824H174.68V100.374H173.902L173.099 101.824H172.026ZM173.82 99.6289H174.688V98.3428H173.82C173.435 98.3428 173.173 98.5721 173.173 98.9244V99.0145C173.173 99.3667 173.443 99.6289 173.82 99.6289Z" fill="white"/>
<rect x="91.6437" y="143.354" width="158.713" height="38.9102" rx="8.19162" fill="black"/>
<rect x="91.8997" y="143.61" width="158.201" height="38.3982" rx="7.93563" stroke="white" stroke-opacity="0.48" stroke-width="0.511976" stroke-dasharray="0.51 2.05"/>
<rect x="99.8354" y="151.545" width="22.5269" height="22.5269" rx="4.09581" fill="white" fill-opacity="0.08"/>
<path d="M109.361 165.309V164.637L111.204 162.704C111.531 162.36 111.772 162.048 111.925 161.77C112.078 161.491 112.154 161.221 112.154 160.959C112.154 160.609 112.053 160.334 111.851 160.131C111.654 159.924 111.384 159.82 111.04 159.82C110.679 159.82 110.393 159.924 110.18 160.131C109.972 160.339 109.869 160.623 109.869 160.983H109.213C109.224 160.628 109.306 160.32 109.459 160.058C109.612 159.796 109.822 159.596 110.09 159.46C110.363 159.318 110.679 159.247 111.04 159.247C111.4 159.247 111.712 159.315 111.974 159.452C112.241 159.588 112.446 159.785 112.588 160.041C112.73 160.293 112.801 160.596 112.801 160.951C112.801 161.295 112.708 161.639 112.523 161.983C112.337 162.327 112.039 162.712 111.63 163.138L110.073 164.719H112.916V165.309H109.361Z" fill="white"/>
<path d="M129.186 165.309V159.574H131.176C132.315 159.574 133.085 160.123 133.085 160.983V161.082C133.085 161.573 132.872 161.966 132.397 162.253C133.028 162.523 133.372 163.015 133.372 163.646V163.744C133.372 164.702 132.602 165.309 131.414 165.309H129.186ZM130.218 161.983H131.16C131.701 161.983 132.045 161.704 132.045 161.262V161.18C132.045 160.762 131.725 160.5 131.176 160.5H130.218V161.983ZM130.218 164.383H131.357C131.938 164.383 132.307 164.104 132.307 163.638V163.556C132.307 163.08 131.93 162.794 131.349 162.794H130.218V164.383ZM134.803 160.476C134.451 160.476 134.205 160.246 134.205 159.927C134.205 159.599 134.459 159.37 134.803 159.37C135.163 159.37 135.426 159.599 135.426 159.927C135.426 160.246 135.172 160.476 134.803 160.476ZM134.295 165.309V161.049H135.311V165.309H134.295ZM135.964 166.357V164.506H136.357C136.652 164.186 136.766 163.072 136.766 161.049H139.953V164.506H140.551V166.357H139.592V165.309H136.922V166.357H135.964ZM137.34 164.506H138.945V161.844H137.725C137.692 163.367 137.561 164.244 137.34 164.506ZM141.303 165.309V161.049H142.319V162.843H142.384L143.949 161.049H145.087L143.293 163.023L145.145 165.309H143.924L142.384 163.293H142.319V165.309H141.303ZM145.767 166.947V161.049H146.57C146.611 161.172 146.66 161.385 146.676 161.557C147.012 161.188 147.487 160.975 148.044 160.975H148.11C149.232 160.975 149.994 161.827 149.994 163.056V163.302C149.994 164.53 149.232 165.382 148.11 165.382H148.044C147.536 165.382 147.102 165.202 146.783 164.891V166.947H145.767ZM147.823 164.571H147.897C148.519 164.571 148.945 164.055 148.945 163.261V163.064C148.945 162.294 148.519 161.786 147.897 161.786H147.823C147.192 161.786 146.774 162.294 146.774 163.064V163.261C146.774 164.055 147.192 164.571 147.823 164.571ZM150.862 165.309V161.049H151.862V163.76H151.927L153.607 161.049H154.721V165.309H153.729V162.368H153.656L151.845 165.309H150.862ZM156.624 165.309V161.884H155.428V161.049H158.836V161.884H157.64V165.309H156.624ZM160.296 165.309V161.884H159.1V161.049H162.507V161.884H161.311V165.309H160.296ZM162.862 165.309L163.804 163.695C163.337 163.482 163.017 163.064 163.017 162.532V162.384C163.017 161.598 163.623 161.049 164.484 161.049H166.482V165.309H165.516V163.859H164.737L163.935 165.309H162.862ZM164.656 163.113H165.524V161.827H164.656C164.271 161.827 164.008 162.057 164.008 162.409V162.499C164.008 162.851 164.279 163.113 164.656 163.113ZM171.223 165.382C170.444 165.382 169.814 165.055 169.404 164.383L170.158 163.9C170.395 164.334 170.739 164.539 171.198 164.539H171.272C171.698 164.539 171.968 164.334 171.968 164.039V163.982C171.968 163.654 171.731 163.482 171.313 163.482H170.756V162.794H171.264C171.599 162.794 171.804 162.614 171.804 162.327V162.27C171.804 161.983 171.575 161.811 171.214 161.811H171.149C170.723 161.811 170.404 162.04 170.215 162.409L169.494 161.844C169.871 161.319 170.477 160.975 171.255 160.975H171.329C172.148 160.975 172.795 161.442 172.795 162.097V162.188C172.795 162.532 172.599 162.835 172.279 163.056C172.705 163.261 172.976 163.613 172.976 164.063V164.145C172.976 164.866 172.271 165.382 171.305 165.382H171.223ZM173.805 165.309V161.049H174.919L176.05 163.547H176.115L177.246 161.049H178.352V165.309H177.377V162.63H177.311L176.369 164.612H175.788L174.846 162.638H174.78V165.309H173.805ZM180.009 160.476C179.657 160.476 179.411 160.246 179.411 159.927C179.411 159.599 179.665 159.37 180.009 159.37C180.369 159.37 180.632 159.599 180.632 159.927C180.632 160.246 180.378 160.476 180.009 160.476ZM179.501 165.309V161.049H180.517V165.309H179.501ZM181.661 165.309V161.049H182.677V162.671H184.446V161.049H185.462V165.309H184.446V163.49H182.677V165.309H181.661ZM186.605 165.309V161.049H187.604V163.76H187.67L189.349 161.049H190.463V165.309H189.472V162.368H189.398L187.588 165.309H186.605Z" fill="white"/>
<g filter="url(#filter1_d_10755_6735)">
<rect x="164.856" y="137.211" width="12.2874" height="12.2874" rx="3.07186" fill="white" shape-rendering="crispEdges"/>
<g clip-path="url(#clip1_10755_6735)">
<path d="M171.764 144.12L171.18 145.727C171.166 145.764 171.141 145.795 171.109 145.818C171.077 145.84 171.039 145.852 171 145.852C170.96 145.852 170.922 145.84 170.89 145.818C170.858 145.795 170.833 145.764 170.82 145.727L170.236 144.12L168.63 143.536C168.593 143.523 168.561 143.498 168.539 143.466C168.517 143.434 168.505 143.395 168.505 143.356C168.505 143.317 168.517 143.279 168.539 143.247C168.561 143.214 168.593 143.19 168.63 143.176L170.236 142.593L170.82 140.987C170.834 140.95 170.859 140.918 170.891 140.896C170.923 140.873 170.961 140.861 171 140.861C171.04 140.861 171.078 140.873 171.11 140.896C171.142 140.918 171.167 140.95 171.18 140.987L171.765 142.593L173.371 143.177C173.408 143.191 173.44 143.215 173.462 143.247C173.484 143.28 173.496 143.318 173.496 143.357C173.496 143.396 173.484 143.435 173.462 143.467C173.44 143.499 173.408 143.523 173.371 143.537L171.764 144.12Z" stroke="black" stroke-width="0.819162" stroke-linecap="round" stroke-linejoin="round"/>
</g>
</g>
<rect x="91.6437" y="270.324" width="158.713" height="38.9102" rx="8.19162" fill="black"/>
<rect x="91.8997" y="270.58" width="158.201" height="38.3982" rx="7.93563" stroke="white" stroke-opacity="0.48" stroke-width="0.511976" stroke-dasharray="0.51 2.05"/>
<rect x="99.8353" y="278.516" width="22.5269" height="22.5269" rx="4.09581" fill="white" fill-opacity="0.08"/>
<path d="M112.015 292.279V290.944H109.295V289.879L111.671 286.299H112.375L109.95 290.027V290.354H112.015V288.839H112.662V292.279H112.015Z" fill="white"/>
<path d="M132.078 292.279V290.018C131.594 290.166 131.193 290.24 130.808 290.24C129.612 290.24 129.03 289.65 129.03 288.437V286.545H130.112V288.257C130.112 289.027 130.365 289.306 131.062 289.306C131.381 289.306 131.684 289.24 132.078 289.101V286.545H133.142V292.279H132.078ZM136.209 292.353C134.956 292.353 134.121 291.509 134.121 290.256V290.092C134.121 288.822 134.956 287.946 136.185 287.946H136.267C137.397 287.946 138.184 288.749 138.184 289.912V290.461H135.128V290.469C135.186 291.1 135.62 291.501 136.275 291.501H136.357C136.865 291.501 137.242 291.264 137.496 290.952L138.053 291.567C137.651 292.05 137.004 292.353 136.316 292.353H136.209ZM135.145 289.781H137.209V289.756C137.184 289.134 136.807 288.741 136.25 288.741H136.177C135.62 288.741 135.243 289.134 135.145 289.781ZM139.031 292.279V288.02H140.047V289.814H140.112L141.677 288.02H142.815L141.021 289.994L142.873 292.279H141.652L140.112 290.264H140.047V292.279H139.031ZM145.663 292.279V288.02H148.3V288.855H146.678V292.279H145.663ZM150.681 292.353C149.444 292.353 148.584 291.493 148.584 290.272V290.027C148.584 288.806 149.444 287.946 150.681 287.946H150.763C152 287.946 152.86 288.806 152.86 290.027V290.272C152.86 291.493 152 292.353 150.763 292.353H150.681ZM150.689 291.542H150.755C151.394 291.542 151.803 291.018 151.803 290.231V290.035C151.803 289.265 151.385 288.757 150.755 288.757H150.689C150.058 288.757 149.641 289.265 149.641 290.035V290.231C149.641 291.018 150.05 291.542 150.689 291.542ZM154.472 292.279V288.855H153.276V288.02H156.684V288.855H155.488V292.279H154.472ZM159.209 292.353C157.972 292.353 157.112 291.493 157.112 290.272V290.027C157.112 288.806 157.972 287.946 159.209 287.946H159.291C160.527 287.946 161.388 288.806 161.388 290.027V290.272C161.388 291.493 160.527 292.353 159.291 292.353H159.209ZM159.217 291.542H159.282C159.921 291.542 160.331 291.018 160.331 290.231V290.035C160.331 289.265 159.913 288.757 159.282 288.757H159.217C158.586 288.757 158.168 289.265 158.168 290.035V290.231C158.168 291.018 158.578 291.542 159.217 291.542ZM162.246 292.279V288.02H164.327C165.105 288.02 165.629 288.454 165.629 289.101V289.24C165.629 289.576 165.449 289.863 165.162 290.059C165.58 290.24 165.834 290.584 165.834 290.993V291.132C165.834 291.821 165.269 292.279 164.417 292.279H162.246ZM163.212 289.781H164.023C164.417 289.781 164.646 289.601 164.646 289.298V289.24C164.646 288.929 164.425 288.749 164.032 288.749H163.212V289.781ZM163.212 291.55H164.163C164.58 291.55 164.843 291.345 164.843 291.034V290.952C164.843 290.633 164.589 290.436 164.171 290.436H163.212V291.55ZM166.662 292.279V288.02H167.661V290.731H167.727L169.406 288.02H170.52V292.279H169.529V289.339H169.455L167.645 292.279H166.662ZM172.235 286.373H173.087C173.087 286.676 173.275 286.873 173.594 286.873C173.906 286.873 174.094 286.676 174.094 286.373H174.946C174.946 287.086 174.414 287.553 173.594 287.553C172.767 287.553 172.235 287.086 172.235 286.373ZM171.669 292.279V288.02H172.669V290.731H172.734L174.414 288.02H175.528V292.279H174.536V289.339H174.463L172.652 292.279H171.669Z" fill="white"/>
<g filter="url(#filter2_d_10755_6735)">
<rect x="164.856" y="264.18" width="12.2874" height="12.2874" rx="3.07186" fill="#05BC17" shape-rendering="crispEdges"/>
<g clip-path="url(#clip2_10755_6735)">
<path d="M168.888 270.708L170.232 272.052L173.304 268.98" stroke="white" stroke-width="0.819162"/>
</g>
</g>
<rect x="183.287" y="333.809" width="158.713" height="38.9102" rx="8.19162" fill="black"/>
<rect x="183.543" y="334.065" width="158.201" height="38.3982" rx="7.93563" stroke="white" stroke-opacity="0.48" stroke-width="0.511976" stroke-dasharray="0.51 2.05"/>
<rect x="191.479" y="342" width="22.5269" height="22.5269" rx="4.09581" fill="white" fill-opacity="0.08"/>
<g clip-path="url(#clip3_10755_6735)">
<path d="M200.023 349.904H206.422" stroke="white" stroke-width="1.02395" stroke-linecap="square" stroke-linejoin="round"/>
<path d="M199.383 351.664H204.182" stroke="white" stroke-width="1.02395" stroke-linecap="square" stroke-linejoin="round"/>
<path d="M200.663 353.424H204.182" stroke="white" stroke-width="1.02395" stroke-linecap="square" stroke-linejoin="round"/>
<path d="M202.902 355.184H204.502" stroke="white" stroke-width="1.02395" stroke-linecap="square" stroke-linejoin="round"/>
<path d="M202.583 356.943H203.222" stroke="white" stroke-width="1.02395" stroke-linecap="square" stroke-linejoin="round"/>
</g>
<path d="M223.189 350.83C221.575 350.83 220.477 349.659 220.477 347.947V347.791C220.477 346.104 221.6 344.916 223.172 344.916H223.23C224.139 344.916 224.966 345.375 225.425 346.145L224.606 346.726C224.319 346.202 223.86 345.883 223.254 345.883H223.181C222.239 345.883 221.591 346.636 221.591 347.791V347.955C221.591 349.11 222.239 349.864 223.197 349.864H223.279C223.885 349.864 224.352 349.528 224.639 349.02L225.433 349.61C224.983 350.38 224.18 350.83 223.254 350.83H223.189ZM227.917 350.814C226.664 350.814 225.828 349.97 225.828 348.717V348.553C225.828 347.283 226.664 346.407 227.893 346.407H227.975C229.105 346.407 229.891 347.21 229.891 348.373V348.922H226.836V348.93C226.893 349.561 227.327 349.962 227.983 349.962H228.065C228.572 349.962 228.949 349.724 229.203 349.413L229.76 350.028C229.359 350.511 228.712 350.814 228.024 350.814H227.917ZM226.852 348.242H228.917V348.217C228.892 347.595 228.515 347.201 227.958 347.201H227.884C227.327 347.201 226.951 347.595 226.852 348.242ZM230.747 352.379V346.481H231.55C231.591 346.603 231.64 346.816 231.656 346.988C231.992 346.62 232.467 346.407 233.024 346.407H233.09C234.212 346.407 234.974 347.259 234.974 348.488V348.733C234.974 349.962 234.212 350.814 233.09 350.814H233.024C232.516 350.814 232.082 350.634 231.763 350.322V352.379H230.747ZM232.803 350.003H232.877C233.499 350.003 233.925 349.487 233.925 348.692V348.496C233.925 347.726 233.499 347.218 232.877 347.218H232.803C232.172 347.218 231.754 347.726 231.754 348.496V348.692C231.754 349.487 232.172 350.003 232.803 350.003ZM235.842 350.74V346.481H237.923C238.701 346.481 239.226 346.915 239.226 347.562V347.701C239.226 348.037 239.045 348.324 238.759 348.52C239.176 348.701 239.43 349.045 239.43 349.454V349.593C239.43 350.282 238.865 350.74 238.013 350.74H235.842ZM236.809 348.242H237.62C238.013 348.242 238.243 348.062 238.243 347.758V347.701C238.243 347.39 238.021 347.21 237.628 347.21H236.809V348.242ZM236.809 350.011H237.759C238.177 350.011 238.439 349.806 238.439 349.495V349.413C238.439 349.094 238.185 348.897 237.767 348.897H236.809V350.011ZM240.766 345.907C240.414 345.907 240.168 345.678 240.168 345.358C240.168 345.031 240.422 344.801 240.766 344.801C241.126 344.801 241.389 345.031 241.389 345.358C241.389 345.678 241.135 345.907 240.766 345.907ZM240.258 350.74V346.481H241.274V350.74H240.258ZM244.204 350.806C242.983 350.806 242.14 349.937 242.14 348.717V348.488C242.14 347.275 243 346.415 244.179 346.415H244.245C244.982 346.415 245.613 346.759 246.014 347.398L245.277 347.89C245.031 347.439 244.695 347.234 244.269 347.234H244.204C243.581 347.234 243.196 347.718 243.196 348.52V348.701C243.196 349.479 243.614 349.978 244.245 349.978H244.319C244.72 349.978 245.048 349.757 245.293 349.315L246.031 349.839C245.621 350.47 245.023 350.806 244.278 350.806H244.204ZM246.778 350.74V346.481H247.794V348.103H249.563V346.481H250.579V350.74H249.563V348.922H247.794V350.74H246.778ZM252.23 345.907C251.877 345.907 251.632 345.678 251.632 345.358C251.632 345.031 251.885 344.801 252.23 344.801C252.59 344.801 252.852 345.031 252.852 345.358C252.852 345.678 252.598 345.907 252.23 345.907ZM251.722 350.74V346.481H252.737V350.74H251.722ZM258.384 350.74V349.151C258.032 349.274 257.663 349.348 257.327 349.348C256.385 349.348 255.902 348.848 255.902 347.98V346.481H256.901V347.849C256.901 348.307 257.09 348.52 257.524 348.52C257.827 348.52 258.122 348.463 258.384 348.356V346.481H259.4V350.74H258.384ZM262.356 350.814C261.102 350.814 260.267 349.97 260.267 348.717V348.553C260.267 347.283 261.102 346.407 262.331 346.407H262.413C263.543 346.407 264.33 347.21 264.33 348.373V348.922H261.274V348.93C261.332 349.561 261.766 349.962 262.421 349.962H262.503C263.011 349.962 263.388 349.724 263.642 349.413L264.199 350.028C263.797 350.511 263.15 350.814 262.462 350.814H262.356ZM261.291 348.242H263.355V348.217C263.33 347.595 262.954 347.201 262.397 347.201H262.323C261.766 347.201 261.389 347.595 261.291 348.242ZM265.177 350.74V346.481H266.193V348.275H266.258L267.823 346.481H268.962L267.168 348.455L269.019 350.74H267.798L266.258 348.725H266.193V350.74H265.177ZM269.633 350.74V346.481H270.632V349.192H270.698L272.377 346.481H273.491V350.74H272.5V347.799H272.426L270.616 350.74H269.633Z" fill="white"/>
<path d="M220.672 361.789V357.304H221.993C222.419 357.304 222.753 357.407 222.994 357.611C223.236 357.816 223.357 358.099 223.357 358.459C223.357 358.664 223.312 358.842 223.222 358.994C223.136 359.141 223.015 359.256 222.859 359.338C222.703 359.42 222.521 359.461 222.312 359.461V359.399C222.538 359.395 222.736 359.438 222.908 359.528C223.08 359.614 223.215 359.743 223.314 359.915C223.412 360.087 223.461 360.292 223.461 360.53C223.461 360.784 223.404 361.007 223.289 361.199C223.179 361.388 223.019 361.533 222.81 361.635C222.605 361.738 222.361 361.789 222.079 361.789H220.672ZM221.317 361.218H222.023C222.261 361.218 222.449 361.154 222.589 361.027C222.728 360.9 222.798 360.724 222.798 360.499C222.798 360.27 222.728 360.085 222.589 359.946C222.449 359.807 222.261 359.737 222.023 359.737H221.317V361.218ZM221.317 359.184H221.987C222.208 359.184 222.382 359.125 222.509 359.006C222.636 358.887 222.699 358.727 222.699 358.527C222.699 358.326 222.636 358.168 222.509 358.054C222.382 357.935 222.21 357.876 221.993 357.876H221.317V359.184ZM224.055 361.789V358.41H224.718V359.768H226.021V358.41H226.684V361.789H226.021V360.376H224.718V361.789H224.055ZM228.746 361.85C228.472 361.85 228.23 361.797 228.021 361.691C227.816 361.58 227.659 361.427 227.548 361.23C227.437 361.033 227.382 360.804 227.382 360.542V359.657C227.382 359.391 227.437 359.162 227.548 358.969C227.659 358.772 227.816 358.621 228.021 358.514C228.23 358.404 228.472 358.349 228.746 358.349C229.025 358.349 229.266 358.404 229.471 358.514C229.676 358.621 229.833 358.772 229.944 358.969C230.055 359.162 230.11 359.391 230.11 359.657V360.259H228.021V360.542C228.021 360.792 228.083 360.982 228.205 361.113C228.332 361.244 228.515 361.31 228.752 361.31C228.945 361.31 229.1 361.277 229.219 361.212C229.338 361.142 229.412 361.042 229.44 360.911H230.098C230.049 361.197 229.901 361.427 229.655 361.599C229.41 361.767 229.106 361.85 228.746 361.85ZM229.471 359.86V359.651C229.471 359.405 229.41 359.215 229.287 359.08C229.164 358.945 228.984 358.877 228.746 358.877C228.513 358.877 228.332 358.945 228.205 359.08C228.083 359.215 228.021 359.407 228.021 359.657V359.811L229.52 359.805L229.471 359.86ZM232.141 361.85C231.863 361.85 231.617 361.799 231.404 361.697C231.195 361.59 231.033 361.439 230.919 361.242C230.808 361.042 230.753 360.808 230.753 360.542V359.657C230.753 359.387 230.808 359.153 230.919 358.957C231.033 358.76 231.195 358.611 231.404 358.508C231.617 358.402 231.863 358.349 232.141 358.349C232.547 358.349 232.872 358.455 233.118 358.668C233.364 358.881 233.493 359.172 233.505 359.54H232.842C232.829 359.348 232.762 359.198 232.639 359.092C232.516 358.985 232.35 358.932 232.141 358.932C231.916 358.932 231.738 358.996 231.607 359.123C231.476 359.246 231.41 359.422 231.41 359.651V360.542C231.41 360.771 231.476 360.949 231.607 361.076C231.738 361.203 231.916 361.267 232.141 361.267C232.35 361.267 232.516 361.214 232.639 361.107C232.762 361.001 232.829 360.851 232.842 360.659H233.505C233.493 361.027 233.364 361.318 233.118 361.531C232.872 361.744 232.547 361.85 232.141 361.85ZM235.499 361.85C235.225 361.85 234.983 361.797 234.774 361.691C234.57 361.58 234.412 361.427 234.301 361.23C234.191 361.033 234.135 360.804 234.135 360.542V359.657C234.135 359.391 234.191 359.162 234.301 358.969C234.412 358.772 234.57 358.621 234.774 358.514C234.983 358.404 235.225 358.349 235.499 358.349C235.778 358.349 236.02 358.404 236.224 358.514C236.429 358.621 236.587 358.772 236.697 358.969C236.808 359.162 236.863 359.391 236.863 359.657V360.259H234.774V360.542C234.774 360.792 234.836 360.982 234.959 361.113C235.086 361.244 235.268 361.31 235.505 361.31C235.698 361.31 235.854 361.277 235.972 361.212C236.091 361.142 236.165 361.042 236.194 360.911H236.851C236.802 361.197 236.654 361.427 236.409 361.599C236.163 361.767 235.86 361.85 235.499 361.85ZM236.224 359.86V359.651C236.224 359.405 236.163 359.215 236.04 359.08C235.917 358.945 235.737 358.877 235.499 358.877C235.266 358.877 235.086 358.945 234.959 359.08C234.836 359.215 234.774 359.407 234.774 359.657V359.811L236.273 359.805L236.224 359.86ZM237.561 361.789V358.41H238.225V359.768H239.527V358.41H240.191V361.789H239.527V360.376H238.225V361.789H237.561ZM240.938 361.789V358.41H241.601V359.768H242.904V358.41H243.567V361.789H242.904V360.376H241.601V361.789H240.938ZM244.136 361.789L244.966 360.523C244.72 360.454 244.527 360.331 244.388 360.155C244.253 359.979 244.185 359.764 244.185 359.51C244.185 359.166 244.3 358.897 244.53 358.705C244.759 358.508 245.072 358.41 245.47 358.41H246.944V361.789H246.287V360.585H245.642L244.898 361.789H244.136ZM245.488 360.032H246.287V358.975H245.488C245.291 358.975 245.136 359.022 245.021 359.117C244.91 359.207 244.855 359.336 244.855 359.504C244.855 359.672 244.91 359.803 245.021 359.897C245.136 359.987 245.291 360.032 245.488 360.032ZM252.383 360.308C252.161 360.308 251.979 360.237 251.836 360.093C251.692 359.95 251.621 359.768 251.621 359.547C251.621 359.321 251.692 359.139 251.836 359C251.979 358.856 252.161 358.785 252.383 358.785C252.608 358.785 252.79 358.856 252.929 359C253.073 359.139 253.144 359.321 253.144 359.547C253.144 359.768 253.073 359.95 252.929 360.093C252.79 360.237 252.608 360.308 252.383 360.308ZM257.815 361.789V358.41H259.302C259.67 358.41 259.959 358.49 260.168 358.65C260.377 358.809 260.481 359.031 260.481 359.313C260.481 359.547 260.397 359.733 260.229 359.872C260.061 360.011 259.84 360.081 259.566 360.081V360.026C259.865 360.026 260.104 360.1 260.285 360.247C260.469 360.39 260.561 360.583 260.561 360.824C260.561 361.128 260.453 361.365 260.236 361.537C260.018 361.705 259.719 361.789 259.339 361.789H257.815ZM258.466 361.255H259.326C259.507 361.255 259.648 361.214 259.75 361.132C259.857 361.05 259.91 360.937 259.91 360.794C259.91 360.646 259.857 360.532 259.75 360.45C259.648 360.364 259.507 360.321 259.326 360.321H258.466V361.255ZM258.466 359.829H259.302C259.466 359.829 259.595 359.79 259.689 359.712C259.783 359.635 259.83 359.526 259.83 359.387C259.83 359.252 259.783 359.145 259.689 359.067C259.595 358.985 259.466 358.945 259.302 358.945H258.466V359.829ZM261.198 361.789V358.41H261.806V360.161C261.806 360.276 261.802 360.403 261.794 360.542C261.785 360.677 261.775 360.81 261.763 360.941C261.751 361.068 261.738 361.179 261.726 361.273L262.998 358.41H263.827V361.789H263.219V360.038C263.219 359.923 263.223 359.801 263.231 359.669C263.239 359.534 263.25 359.403 263.262 359.276C263.274 359.149 263.287 359.045 263.299 358.963L262.027 361.789H261.198ZM264.193 361.832V361.224H264.322C264.486 361.224 264.605 361.158 264.679 361.027C264.757 360.896 264.798 360.675 264.802 360.364L264.839 358.41H267.204V361.789H266.54V359.018H265.49L265.459 360.401C265.451 360.724 265.406 360.992 265.324 361.205C265.246 361.418 265.127 361.576 264.968 361.678C264.808 361.781 264.607 361.832 264.365 361.832H264.193ZM268.479 362.895L268.965 361.592L267.705 358.41H268.436L269.143 360.315C269.172 360.396 269.2 360.495 269.229 360.609C269.258 360.724 269.282 360.818 269.303 360.892C269.319 360.818 269.342 360.724 269.37 360.609C269.399 360.495 269.428 360.396 269.456 360.315L270.12 358.41H270.826L269.18 362.895H268.479ZM273.263 361.789V360.603C273.201 360.62 273.107 360.636 272.98 360.652C272.857 360.665 272.726 360.671 272.587 360.671C272.161 360.675 271.827 360.571 271.586 360.358C271.348 360.145 271.229 359.85 271.229 359.473V358.41H271.893V359.454C271.893 359.647 271.958 359.798 272.089 359.909C272.221 360.02 272.403 360.075 272.636 360.075C272.788 360.075 272.919 360.069 273.029 360.057C273.144 360.04 273.222 360.026 273.263 360.014V358.41H273.926V361.789H273.263ZM276.019 361.85C275.745 361.85 275.503 361.797 275.294 361.691C275.089 361.58 274.932 361.427 274.821 361.23C274.71 361.033 274.655 360.804 274.655 360.542V359.657C274.655 359.391 274.71 359.162 274.821 358.969C274.932 358.772 275.089 358.621 275.294 358.514C275.503 358.404 275.745 358.349 276.019 358.349C276.298 358.349 276.539 358.404 276.744 358.514C276.949 358.621 277.106 358.772 277.217 358.969C277.328 359.162 277.383 359.391 277.383 359.657V360.259H275.294V360.542C275.294 360.792 275.356 360.982 275.478 361.113C275.605 361.244 275.788 361.31 276.025 361.31C276.218 361.31 276.373 361.277 276.492 361.212C276.611 361.142 276.685 361.042 276.713 360.911H277.371C277.322 361.197 277.174 361.427 276.928 361.599C276.683 361.767 276.379 361.85 276.019 361.85ZM276.744 359.86V359.651C276.744 359.405 276.683 359.215 276.56 359.08C276.437 358.945 276.257 358.877 276.019 358.877C275.786 358.877 275.605 358.945 275.478 359.08C275.356 359.215 275.294 359.407 275.294 359.657V359.811L276.793 359.805L276.744 359.86ZM278.081 361.789V358.41H278.744V359.768H280.047V358.41H280.71V361.789H280.047V360.376H278.744V361.789H278.081ZM281.458 361.789V358.41H282.121V359.768H283.424V358.41H284.087V361.789H283.424V360.376H282.121V361.789H281.458ZM284.656 361.789L285.485 360.523C285.24 360.454 285.047 360.331 284.908 360.155C284.773 359.979 284.705 359.764 284.705 359.51C284.705 359.166 284.82 358.897 285.049 358.705C285.279 358.508 285.592 358.41 285.989 358.41H287.464V361.789H286.806V360.585H286.161L285.418 361.789H284.656ZM286.008 360.032H286.806V358.975H286.008C285.811 358.975 285.655 359.022 285.541 359.117C285.43 359.207 285.375 359.336 285.375 359.504C285.375 359.672 285.43 359.803 285.541 359.897C285.655 359.987 285.811 360.032 286.008 360.032ZM291.833 361.789V358.41H294.303V359.018H292.491V361.789H291.833ZM296.279 361.844C296 361.844 295.759 361.791 295.554 361.685C295.349 361.578 295.191 361.427 295.081 361.23C294.97 361.033 294.915 360.802 294.915 360.536V359.663C294.915 359.393 294.97 359.162 295.081 358.969C295.191 358.772 295.349 358.621 295.554 358.514C295.759 358.408 296 358.355 296.279 358.355C296.557 358.355 296.799 358.408 297.004 358.514C297.209 358.621 297.366 358.772 297.477 358.969C297.588 359.162 297.643 359.393 297.643 359.663V360.536C297.643 360.802 297.588 361.033 297.477 361.23C297.366 361.427 297.209 361.578 297.004 361.685C296.799 361.791 296.557 361.844 296.279 361.844ZM296.279 361.261C296.504 361.261 296.678 361.199 296.801 361.076C296.924 360.949 296.985 360.769 296.985 360.536V359.663C296.985 359.426 296.924 359.246 296.801 359.123C296.678 359 296.504 358.938 296.279 358.938C296.058 358.938 295.884 359 295.757 359.123C295.634 359.246 295.572 359.426 295.572 359.663V360.536C295.572 360.769 295.634 360.949 295.757 361.076C295.884 361.199 296.058 361.261 296.279 361.261ZM299.324 361.789V359.006H298.132V358.41H301.179V359.006H299.987V361.789H299.324ZM301.687 361.789V361.187H302.872V359.012H301.84V358.41H303.518V361.187H304.605V361.789H301.687ZM303.13 357.826C302.987 357.826 302.872 357.79 302.786 357.716C302.7 357.638 302.657 357.536 302.657 357.409C302.657 357.278 302.7 357.175 302.786 357.101C302.872 357.024 302.987 356.985 303.13 356.985C303.274 356.985 303.389 357.024 303.475 357.101C303.561 357.175 303.604 357.278 303.604 357.409C303.604 357.536 303.561 357.638 303.475 357.716C303.389 357.79 303.274 357.826 303.13 357.826ZM305.088 361.789V358.41H306.575C306.943 358.41 307.232 358.49 307.441 358.65C307.65 358.809 307.754 359.031 307.754 359.313C307.754 359.547 307.67 359.733 307.502 359.872C307.334 360.011 307.113 360.081 306.839 360.081V360.026C307.138 360.026 307.377 360.1 307.558 360.247C307.742 360.39 307.834 360.583 307.834 360.824C307.834 361.128 307.726 361.365 307.509 361.537C307.291 361.705 306.992 361.789 306.612 361.789H305.088ZM305.739 361.255H306.599C306.779 361.255 306.921 361.214 307.023 361.132C307.13 361.05 307.183 360.937 307.183 360.794C307.183 360.646 307.13 360.532 307.023 360.45C306.921 360.364 306.779 360.321 306.599 360.321H305.739V361.255ZM305.739 359.829H306.575C306.739 359.829 306.868 359.79 306.962 359.712C307.056 359.635 307.103 359.526 307.103 359.387C307.103 359.252 307.056 359.145 306.962 359.067C306.868 358.985 306.739 358.945 306.575 358.945H305.739V359.829ZM308.489 361.789V358.41H309.153V359.768H309.693L310.59 358.41H311.34L310.265 360.032L311.358 361.789H310.596L309.693 360.339H309.153V361.789H308.489ZM311.847 361.789V358.41H312.456V360.161C312.456 360.276 312.451 360.403 312.443 360.542C312.435 360.677 312.425 360.81 312.413 360.941C312.4 361.068 312.388 361.179 312.376 361.273L313.647 358.41H314.477V361.789H313.869V360.038C313.869 359.923 313.873 359.801 313.881 359.669C313.889 359.534 313.899 359.403 313.912 359.276C313.924 359.149 313.936 359.045 313.949 358.963L312.677 361.789H311.847Z" fill="white" fill-opacity="0.55"/>
<rect x="91.6437" y="397.295" width="158.713" height="38.9102" rx="8.19162" fill="black"/>
<rect x="91.8997" y="397.551" width="158.201" height="38.3982" rx="7.93563" stroke="white" stroke-opacity="0.48" stroke-width="0.511976" stroke-dasharray="0.51 2.05"/>
<rect x="99.8354" y="405.486" width="22.5269" height="22.5269" rx="4.09581" fill="white" fill-opacity="0.08"/>
<g clip-path="url(#clip4_10755_6735)">
<path d="M113.979 413.871L108.219 419.631" stroke="white" stroke-width="1.02395" stroke-linejoin="round"/>
<path d="M113.979 419.631L108.219 413.871" stroke="white" stroke-width="1.02395" stroke-linejoin="round"/>
</g>
<path d="M131.045 419.34C130.038 419.34 129.243 418.873 128.719 418.054L129.612 417.522C129.948 418.12 130.398 418.398 130.996 418.398C131.643 418.398 132.045 418.079 132.045 417.563V417.538C132.045 417.022 131.684 416.735 131.078 416.735H130.374V415.908H130.898C131.447 415.908 131.774 415.613 131.774 415.13V415.105C131.774 414.671 131.43 414.376 130.906 414.376C130.415 414.376 130.005 414.655 129.751 415.146L128.85 414.622C129.333 413.86 130.095 413.418 130.996 413.418C132.053 413.418 132.839 414.04 132.839 414.892V414.958C132.839 415.474 132.577 415.908 132.151 416.195C132.741 416.448 133.142 416.989 133.142 417.653V417.71C133.142 418.652 132.25 419.34 131.045 419.34ZM135.218 419.332C134.382 419.332 133.801 418.832 133.801 418.07V417.997C133.801 417.079 134.579 416.62 136.209 416.62H136.545V416.432C136.545 416.006 136.275 415.744 135.75 415.744H135.71C135.292 415.744 134.833 415.883 134.423 416.17L134.006 415.449C134.522 415.113 135.144 414.9 135.775 414.9H135.849C136.881 414.9 137.512 415.482 137.512 416.448V418.373C137.512 418.668 137.585 418.971 137.659 419.25H136.693C136.652 419.127 136.611 418.931 136.586 418.759C136.226 419.127 135.742 419.332 135.218 419.332ZM135.431 418.513C135.865 418.513 136.267 418.316 136.545 417.988V417.276H136.299C135.251 417.276 134.784 417.489 134.784 417.939V417.98C134.784 418.3 135.046 418.513 135.431 418.513ZM138.639 419.25V414.99H139.655V416.784H139.72L141.285 414.99H142.424L140.63 416.965L142.481 419.25H141.26L139.72 417.235H139.655V419.25H138.639ZM143.103 420.888V414.99H143.906C143.947 415.113 143.996 415.326 144.012 415.498C144.348 415.13 144.823 414.917 145.38 414.917H145.446C146.568 414.917 147.33 415.769 147.33 416.997V417.243C147.33 418.472 146.568 419.324 145.446 419.324H145.38C144.872 419.324 144.438 419.144 144.119 418.832V420.888H143.103ZM145.159 418.513H145.233C145.855 418.513 146.281 417.997 146.281 417.202V417.005C146.281 416.235 145.855 415.728 145.233 415.728H145.159C144.528 415.728 144.111 416.235 144.111 417.005V417.202C144.111 417.997 144.528 418.513 145.159 418.513ZM148.199 419.25V414.99H149.198V417.702H149.263L150.943 414.99H152.057V419.25H151.066V416.309H150.992L149.182 419.25H148.199ZM153.96 419.25V415.826H152.764V414.99H156.172V415.826H154.976V419.25H153.96ZM157.632 419.25V415.826H156.436V414.99H159.843V415.826H158.648V419.25H157.632ZM160.198 419.25L161.14 417.636C160.673 417.423 160.353 417.005 160.353 416.473V416.326C160.353 415.539 160.96 414.99 161.82 414.99H163.818V419.25H162.852V417.8H162.074L161.271 419.25H160.198ZM161.992 417.055H162.86V415.769H161.992C161.607 415.769 161.345 415.998 161.345 416.35V416.44C161.345 416.793 161.615 417.055 161.992 417.055ZM168.559 419.324C167.781 419.324 167.15 418.996 166.74 418.324L167.494 417.841C167.731 418.275 168.075 418.48 168.534 418.48H168.608C169.034 418.48 169.304 418.275 169.304 417.98V417.923C169.304 417.595 169.067 417.423 168.649 417.423H168.092V416.735H168.6C168.936 416.735 169.14 416.555 169.14 416.268V416.211C169.14 415.924 168.911 415.752 168.551 415.752H168.485C168.059 415.752 167.74 415.982 167.551 416.35L166.83 415.785C167.207 415.261 167.813 414.917 168.592 414.917H168.665C169.484 414.917 170.132 415.384 170.132 416.039V416.129C170.132 416.473 169.935 416.776 169.616 416.997C170.041 417.202 170.312 417.554 170.312 418.005V418.087C170.312 418.808 169.607 419.324 168.641 419.324H168.559ZM171.141 419.25V414.99H172.256L173.386 417.489H173.451L174.582 414.99H175.688V419.25H174.713V416.571H174.647L173.705 418.554H173.124L172.182 416.58H172.116V419.25H171.141ZM177.345 414.417C176.993 414.417 176.747 414.188 176.747 413.868C176.747 413.54 177.001 413.311 177.345 413.311C177.706 413.311 177.968 413.54 177.968 413.868C177.968 414.188 177.714 414.417 177.345 414.417ZM176.837 419.25V414.99H177.853V419.25H176.837ZM178.997 419.25V414.99H180.013V416.612H181.782V414.99H182.798V419.25H181.782V417.431H180.013V419.25H178.997ZM183.941 419.25V414.99H184.94V417.702H185.006L186.685 414.99H187.799V419.25H186.808V416.309H186.734L184.924 419.25H183.941Z" fill="white"/>
<rect y="333.809" width="158.713" height="38.9102" rx="8.19162" fill="black"/>
<rect x="0.255988" y="334.065" width="158.201" height="38.3982" rx="7.93563" stroke="white" stroke-opacity="0.48" stroke-width="0.511976" stroke-dasharray="0.51 2.05"/>
<rect x="8.19162" y="342" width="22.5269" height="22.5269" rx="4.09581" fill="white" fill-opacity="0.08"/>
<g clip-path="url(#clip5_10755_6735)">
<path d="M22.9749 356.783H15.9352" stroke="white" stroke-width="1.02395" stroke-linecap="square" stroke-linejoin="round"/>
<path d="M22.527 351.024H20.4791V355.184H22.527V351.024Z" stroke="white" stroke-width="1.02395" stroke-linecap="round"/>
<path d="M18.4311 349.424H16.3832V355.184H18.4311V349.424Z" stroke="white" stroke-width="1.02395" stroke-linecap="round"/>
</g>
<path d="M39.4017 350.83C38.3941 350.83 37.5995 350.363 37.0753 349.544L37.9681 349.012C38.304 349.61 38.7545 349.888 39.3525 349.888C39.9997 349.888 40.4011 349.569 40.4011 349.053V349.028C40.4011 348.512 40.0406 348.225 39.4344 348.225H38.73V347.398H39.2542C39.8031 347.398 40.1307 347.103 40.1307 346.62V346.595C40.1307 346.161 39.7867 345.866 39.2624 345.866C38.7709 345.866 38.3613 346.145 38.1074 346.636L37.2063 346.112C37.6896 345.35 38.4514 344.908 39.3525 344.908C40.4092 344.908 41.1956 345.53 41.1956 346.382V346.448C41.1956 346.964 40.9335 347.398 40.5075 347.685C41.0973 347.939 41.4987 348.479 41.4987 349.143V349.2C41.4987 350.142 40.6058 350.83 39.4017 350.83ZM42.4275 350.74V346.481H44.5081C45.2863 346.481 45.8106 346.915 45.8106 347.562V347.701C45.8106 348.037 45.6304 348.324 45.3437 348.52C45.7614 348.701 46.0154 349.045 46.0154 349.454V349.593C46.0154 350.282 45.4502 350.74 44.5982 350.74H42.4275ZM43.3941 348.242H44.205C44.5982 348.242 44.8276 348.062 44.8276 347.758V347.701C44.8276 347.39 44.6064 347.21 44.2132 347.21H43.3941V348.242ZM43.3941 350.011H44.3443C44.7621 350.011 45.0242 349.806 45.0242 349.495V349.413C45.0242 349.094 44.7703 348.897 44.3525 348.897H43.3941V350.011ZM47.3511 345.907C46.9989 345.907 46.7531 345.678 46.7531 345.358C46.7531 345.031 47.0071 344.801 47.3511 344.801C47.7116 344.801 47.9737 345.031 47.9737 345.358C47.9737 345.678 47.7198 345.907 47.3511 345.907ZM46.8432 350.74V346.481H47.859V350.74H46.8432ZM49.7568 350.74V347.316H48.5608V346.481H51.9685V347.316H50.7725V350.74H49.7568ZM52.675 350.74V346.481H53.6744V349.192H53.7399L55.4192 346.481H56.5332V350.74H55.542V347.799H55.4683L53.658 350.74H52.675Z" fill="white"/>
<path d="M37.0712 361.789L38.3368 359.504L37.1449 357.304H37.8944L38.5211 358.527C38.5579 358.605 38.5948 358.682 38.6317 358.76C38.6685 358.838 38.6972 358.897 38.7177 358.938C38.7341 358.897 38.7607 358.838 38.7975 358.76C38.8344 358.682 38.8713 358.605 38.9081 358.527L39.5471 357.304H40.2659L39.074 359.479L40.3396 361.789H39.5901L38.8958 360.462C38.8549 360.384 38.816 360.306 38.7791 360.229C38.7423 360.147 38.7136 360.083 38.6931 360.038C38.6767 360.083 38.6501 360.145 38.6132 360.222C38.5764 360.3 38.5395 360.378 38.5026 360.456L37.7961 361.789H37.0712ZM41.099 360.063V359.461H43.065V360.063H41.099ZM45.2928 361.832C44.9324 361.832 44.6354 361.752 44.402 361.592C44.1685 361.429 44.0272 361.21 43.978 360.935H44.6538C44.6825 361.033 44.7542 361.115 44.8689 361.181C44.9836 361.242 45.1249 361.273 45.2928 361.273H45.6C45.7843 361.273 45.9276 361.23 46.03 361.144C46.1324 361.058 46.1836 360.945 46.1836 360.806C46.1836 360.663 46.1324 360.548 46.03 360.462C45.9317 360.376 45.7884 360.333 45.6 360.333H44.8443V359.792H45.5754C45.7474 359.792 45.8785 359.753 45.9686 359.676C46.0587 359.594 46.1038 359.485 46.1038 359.35C46.1038 359.26 46.0833 359.184 46.0423 359.123C46.0055 359.057 45.9481 359.008 45.8703 358.975C45.7925 358.942 45.6962 358.926 45.5815 358.926H45.2805C45.129 358.926 44.9979 358.961 44.8873 359.031C44.7808 359.096 44.7153 359.18 44.6907 359.282H44.0149C44.06 359.012 44.1972 358.793 44.4265 358.625C44.66 358.453 44.9446 358.367 45.2805 358.367H45.5815C45.8314 358.367 46.0464 358.406 46.2266 358.484C46.4069 358.557 46.5441 358.664 46.6383 358.803C46.7366 358.942 46.7857 359.106 46.7857 359.295C46.7857 359.504 46.714 359.676 46.5707 359.811C46.4273 359.942 46.2307 360.011 45.9809 360.02C46.2758 360.036 46.497 360.116 46.6444 360.259C46.7919 360.399 46.8656 360.595 46.8656 360.849C46.8656 361.148 46.7509 361.388 46.5215 361.568C46.2922 361.744 45.985 361.832 45.6 361.832H45.2928ZM47.5144 361.789V358.41H49.0012C49.3698 358.41 49.6586 358.49 49.8675 358.65C50.0763 358.809 50.1808 359.031 50.1808 359.313C50.1808 359.547 50.0968 359.733 49.9289 359.872C49.761 360.011 49.5398 360.081 49.2654 360.081V360.026C49.5644 360.026 49.804 360.1 49.9842 360.247C50.1685 360.39 50.2607 360.583 50.2607 360.824C50.2607 361.128 50.1521 361.365 49.935 361.537C49.718 361.705 49.419 361.789 49.0381 361.789H47.5144ZM48.1657 361.255H49.0258C49.206 361.255 49.3473 361.214 49.4497 361.132C49.5562 361.05 49.6094 360.937 49.6094 360.794C49.6094 360.646 49.5562 360.532 49.4497 360.45C49.3473 360.364 49.206 360.321 49.0258 360.321H48.1657V361.255ZM48.1657 359.829H49.0012C49.165 359.829 49.294 359.79 49.3882 359.712C49.4825 359.635 49.5296 359.526 49.5296 359.387C49.5296 359.252 49.4825 359.145 49.3882 359.067C49.294 358.985 49.165 358.945 49.0012 358.945H48.1657V359.829ZM50.8665 361.789V361.187H52.0522V359.012H51.0201V358.41H52.6973V361.187H53.7847V361.789H50.8665ZM52.3103 357.826C52.1669 357.826 52.0522 357.79 51.9662 357.716C51.8802 357.638 51.8372 357.536 51.8372 357.409C51.8372 357.278 51.8802 357.175 51.9662 357.101C52.0522 357.024 52.1669 356.985 52.3103 356.985C52.4536 356.985 52.5683 357.024 52.6543 357.101C52.7403 357.175 52.7833 357.278 52.7833 357.409C52.7833 357.536 52.7403 357.638 52.6543 357.716C52.5683 357.79 52.4536 357.826 52.3103 357.826ZM55.2568 361.789V359.006H54.065V358.41H57.1122V359.006H55.9204V361.789H55.2568ZM62.3419 360.308C62.1207 360.308 61.9384 360.237 61.7951 360.093C61.6517 359.95 61.5801 359.768 61.5801 359.547C61.5801 359.321 61.6517 359.139 61.7951 359C61.9384 358.856 62.1207 358.785 62.3419 358.785C62.5672 358.785 62.7494 358.856 62.8887 359C63.032 359.139 63.1037 359.321 63.1037 359.547C63.1037 359.768 63.032 359.95 62.8887 360.093C62.7494 360.237 62.5672 360.308 62.3419 360.308ZM67.7558 361.789V361.144L69.6665 357.912H67.7927V357.304H70.3731V357.949L68.4624 361.181H70.4345V361.789H67.7558ZM71.4888 360.063V359.461H73.4548V360.063H71.4888ZM75.6826 361.832C75.3221 361.832 75.0252 361.752 74.7917 361.592C74.5583 361.429 74.417 361.21 74.3678 360.935H75.0436C75.0723 361.033 75.144 361.115 75.2587 361.181C75.3733 361.242 75.5146 361.273 75.6826 361.273H75.9898C76.1741 361.273 76.3174 361.23 76.4198 361.144C76.5222 361.058 76.5734 360.945 76.5734 360.806C76.5734 360.663 76.5222 360.548 76.4198 360.462C76.3215 360.376 76.1782 360.333 75.9898 360.333H75.2341V359.792H75.9652C76.1372 359.792 76.2683 359.753 76.3584 359.676C76.4485 359.594 76.4935 359.485 76.4935 359.35C76.4935 359.26 76.4731 359.184 76.4321 359.123C76.3952 359.057 76.3379 359.008 76.2601 358.975C76.1823 358.942 76.086 358.926 75.9713 358.926H75.6703C75.5187 358.926 75.3877 358.961 75.2771 359.031C75.1706 359.096 75.1051 359.18 75.0805 359.282H74.4047C74.4497 359.012 74.5869 358.793 74.8163 358.625C75.0498 358.453 75.3344 358.367 75.6703 358.367H75.9713C76.2212 358.367 76.4362 358.406 76.6164 358.484C76.7966 358.557 76.9338 358.664 77.028 358.803C77.1263 358.942 77.1755 359.106 77.1755 359.295C77.1755 359.504 77.1038 359.676 76.9605 359.811C76.8171 359.942 76.6205 360.011 76.3707 360.02C76.6656 360.036 76.8867 360.116 77.0342 360.259C77.1816 360.399 77.2554 360.595 77.2554 360.849C77.2554 361.148 77.1407 361.388 76.9113 361.568C76.682 361.744 76.3748 361.832 75.9898 361.832H75.6826ZM77.9042 361.789V358.41H79.391C79.7596 358.41 80.0484 358.49 80.2572 358.65C80.4661 358.809 80.5706 359.031 80.5706 359.313C80.5706 359.547 80.4866 359.733 80.3187 359.872C80.1507 360.011 79.9296 360.081 79.6552 360.081V360.026C79.9541 360.026 80.1938 360.1 80.374 360.247C80.5583 360.39 80.6504 360.583 80.6504 360.824C80.6504 361.128 80.5419 361.365 80.3248 361.537C80.1077 361.705 79.8087 361.789 79.4278 361.789H77.9042ZM78.5554 361.255H79.4156C79.5958 361.255 79.7371 361.214 79.8395 361.132C79.946 361.05 79.9992 360.937 79.9992 360.794C79.9992 360.646 79.946 360.532 79.8395 360.45C79.7371 360.364 79.5958 360.321 79.4156 360.321H78.5554V361.255ZM78.5554 359.829H79.391C79.5548 359.829 79.6838 359.79 79.778 359.712C79.8722 359.635 79.9193 359.526 79.9193 359.387C79.9193 359.252 79.8722 359.145 79.778 359.067C79.6838 358.985 79.5548 358.945 79.391 358.945H78.5554V359.829ZM81.2563 361.789V361.187H82.442V359.012H81.4099V358.41H83.0871V361.187H84.1745V361.789H81.2563ZM82.7 357.826C82.5567 357.826 82.442 357.79 82.356 357.716C82.27 357.638 82.227 357.536 82.227 357.409C82.227 357.278 82.27 357.175 82.356 357.101C82.442 357.024 82.5567 356.985 82.7 356.985C82.8434 356.985 82.9581 357.024 83.0441 357.101C83.1301 357.175 83.1731 357.278 83.1731 357.409C83.1731 357.536 83.1301 357.638 83.0441 357.716C82.9581 357.79 82.8434 357.826 82.7 357.826ZM85.6466 361.789V359.006H84.4547V358.41H87.502V359.006H86.3101V361.789H85.6466Z" fill="white" fill-opacity="0.55"/>
<rect x="91.6437" y="206.84" width="158.713" height="38.9102" rx="8.19162" fill="black"/>
<rect x="91.8997" y="207.096" width="158.201" height="38.3982" rx="7.93563" stroke="white" stroke-opacity="0.48" stroke-width="0.511976" stroke-dasharray="0.51 2.05"/>
<rect x="99.8354" y="215.031" width="22.5269" height="22.5269" rx="4.09581" fill="white" fill-opacity="0.08"/>
<path d="M110.966 228.877C110.617 228.877 110.308 228.806 110.041 228.664C109.778 228.522 109.574 228.325 109.426 228.074C109.284 227.817 109.213 227.52 109.213 227.181H109.869C109.869 227.531 109.967 227.804 110.163 228C110.36 228.197 110.63 228.295 110.974 228.295C111.324 228.295 111.594 228.194 111.785 227.992C111.982 227.785 112.08 227.514 112.08 227.181V226.706C112.08 226.351 111.982 226.078 111.785 225.887C111.594 225.69 111.324 225.592 110.974 225.592H110.409V224.953L111.916 223.405H109.451V222.815H112.572V223.462L110.983 225.101V225.019C111.518 225.019 111.944 225.171 112.26 225.477C112.577 225.778 112.736 226.187 112.736 226.706V227.181C112.736 227.52 112.662 227.817 112.514 228.074C112.367 228.325 112.159 228.522 111.892 228.664C111.63 228.806 111.321 228.877 110.966 228.877Z" fill="white"/>
<path d="M131.545 228.885C129.931 228.885 128.834 227.714 128.834 226.002V225.846C128.834 224.158 129.956 222.971 131.529 222.971H131.586C132.495 222.971 133.323 223.429 133.781 224.199L132.962 224.781C132.676 224.257 132.217 223.937 131.611 223.937H131.537C130.595 223.937 129.948 224.691 129.948 225.846V226.01C129.948 227.165 130.595 227.918 131.553 227.918H131.635C132.241 227.918 132.708 227.583 132.995 227.075L133.79 227.664C133.339 228.434 132.536 228.885 131.611 228.885H131.545ZM135.329 228.795V225.371H134.133V224.535H137.541V225.371H136.345V228.795H135.329ZM138.247 228.795V224.535H140.328C141.106 224.535 141.63 224.969 141.63 225.617V225.756C141.63 226.092 141.45 226.378 141.163 226.575C141.581 226.755 141.835 227.099 141.835 227.509V227.648C141.835 228.336 141.27 228.795 140.418 228.795H138.247ZM139.214 226.296H140.025C140.418 226.296 140.647 226.116 140.647 225.813V225.756C140.647 225.445 140.426 225.264 140.033 225.264H139.214V226.296ZM139.214 228.066H140.164C140.582 228.066 140.844 227.861 140.844 227.55V227.468C140.844 227.148 140.59 226.952 140.172 226.952H139.214V228.066ZM144.481 228.869C143.244 228.869 142.384 228.009 142.384 226.788V226.542C142.384 225.322 143.244 224.462 144.481 224.462H144.563C145.8 224.462 146.66 225.322 146.66 226.542V226.788C146.66 228.009 145.8 228.869 144.563 228.869H144.481ZM144.49 228.058H144.555C145.194 228.058 145.604 227.533 145.604 226.747V226.55C145.604 225.78 145.186 225.273 144.555 225.273H144.49C143.859 225.273 143.441 225.78 143.441 226.55V226.747C143.441 227.533 143.851 228.058 144.49 228.058ZM147.527 230.433V224.535H148.33C148.37 224.658 148.42 224.871 148.436 225.043C148.772 224.675 149.247 224.462 149.804 224.462H149.87C150.992 224.462 151.754 225.313 151.754 226.542V226.788C151.754 228.017 150.992 228.869 149.87 228.869H149.804C149.296 228.869 148.862 228.688 148.543 228.377V230.433H147.527ZM149.583 228.058H149.657C150.279 228.058 150.705 227.542 150.705 226.747V226.55C150.705 225.78 150.279 225.273 149.657 225.273H149.583C148.952 225.273 148.534 225.78 148.534 226.55V226.747C148.534 227.542 148.952 228.058 149.583 228.058ZM154.433 228.869C153.179 228.869 152.344 228.025 152.344 226.772V226.608C152.344 225.338 153.179 224.462 154.408 224.462H154.49C155.62 224.462 156.407 225.264 156.407 226.428V226.976H153.351V226.985C153.409 227.615 153.843 228.017 154.498 228.017H154.58C155.088 228.017 155.465 227.779 155.719 227.468L156.276 228.082C155.874 228.566 155.227 228.869 154.539 228.869H154.433ZM153.368 226.296H155.432V226.272C155.407 225.649 155.031 225.256 154.474 225.256H154.4C153.843 225.256 153.466 225.649 153.368 226.296ZM157.254 228.795V224.535H158.27V226.157H160.039V224.535H161.055V228.795H160.039V226.976H158.27V228.795H157.254ZM162.198 228.795V224.535H163.214V226.157H164.983V224.535H165.999V228.795H164.983V226.976H163.214V228.795H162.198ZM166.789 228.795L167.731 227.181C167.265 226.968 166.945 226.55 166.945 226.018V225.871C166.945 225.084 167.551 224.535 168.411 224.535H170.41V228.795H169.443V227.345H168.665L167.863 228.795H166.789ZM168.583 226.6H169.452V225.313H168.583C168.198 225.313 167.936 225.543 167.936 225.895V225.985C167.936 226.337 168.207 226.6 168.583 226.6ZM176.06 228.795V227.206C175.708 227.329 175.339 227.402 175.003 227.402C174.061 227.402 173.578 226.903 173.578 226.034V224.535H174.577V225.903C174.577 226.362 174.765 226.575 175.2 226.575C175.503 226.575 175.798 226.518 176.06 226.411V224.535H177.076V228.795H176.06ZM180.031 228.869C178.778 228.869 177.943 228.025 177.943 226.772V226.608C177.943 225.338 178.778 224.462 180.007 224.462H180.089C181.219 224.462 182.006 225.264 182.006 226.428V226.976H178.95V226.985C179.008 227.615 179.442 228.017 180.097 228.017H180.179C180.687 228.017 181.064 227.779 181.318 227.468L181.875 228.082C181.473 228.566 180.826 228.869 180.138 228.869H180.031ZM178.967 226.296H181.031V226.272C181.006 225.649 180.629 225.256 180.072 225.256H179.999C179.442 225.256 179.065 225.649 178.967 226.296ZM182.853 228.795V224.535H183.869V226.329H183.934L185.499 224.535H186.637L184.843 226.509L186.695 228.795H185.474L183.934 226.78H183.869V228.795H182.853ZM188.376 228.877C187.54 228.877 186.958 228.377 186.958 227.615V227.542C186.958 226.624 187.737 226.165 189.367 226.165H189.703V225.977C189.703 225.551 189.432 225.289 188.908 225.289H188.867C188.449 225.289 187.991 225.428 187.581 225.715L187.163 224.994C187.679 224.658 188.302 224.445 188.933 224.445H189.006C190.038 224.445 190.669 225.027 190.669 225.993V227.918C190.669 228.213 190.743 228.516 190.817 228.795H189.85C189.809 228.672 189.768 228.475 189.744 228.303C189.383 228.672 188.9 228.877 188.376 228.877ZM188.589 228.058C189.023 228.058 189.424 227.861 189.703 227.533V226.821H189.457C188.408 226.821 187.941 227.034 187.941 227.484V227.525C187.941 227.845 188.204 228.058 188.589 228.058Z" fill="white"/>
<g filter="url(#filter3_d_10755_6735)">
<path fill-rule="evenodd" clip-rule="evenodd" d="M186.871 493.546H154.105V460.779H186.871V493.546ZM159.566 466.24V488.085H181.41V466.24H159.566Z" fill="white"/>
<path d="M163.662 470.336H177.315V483.989L163.662 470.336Z" fill="white"/>
</g>
<defs>
<filter id="filter0_d_10755_6735" x="154.617" y="0.000713348" width="32.7665" height="32.7662" filterUnits="userSpaceOnUse" color-interpolation-filters="sRGB">
<feFlood flood-opacity="0" result="BackgroundImageFix"/>
<feColorMatrix in="SourceAlpha" type="matrix" values="0 0 0 0 0 0 0 0 0 0 0 0 0 0 0 0 0 0 127 0" result="hardAlpha"/>
<feOffset/>
<feGaussianBlur stdDeviation="5.11976"/>
<feComposite in2="hardAlpha" operator="out"/>
<feColorMatrix type="matrix" values="0 0 0 0 0.192157 0 0 0 0 0.352941 0 0 0 0 1 0 0 0 1 0"/>
<feBlend mode="normal" in2="BackgroundImageFix" result="effect1_dropShadow_10755_6735"/>
<feBlend mode="normal" in="SourceGraphic" in2="effect1_dropShadow_10755_6735" result="shape"/>
</filter>
<filter id="filter1_d_10755_6735" x="154.617" y="126.971" width="32.7665" height="32.7662" filterUnits="userSpaceOnUse" color-interpolation-filters="sRGB">
<feFlood flood-opacity="0" result="BackgroundImageFix"/>
<feColorMatrix in="SourceAlpha" type="matrix" values="0 0 0 0 0 0 0 0 0 0 0 0 0 0 0 0 0 0 127 0" result="hardAlpha"/>
<feOffset/>
<feGaussianBlur stdDeviation="5.11976"/>
<feComposite in2="hardAlpha" operator="out"/>
<feColorMatrix type="matrix" values="0 0 0 0 1 0 0 0 0 1 0 0 0 0 1 0 0 0 0.48 0"/>
<feBlend mode="normal" in2="BackgroundImageFix" result="effect1_dropShadow_10755_6735"/>
<feBlend mode="normal" in="SourceGraphic" in2="effect1_dropShadow_10755_6735" result="shape"/>
</filter>
<filter id="filter2_d_10755_6735" x="154.617" y="253.94" width="32.7665" height="32.7662" filterUnits="userSpaceOnUse" color-interpolation-filters="sRGB">
<feFlood flood-opacity="0" result="BackgroundImageFix"/>
<feColorMatrix in="SourceAlpha" type="matrix" values="0 0 0 0 0 0 0 0 0 0 0 0 0 0 0 0 0 0 127 0" result="hardAlpha"/>
<feOffset/>
<feGaussianBlur stdDeviation="5.11976"/>
<feComposite in2="hardAlpha" operator="out"/>
<feColorMatrix type="matrix" values="0 0 0 0 0.0196078 0 0 0 0 0.737255 0 0 0 0 0.0901961 0 0 0 1 0"/>
<feBlend mode="normal" in2="BackgroundImageFix" result="effect1_dropShadow_10755_6735"/>
<feBlend mode="normal" in="SourceGraphic" in2="effect1_dropShadow_10755_6735" result="shape"/>
</filter>
<filter id="filter3_d_10755_6735" x="137.722" y="444.396" width="65.5329" height="65.5321" filterUnits="userSpaceOnUse" color-interpolation-filters="sRGB">
<feFlood flood-opacity="0" result="BackgroundImageFix"/>
<feColorMatrix in="SourceAlpha" type="matrix" values="0 0 0 0 0 0 0 0 0 0 0 0 0 0 0 0 0 0 127 0" result="hardAlpha"/>
<feOffset/>
<feGaussianBlur stdDeviation="8.19162"/>
<feComposite in2="hardAlpha" operator="out"/>
<feColorMatrix type="matrix" values="0 0 0 0 1 0 0 0 0 1 0 0 0 0 1 0 0 0 0.4 0"/>
<feBlend mode="normal" in2="BackgroundImageFix" result="effect1_dropShadow_10755_6735"/>
<feBlend mode="normal" in="SourceGraphic" in2="effect1_dropShadow_10755_6735" result="shape"/>
</filter>
<clipPath id="clip0_10755_6735">
<rect width="6.14371" height="6.14371" fill="white" transform="translate(167.928 13.3125)"/>
</clipPath>
<clipPath id="clip1_10755_6735">
<rect width="6.14371" height="6.14371" fill="white" transform="translate(167.928 140.283)"/>
</clipPath>
<clipPath id="clip2_10755_6735">
<rect width="6.14371" height="6.14371" fill="white" transform="translate(167.928 267.252)"/>
</clipPath>
<clipPath id="clip3_10755_6735">
<rect width="10.2395" height="10.2395" fill="white" transform="translate(197.623 348.145)"/>
</clipPath>
<clipPath id="clip4_10755_6735">
<rect width="10.2395" height="10.2395" fill="white" transform="translate(105.979 411.631)"/>
</clipPath>
<clipPath id="clip5_10755_6735">
<rect width="10.2395" height="10.2395" fill="white" transform="translate(14.3353 348.145)"/>
</clipPath>
</defs>
</svg>
