<svg xmlns="http://www.w3.org/2000/svg" width="342" height="510" fill="none"><path fill="#fff" fill-opacity=".48" d="M171.256 55.295v-.256h-.512v.256h.512m-.256 0h-.256v.255h.512v-.255zm0 2.295h-.256v.51h.512v-.51zm0 2.55h-.256v.51h.512v-.51zm0 2.55h-.256v.51h.512v-.51zm0 2.55h-.256v.51h.512v-.51zm0 2.55h-.256v.51h.512v-.51zm0 2.55h-.256v.51h.512v-.51zm0 2.55h-.256v.51h.512v-.51zm0 2.55h-.256v.51h.512v-.51zm0 2.55h-.256v.51h.512v-.51zm0 2.55h-.256v.51h.512v-.51zm0 2.55h-.256v.51h.512v-.51zm0 2.55h-.256v.51h.512v-.51zm0 2.55h-.256v.51h.512v-.51zm0 2.55h-.256v.51h.512v-.51zm0 2.55h-.256v.51h.512v-.51zm0 2.55h-.256v.51h.512v-.51zm0 2.55h-.256v.51h.512v-.51zm0 2.551h-.256v.51h.512v-.51zm0 2.55h-.256v.51h.512v-.51zm0 2.55h-.256v.51h.512v-.51zm0 2.55h-.256v.51h.512v-.51zm0 2.55h-.256v.51h.512v-.51zm0 2.55h-.256v.51h.512v-.51zm0 2.55h-.256v.51h.512v-.51zm0 2.55h-.256v.51h.512v-.51zm0 2.55h-.256v.51h.512v-.51zm0 2.55h-.256v.51h.512v-.51zm0 2.55h-.256v.51h.512v-.51zm0 2.55h-.256v.51h.512v-.51zm0 2.55h-.256v.51h.512v-.51zm0 2.55h-.256v.51h.512v-.51zm0 2.55h-.256v.51h.512v-.51zm0 2.55h-.256v.51h.512v-.51zm0 2.55h-.256v.51h.512v-.51zm0 2.55h-.256v.51h.512v-.51zm0 2.55h-.256v.51h.512v-.51zm0 2.55h-.256v.51h.512v-.51zm0 2.55h-.256v.51h.512v-.51zm0 2.55h-.256v.51h.512v-.51zm0 2.55h-.256v.51h.512v-.51zm0 2.55h-.256v.51h.512v-.51zm0 2.55h-.256v.51h.512v-.51zm0 2.55h-.256v.51h.512v-.51zm0 2.55h-.256v.51h.512v-.51zm0 2.55h-.256v.51h.512v-.51zm0 2.55h-.256v.51h.512v-.51zm0 2.551h-.256v.51h.512v-.51zm0 2.55h-.256v.51h.512v-.51zm0 2.55h-.256v.51h.512v-.51zm0 2.55h-.256v.51h.512v-.51zm0 2.55h-.256v.51h.512v-.51zm0 2.55h-.256v.51h.512v-.51zm0 2.55h-.256v.51h.512v-.51zm0 2.55h-.256v.51h.512v-.51zm0 2.55h-.256v.51h.512v-.51zm0 2.55h-.256v.51h.512v-.51zm0 2.55h-.256v.51h.512v-.51zm0 2.55h-.256v.51h.512v-.51zm0 2.55h-.256v.51h.512v-.51zm0 2.55h-.256v.51h.512v-.51zm0 2.55h-.256v.51h.512v-.51zm0 2.55h-.256v.51h.512v-.51zm0 2.55h-.256v.51h.512v-.51zm0 2.55h-.256v.51h.512v-.51zm0 2.55h-.256v.51h.512v-.51zm0 2.55h-.256v.51h.512v-.51zm0 2.55h-.256v.51h.512v-.51zm0 2.55h-.256v.51h.512v-.51zm0 2.55h-.256v.51h.512v-.51zm0 2.55h-.256v.51h.512v-.51zm0 2.55h-.256v.51h.512v-.51zm0 2.55h-.256v.51h.512v-.51zm0 2.55h-.256v.51h.512v-.51zm0 2.55h-.256v.51h.512v-.51zm0 2.55h-.256v.51h.512v-.51zm0 2.55h-.256v.511h.512v-.511zm0 2.551h-.256v.51h.512v-.51zm0 2.55h-.256v.51h.512v-.51zm0 2.55h-.256v.51h.512v-.51zm0 2.55h-.256v.51h.512v-.51zm0 2.55h-.256v.51h.512v-.51zm0 2.55h-.256v.51h.512v-.51zm0 2.55h-.256v.51h.512v-.51zm0 2.55h-.256v.51h.512v-.51zm0 2.55h-.256v.51h.512v-.51zm0 2.55h-.256v.51h.512v-.51zm0 2.55h-.256v.51h.512v-.51zm0 2.55h-.256v.51h.512v-.51zm0 2.55h-.256v.51h.512v-.51zm0 2.55h-.256v.51h.512v-.51zm0 2.55h-.256v.51h.512v-.51zm0 2.55h-.256v.51h.512v-.51zm0 2.55h-.256v.51h.512v-.51zm0 2.55h-.256v.51h.512v-.51zm0 2.55h-.256v.51h.512v-.51zm0 2.55h-.256v.51h.512v-.51zm0 2.55h-.256v.51h.512v-.51zm0 2.55h-.256v.51h.512v-.51zm0 2.55h-.256v.51h.512v-.51zm0 2.55h-.256v.51h.512v-.51zm0 2.55h-.256v.51h.512v-.51zm0 2.55h-.256v.51h.512v-.51zm0 2.55h-.256v.51h.512v-.51zm0 2.55h-.256v.256h.512v-.256zM171.256 386.031v-.256h-.512v.256h.512m-.256 0h-.256v.258h.512v-.258zm0 2.32h-.256v.516h.512v-.516zm0 2.578h-.256v.515h.512v-.515zm0 2.577h-.256v.516h.512v-.516zm0 2.578h-.256v.515h.512v-.515zm0 2.577h-.256v.516h.512v-.516zm0 2.578h-.256v.515h.512v-.515zm0 2.577h-.256v.516h.512v-.516zm0 2.578h-.256v.515h.512v-.515zm0 2.577h-.256v.516h.512v-.516zm0 2.578h-.256v.515h.512v-.515zm0 2.577h-.256v.516h.512v-.516zm0 2.578h-.256v.515h.512v-.515zm0 2.577h-.256v.516h.512v-.516zm0 2.578h-.256v.515h.512v-.515zm0 2.578h-.256v.515h.512v-.515zm0 2.577h-.256v.516h.512v-.516zm0 2.578h-.256v.515h.512v-.515zm0 2.577h-.256v.516h.512v-.516zm0 2.578h-.256v.515h.512v-.515zm0 2.577h-.256v.516h.512v-.516zm0 2.578h-.256v.515h.512v-.515zm0 2.577h-.256v.516h.512v-.516zm0 2.578h-.256v.515h.512v-.515zm0 2.577h-.256v.516h.512v-.516zm0 2.578h-.256v.515h.512v-.515zm0 2.577h-.256v.516h.512v-.516zm0 2.578h-.256v.515h.512v-.515zm0 2.577h-.256v.516h.512v-.516zm0 2.578h-.256v.258h.512v-.258z"/><path stroke="#fff" stroke-dasharray="0.51 2.05" stroke-opacity=".48" stroke-width=".512" d="M79.356 333.809v-5.119a8.19 8.19 0 0 1 8.192-8.192H171M79.356 372.72v5.12a8.19 8.19 0 0 0 8.192 8.191H171M171 320.498h81.404a8.19 8.19 0 0 1 8.192 8.192v5.631M171 386.031h81.404a8.19 8.19 0 0 0 8.192-8.191v-5.632"/><rect width="158.713" height="38.91" x="91.644" y="16.385" fill="#000" rx="8.192"/><rect width="158.201" height="38.398" x="91.9" y="16.641" stroke="#fff" stroke-dasharray="0.51 2.05" stroke-opacity=".48" stroke-width=".512" rx="7.936"/><rect width="22.527" height="22.527" x="99.835" y="24.576" fill="#fff" fill-opacity=".08" rx="4.096"/><path fill="#fff" fill-rule="evenodd" d="M115.195 39.936h-8.192v-8.192h8.192zm-6.827-6.827v5.462h5.461v-5.462z" clip-rule="evenodd"/><path fill="#fff" d="M109.392 34.133h3.414v3.413zM129.178 38.34v-5.734h1.081v2.44h.049l1.999-2.44h1.245l-2.261 2.637 2.458 3.097h-1.319l-2.122-2.76h-.049v2.76zm6.15.082c-.835 0-1.417-.5-1.417-1.262v-.073c0-.918.778-1.377 2.408-1.377h.336v-.188c0-.426-.27-.688-.794-.688h-.041c-.418 0-.877.14-1.286.426l-.418-.721c.516-.336 1.138-.549 1.769-.549h.074c1.032 0 1.663.582 1.663 1.548v1.925c0 .295.073.598.147.877h-.966a3 3 0 0 1-.107-.492c-.36.369-.844.574-1.368.574m.213-.82a1.46 1.46 0 0 0 1.114-.524v-.712h-.246c-1.048 0-1.515.213-1.515.663v.041c0 .32.262.533.647.533m4.912.803c-1.221 0-2.064-.868-2.064-2.089v-.229c0-1.212.86-2.072 2.039-2.072h.066c.737 0 1.368.344 1.769.983l-.737.491c-.246-.45-.582-.655-1.008-.655h-.065c-.623 0-1.008.483-1.008 1.286v.18c0 .778.418 1.278 1.049 1.278h.074c.401 0 .729-.221.974-.664l.738.525c-.41.63-1.008.966-1.753.966zm3.639.017c-.836 0-1.417-.5-1.417-1.262v-.073c0-.918.778-1.377 2.408-1.377h.336v-.188c0-.426-.27-.688-.795-.688h-.041c-.417 0-.876.14-1.286.426l-.418-.721c.517-.336 1.139-.549 1.77-.549h.074c1.032 0 1.662.582 1.662 1.548v1.925c0 .295.074.598.148.877h-.967a3 3 0 0 1-.106-.492 1.9 1.9 0 0 1-1.368.574m.213-.82c.434 0 .835-.196 1.114-.524v-.712h-.246c-1.048 0-1.515.213-1.515.663v.041c0 .32.262.533.647.533m7.686.828c-1.614 0-2.712-1.171-2.712-2.883v-.156c0-1.688 1.122-2.875 2.695-2.875h.058c.909 0 1.736.458 2.195 1.228l-.819.582c-.287-.524-.746-.844-1.352-.844h-.074c-.942 0-1.589.754-1.589 1.909v.164c0 1.155.647 1.908 1.606 1.908h.082c.606 0 1.073-.336 1.359-.843l.795.59c-.45.77-1.253 1.22-2.179 1.22zm2.948-.09v-5.898h1.015v2.163a1.97 1.97 0 0 1 1.434-.607c.917 0 1.442.59 1.442 1.614v2.728h-1.016v-2.515c0-.639-.27-.942-.811-.942-.647 0-1.049.418-1.049 1.098v2.359zm6.696.074c-1.253 0-2.089-.844-2.089-2.098v-.163c0-1.27.836-2.146 2.064-2.146h.082c1.131 0 1.917.802 1.917 1.965v.55h-3.055v.008c.057.63.491 1.032 1.146 1.032h.082c.508 0 .885-.238 1.139-.55l.557.615c-.401.483-1.049.787-1.737.787zm-1.065-2.573h2.064v-.024c-.024-.623-.401-1.016-.958-1.016h-.074c-.557 0-.934.393-1.032 1.04m5.622 2.564c-1.22 0-2.064-.868-2.064-2.089v-.229c0-1.212.86-2.072 2.04-2.072h.065a2.03 2.03 0 0 1 1.77.983l-.738.491c-.245-.45-.581-.655-1.007-.655h-.066c-.622 0-1.007.483-1.007 1.286v.18c0 .778.417 1.278 1.048 1.278h.074c.401 0 .729-.221.975-.664l.737.525c-.41.63-1.008.966-1.753.966zm2.46-.065v-5.898h1.016v3.432h.066l1.564-1.794h1.139l-1.794 1.974 1.851 2.286h-1.22l-1.54-2.015h-.066v2.015zm6.651.074c-.557 0-1.032-.213-1.359-.574a2 2 0 0 1-.115.5h-.803v-5.898h1.016v2.056a1.77 1.77 0 0 1 1.261-.491h.074c1.114 0 1.884.851 1.884 2.08v.246c0 1.229-.77 2.08-1.884 2.08zm-.213-.811h.066c.631 0 1.049-.517 1.049-1.311v-.197c0-.77-.418-1.278-1.049-1.278h-.066c-.63 0-1.048.508-1.048 1.278v.197c0 .786.41 1.31 1.048 1.31m4.777.81c-1.237 0-2.098-.86-2.098-2.08v-.246c0-1.22.861-2.08 2.098-2.08h.081c1.237 0 2.098.86 2.098 2.08v.246c0 1.22-.861 2.08-2.098 2.08zm.008-.81h.065c.639 0 1.049-.525 1.049-1.311v-.197c0-.77-.418-1.278-1.049-1.278h-.065c-.631 0-1.049.508-1.049 1.278v.197c0 .786.41 1.31 1.049 1.31m2.264.737 1.417-2.18v-.032l-1.352-2.048h1.155l.86 1.45h.033l.836-1.45h1.122l-1.343 2.048v.033l1.4 2.179h-1.146l-.902-1.565h-.041l-.909 1.565z"/><g filter="url(#a)"><rect width="12.287" height="12.287" x="164.856" y="10.24" fill="#315aff" rx="3.072" shape-rendering="crispEdges"/><g stroke="#fff" stroke-linejoin="round" stroke-width=".819" clip-path="url(#b)"><path stroke-linecap="square" d="M171 14.393v1.92"/><path d="M172.152 14.584c.578.377.96.987.96 1.728a2.112 2.112 0 0 1-4.224 0c0-.741.382-1.351.96-1.728"/></g></g><rect width="158.713" height="38.91" x="91.644" y="79.869" fill="#000" rx="8.192"/><rect width="158.201" height="38.398" x="91.9" y="80.125" stroke="#fff" stroke-dasharray="0.51 2.05" stroke-opacity=".48" stroke-width=".512" rx="7.936"/><rect width="22.527" height="22.527" x="99.835" y="88.061" fill="#fff" fill-opacity=".08" rx="4.096"/><path fill="#fff" d="M109.361 101.824v-.59h1.638v-4.84l-1.622 1.203v-.72l1.393-1.033h.876v5.39h1.352v.59zM128.481 101.824l1.934-5.734h1.409l1.933 5.734h-1.147l-.426-1.351h-2.122l-.434 1.351zm1.827-2.236h1.63l-.786-2.425h-.066zm3.913 2.236v-4.26h2.081c.778 0 1.302.435 1.302 1.082v.14c0 .335-.18.622-.467.818.418.18.672.525.672.934v.139c0 .688-.565 1.147-1.417 1.147zm.967-2.498h.811c.393 0 .622-.18.622-.483v-.058c0-.311-.221-.491-.614-.491h-.819zm0 1.769h.95c.418 0 .68-.205.68-.516v-.082c0-.319-.254-.516-.672-.516h-.958zm4.121.729V98.4h-1.196v-.835h3.407v.835h-1.195v3.424zm4.655.074c-1.237 0-2.097-.86-2.097-2.08v-.246c0-1.221.86-2.081 2.097-2.081h.081c1.237 0 2.098.86 2.098 2.08v.246c0 1.221-.861 2.081-2.098 2.081zm.008-.811h.065c.639 0 1.049-.524 1.049-1.31v-.197c0-.77-.418-1.278-1.049-1.278h-.065c-.631 0-1.049.508-1.049 1.278v.196c0 .787.41 1.311 1.049 1.311m2.955 2.376v-5.898h.803c.041.123.09.335.106.508.336-.37.811-.582 1.368-.582h.066c1.122 0 1.884.852 1.884 2.08v.246c0 1.229-.762 2.081-1.884 2.081h-.066c-.508 0-.942-.18-1.261-.492v2.057zm2.056-2.376h.074c.622 0 1.048-.516 1.048-1.31v-.197c0-.77-.426-1.278-1.048-1.278h-.074c-.631 0-1.048.508-1.048 1.278v.196c0 .795.417 1.311 1.048 1.311m2.958.737v-4.26h.999v2.712h.066l1.679-2.711h1.114v4.259h-.991v-2.94h-.074l-1.81 2.94zm6.343.074c-.778 0-1.409-.328-1.819-.999l.754-.484c.237.434.581.639 1.04.639h.074c.426 0 .696-.205.696-.499v-.058c0-.327-.237-.5-.655-.5h-.557v-.688h.508c.336 0 .54-.18.54-.466v-.058c0-.287-.229-.459-.589-.459h-.066c-.426 0-.745.23-.934.598l-.721-.565c.377-.524.983-.868 1.761-.868h.074c.819 0 1.467.467 1.467 1.122v.09c0 .344-.197.647-.517.868.426.205.697.558.697 1.008v.082c0 .721-.705 1.237-1.671 1.237zm3.647.008c-.835 0-1.417-.5-1.417-1.261v-.074c0-.918.778-1.376 2.408-1.376h.336v-.189c0-.426-.27-.688-.794-.688h-.041c-.418 0-.877.14-1.286.426l-.418-.72c.516-.337 1.139-.55 1.769-.55h.074c1.032 0 1.663.582 1.663 1.549v1.925c0 .295.074.598.147.876h-.966a3 3 0 0 1-.107-.491c-.36.368-.843.573-1.368.573m.213-.819c.434 0 .836-.197 1.114-.524v-.713h-.245c-1.049 0-1.516.213-1.516.664v.041c0 .319.262.532.647.532m6.518 1.786v-1.049h-3.392v-4.26h1.016v3.457h1.729v-3.456h1.015v3.456h.598v1.852zm2.146-5.882c-.352 0-.598-.23-.598-.549 0-.327.254-.557.598-.557.36 0 .623.23.623.557 0 .32-.254.55-.623.55m-.508 4.833v-4.26h1.016v4.26zm1.726 0 .942-1.614c-.467-.212-.786-.63-.786-1.163V98.9c0-.787.606-1.335 1.466-1.335h1.999v4.259h-.967v-1.45h-.778l-.803 1.45zm1.794-2.195h.868v-1.286h-.868c-.385 0-.647.23-.647.581v.09c0 .353.27.615.647.615"/><rect width="158.713" height="38.91" x="91.644" y="143.354" fill="#000" rx="8.192"/><rect width="158.201" height="38.398" x="91.9" y="143.61" stroke="#fff" stroke-dasharray="0.51 2.05" stroke-opacity=".48" stroke-width=".512" rx="7.936"/><rect width="22.527" height="22.527" x="99.835" y="151.545" fill="#fff" fill-opacity=".08" rx="4.096"/><path fill="#fff" d="M109.361 165.309v-.672l1.843-1.933q.491-.517.721-.934t.229-.811q0-.524-.303-.828-.295-.31-.811-.311-.541 0-.86.311-.311.312-.311.852h-.656q.017-.532.246-.925.23-.393.631-.598.409-.213.95-.213t.934.205q.4.204.614.589.213.378.213.91 0 .516-.278 1.032-.28.516-.893 1.155l-1.557 1.581h2.843v.59zM129.186 165.309v-5.735h1.99c1.139 0 1.909.549 1.909 1.409v.099c0 .491-.213.884-.688 1.171.631.27.975.762.975 1.393v.098c0 .958-.77 1.565-1.958 1.565zm1.032-3.326h.942c.541 0 .885-.279.885-.721v-.082c0-.418-.32-.68-.869-.68h-.958zm0 2.4h1.139c.581 0 .95-.279.95-.745v-.082c0-.476-.377-.762-.958-.762h-1.131zm4.585-3.907c-.352 0-.598-.23-.598-.549 0-.328.254-.557.598-.557.36 0 .623.229.623.557 0 .319-.254.549-.623.549m-.508 4.833v-4.26h1.016v4.26zm1.669 1.048v-1.851h.393c.295-.32.409-1.434.409-3.457h3.187v3.457h.598v1.851h-.959v-1.048h-2.67v1.048zm1.376-1.851h1.605v-2.662h-1.22c-.033 1.523-.164 2.4-.385 2.662m3.963.803v-4.26h1.016v1.794h.065l1.565-1.794h1.138l-1.794 1.974 1.852 2.286h-1.221l-1.54-2.016h-.065v2.016zm4.464 1.638v-5.898h.803a2.6 2.6 0 0 1 .106.508c.336-.369.811-.582 1.368-.582h.066c1.122 0 1.884.852 1.884 2.081v.246c0 1.228-.762 2.08-1.884 2.08h-.066c-.508 0-.942-.18-1.261-.491v2.056zm2.056-2.376h.074c.622 0 1.048-.516 1.048-1.31v-.197c0-.77-.426-1.278-1.048-1.278h-.074c-.631 0-1.049.508-1.049 1.278v.197c0 .794.418 1.31 1.049 1.31m3.039.738v-4.26h1v2.711h.065l1.68-2.711h1.114v4.26h-.992v-2.941h-.073l-1.811 2.941zm5.762 0v-3.425h-1.196v-.835h3.408v.835h-1.196v3.425zm3.672 0v-3.425H159.1v-.835h3.407v.835h-1.196v3.425zm2.566 0 .942-1.614c-.467-.213-.787-.631-.787-1.163v-.148c0-.786.606-1.335 1.467-1.335h1.998v4.26h-.966v-1.45h-.779l-.802 1.45zm1.794-2.196h.868v-1.286h-.868c-.385 0-.648.23-.648.582v.09c0 .352.271.614.648.614m6.567 2.269c-.779 0-1.409-.327-1.819-.999l.754-.483c.237.434.581.639 1.04.639h.074c.426 0 .696-.205.696-.5v-.057c0-.328-.237-.5-.655-.5h-.557v-.688h.508c.335 0 .54-.18.54-.467v-.057c0-.287-.229-.459-.59-.459h-.065c-.426 0-.745.229-.934.598l-.721-.565c.377-.525.983-.869 1.761-.869h.074c.819 0 1.466.467 1.466 1.122v.091c0 .344-.196.647-.516.868.426.205.697.557.697 1.007v.082c0 .721-.705 1.237-1.671 1.237zm2.582-.073v-4.26h1.114l1.131 2.498h.065l1.131-2.498h1.106v4.26h-.975v-2.679h-.066l-.942 1.982h-.581l-.942-1.974h-.066v2.671zm6.204-4.833c-.352 0-.598-.23-.598-.549 0-.328.254-.557.598-.557.36 0 .623.229.623.557 0 .319-.254.549-.623.549m-.508 4.833v-4.26h1.016v4.26zm2.16 0v-4.26h1.016v1.622h1.769v-1.622h1.016v4.26h-1.016v-1.819h-1.769v1.819zm4.944 0v-4.26h.999v2.711h.066l1.679-2.711h1.114v4.26h-.991v-2.941h-.074l-1.81 2.941z"/><g filter="url(#c)"><rect width="12.287" height="12.287" x="164.856" y="137.211" fill="#fff" rx="3.072" shape-rendering="crispEdges"/><g clip-path="url(#d)"><path stroke="#000" stroke-linecap="round" stroke-linejoin="round" stroke-width=".819" d="m171.764 144.12-.584 1.607a.193.193 0 0 1-.36 0l-.584-1.607-1.606-.584a.2.2 0 0 1-.091-.07.2.2 0 0 1 0-.219.2.2 0 0 1 .091-.071l1.606-.583.584-1.606a.19.19 0 0 1 .18-.126q.061 0 .11.035a.2.2 0 0 1 .07.091l.585 1.606 1.606.584a.192.192 0 0 1 0 .36z"/></g></g><rect width="158.713" height="38.91" x="91.644" y="270.324" fill="#000" rx="8.192"/><rect width="158.201" height="38.398" x="91.9" y="270.58" stroke="#fff" stroke-dasharray="0.51 2.05" stroke-opacity=".48" stroke-width=".512" rx="7.936"/><rect width="22.527" height="22.527" x="99.835" y="278.516" fill="#fff" fill-opacity=".08" rx="4.096"/><path fill="#fff" d="M112.015 292.279v-1.335h-2.72v-1.065l2.376-3.58h.704l-2.425 3.728v.327h2.065v-1.515h.647v3.44zM132.078 292.279v-2.261c-.484.148-.885.222-1.27.222-1.196 0-1.778-.59-1.778-1.803v-1.892h1.082v1.712c0 .77.253 1.049.95 1.049.319 0 .622-.066 1.016-.205v-2.556h1.064v5.734zm4.131.074c-1.253 0-2.088-.844-2.088-2.097v-.164c0-1.27.835-2.146 2.064-2.146h.082c1.13 0 1.917.803 1.917 1.966v.549h-3.056v.008c.058.631.492 1.032 1.147 1.032h.082c.508 0 .885-.237 1.139-.549l.557.615c-.402.483-1.049.786-1.737.786zm-1.064-2.572h2.064v-.025c-.025-.622-.402-1.015-.959-1.015h-.073c-.557 0-.934.393-1.032 1.04m3.886 2.498v-4.259h1.016v1.794h.065l1.565-1.794h1.138l-1.794 1.974 1.852 2.285h-1.221l-1.54-2.015h-.065v2.015zm6.632 0v-4.259h2.637v.835h-1.622v3.424zm5.018.074c-1.237 0-2.097-.86-2.097-2.081v-.245c0-1.221.86-2.081 2.097-2.081h.082c1.237 0 2.097.86 2.097 2.081v.245c0 1.221-.86 2.081-2.097 2.081zm.008-.811h.066c.639 0 1.048-.524 1.048-1.311v-.196c0-.77-.418-1.278-1.048-1.278h-.066c-.631 0-1.048.508-1.048 1.278v.196c0 .787.409 1.311 1.048 1.311m3.783.737v-3.424h-1.196v-.835h3.408v.835h-1.196v3.424zm4.737.074c-1.237 0-2.097-.86-2.097-2.081v-.245c0-1.221.86-2.081 2.097-2.081h.082c1.236 0 2.097.86 2.097 2.081v.245c0 1.221-.861 2.081-2.097 2.081zm.008-.811h.065c.639 0 1.049-.524 1.049-1.311v-.196c0-.77-.418-1.278-1.049-1.278h-.065c-.631 0-1.049.508-1.049 1.278v.196c0 .787.41 1.311 1.049 1.311m3.029.737v-4.259h2.081c.778 0 1.302.434 1.302 1.081v.139c0 .336-.18.623-.467.819.418.181.672.525.672.934v.139c0 .689-.565 1.147-1.417 1.147zm.966-2.498h.811c.394 0 .623-.18.623-.483v-.058c0-.311-.221-.491-.614-.491h-.82zm0 1.769h.951c.417 0 .68-.205.68-.516v-.082c0-.319-.254-.516-.672-.516h-.959zm3.45.729v-4.259h.999v2.711h.066l1.679-2.711h1.114v4.259h-.991v-2.94h-.074l-1.81 2.94zm5.573-5.906h.852c0 .303.188.5.507.5.312 0 .5-.197.5-.5h.852c0 .713-.532 1.18-1.352 1.18-.827 0-1.359-.467-1.359-1.18m-.566 5.906v-4.259h1v2.711h.065l1.68-2.711h1.114v4.259h-.992v-2.94h-.073l-1.811 2.94z"/><g filter="url(#e)"><rect width="12.287" height="12.287" x="164.856" y="264.18" fill="#05bc17" rx="3.072" shape-rendering="crispEdges"/><g clip-path="url(#f)"><path stroke="#fff" stroke-width=".819" d="m168.888 270.708 1.344 1.344 3.072-3.072"/></g></g><rect width="158.713" height="38.91" x="183.287" y="333.809" fill="#000" rx="8.192"/><rect width="158.201" height="38.398" x="183.543" y="334.065" stroke="#fff" stroke-dasharray="0.51 2.05" stroke-opacity=".48" stroke-width=".512" rx="7.936"/><rect width="22.527" height="22.527" x="191.479" y="342" fill="#fff" fill-opacity=".08" rx="4.096"/><g stroke="#fff" stroke-linecap="square" stroke-linejoin="round" stroke-width="1.024" clip-path="url(#g)"><path d="M200.023 349.904h6.399M199.383 351.664h4.799M200.663 353.424h3.519M202.902 355.184h1.6M202.583 356.943h.639"/></g><path fill="#fff" d="M223.189 350.83c-1.614 0-2.712-1.171-2.712-2.883v-.156c0-1.687 1.123-2.875 2.695-2.875h.058c.909 0 1.736.459 2.195 1.229l-.819.581c-.287-.524-.746-.843-1.352-.843h-.073c-.942 0-1.59.753-1.59 1.908v.164c0 1.155.648 1.909 1.606 1.909h.082c.606 0 1.073-.336 1.36-.844l.794.59c-.45.77-1.253 1.22-2.179 1.22zm4.728-.016c-1.253 0-2.089-.844-2.089-2.097v-.164c0-1.27.836-2.146 2.065-2.146h.082c1.13 0 1.916.803 1.916 1.966v.549h-3.055v.008c.057.631.491 1.032 1.147 1.032h.082c.507 0 .884-.238 1.138-.549l.557.615c-.401.483-1.048.786-1.736.786zm-1.065-2.572h2.065v-.025c-.025-.622-.402-1.016-.959-1.016h-.074c-.557 0-.933.394-1.032 1.041m3.895 4.137v-5.898h.803c.041.122.09.335.106.507.336-.368.811-.581 1.368-.581h.066c1.122 0 1.884.852 1.884 2.081v.245c0 1.229-.762 2.081-1.884 2.081h-.066c-.508 0-.942-.18-1.261-.492v2.057zm2.056-2.376h.074c.622 0 1.048-.516 1.048-1.311v-.196c0-.77-.426-1.278-1.048-1.278h-.074c-.631 0-1.049.508-1.049 1.278v.196c0 .795.418 1.311 1.049 1.311m3.039.737v-4.259h2.081c.778 0 1.303.434 1.303 1.081v.139c0 .336-.181.623-.467.819.417.181.671.525.671.934v.139c0 .689-.565 1.147-1.417 1.147zm.967-2.498h.811c.393 0 .623-.18.623-.484v-.057c0-.311-.222-.491-.615-.491h-.819zm0 1.769h.95c.418 0 .68-.205.68-.516v-.082c0-.319-.254-.516-.672-.516h-.958zm3.957-4.104c-.352 0-.598-.229-.598-.549 0-.327.254-.557.598-.557.36 0 .623.23.623.557 0 .32-.254.549-.623.549m-.508 4.833v-4.259h1.016v4.259zm3.946.066c-1.221 0-2.064-.869-2.064-2.089v-.229c0-1.213.86-2.073 2.039-2.073h.066c.737 0 1.368.344 1.769.983l-.737.492c-.246-.451-.582-.656-1.008-.656h-.065c-.623 0-1.008.484-1.008 1.286v.181c0 .778.418 1.277 1.049 1.277h.074c.401 0 .729-.221.974-.663l.738.524c-.41.631-1.008.967-1.753.967zm2.574-.066v-4.259h1.016v1.622h1.769v-1.622h1.016v4.259h-1.016v-1.818h-1.769v1.818zm5.452-4.833c-.353 0-.598-.229-.598-.549 0-.327.253-.557.598-.557.36 0 .622.23.622.557 0 .32-.254.549-.622.549m-.508 4.833v-4.259h1.015v4.259zm6.662 0v-1.589a3.3 3.3 0 0 1-1.057.197c-.942 0-1.425-.5-1.425-1.368v-1.499h.999v1.368c0 .458.189.671.623.671.303 0 .598-.057.86-.164v-1.875h1.016v4.259zm3.972.074c-1.254 0-2.089-.844-2.089-2.097v-.164c0-1.27.835-2.146 2.064-2.146h.082c1.13 0 1.917.803 1.917 1.966v.549h-3.056v.008c.058.631.492 1.032 1.147 1.032h.082c.508 0 .885-.238 1.139-.549l.557.615c-.402.483-1.049.786-1.737.786zm-1.065-2.572h2.064v-.025c-.025-.622-.401-1.016-.958-1.016h-.074c-.557 0-.934.394-1.032 1.041m3.886 2.498v-4.259h1.016v1.794h.065l1.565-1.794h1.139l-1.794 1.974 1.851 2.285h-1.221l-1.54-2.015h-.065v2.015zm4.456 0v-4.259h.999v2.711h.066l1.679-2.711h1.114v4.259h-.991v-2.941h-.074l-1.81 2.941z"/><path fill="#fff" fill-opacity=".55" d="M220.672 361.789v-4.485h1.321q.64 0 1.001.307.363.308.363.848 0 .307-.135.535a.9.9 0 0 1-.363.344 1.16 1.16 0 0 1-.547.123v-.062q.339-.006.596.129a.95.95 0 0 1 .406.387q.147.258.147.615 0 .381-.172.669-.165.283-.479.436a1.6 1.6 0 0 1-.731.154zm.645-.571h.706q.357 0 .566-.191.209-.19.209-.528a.75.75 0 0 0-.209-.553q-.21-.209-.566-.209h-.706zm0-2.034h.67q.332 0 .522-.178a.63.63 0 0 0 .19-.479q0-.302-.19-.473-.19-.178-.516-.178h-.676zm2.738 2.605v-3.379h.663v1.358h1.303v-1.358h.663v3.379h-.663v-1.413h-1.303v1.413zm4.691.061q-.411 0-.725-.159a1.17 1.17 0 0 1-.473-.461 1.4 1.4 0 0 1-.166-.688v-.885q0-.399.166-.688.166-.295.473-.455.314-.165.725-.165.418 0 .725.165.307.16.473.455.166.29.166.688v.602h-2.089v.283q0 .375.184.571.191.197.547.197a1 1 0 0 0 .467-.098.45.45 0 0 0 .221-.301h.658a1.02 1.02 0 0 1-.443.688q-.368.252-.909.251m.725-1.99v-.209q0-.369-.184-.571-.184-.203-.541-.203-.35 0-.541.203-.184.202-.184.577v.154l1.499-.006zm2.67 1.99q-.417 0-.737-.153a1.15 1.15 0 0 1-.485-.455 1.4 1.4 0 0 1-.166-.7v-.885q0-.406.166-.7.171-.295.485-.449.32-.159.737-.159.609 0 .977.319.369.32.387.872h-.663a.62.62 0 0 0-.203-.448q-.185-.16-.498-.16-.337 0-.534.191-.197.184-.197.528v.891q0 .343.197.534.197.19.534.191.314 0 .498-.16a.62.62 0 0 0 .203-.448h.663q-.018.552-.387.872-.368.32-.977.319m3.358 0q-.411 0-.725-.159a1.17 1.17 0 0 1-.473-.461 1.4 1.4 0 0 1-.166-.688v-.885q0-.399.166-.688.167-.295.473-.455.314-.165.725-.165.419 0 .725.165.308.16.473.455.166.29.166.688v.602h-2.089v.283q0 .375.185.571.19.197.546.197a.97.97 0 0 0 .467-.098.45.45 0 0 0 .222-.301h.657a1.03 1.03 0 0 1-.442.688q-.369.252-.91.251m.725-1.99v-.209q0-.369-.184-.571-.184-.203-.541-.203-.35 0-.54.203-.185.202-.185.577v.154l1.499-.006zm1.337 1.929v-3.379h.664v1.358h1.302v-1.358h.664v3.379h-.664v-1.413h-1.302v1.413zm3.377 0v-3.379h.663v1.358h1.303v-1.358h.663v3.379h-.663v-1.413h-1.303v1.413zm3.198 0 .83-1.266a1.1 1.1 0 0 1-.578-.368 1.03 1.03 0 0 1-.203-.645q0-.516.345-.805.343-.295.94-.295h1.474v3.379h-.657v-1.204h-.645l-.744 1.204zm1.352-1.757h.799v-1.057h-.799q-.295 0-.467.142a.47.47 0 0 0-.166.387q0 .252.166.393.172.135.467.135m6.895.276a.737.737 0 0 1-.762-.761q0-.339.215-.547a.74.74 0 0 1 .547-.215q.338 0 .546.215a.73.73 0 0 1 .215.547.736.736 0 0 1-.761.761m5.432 1.481v-3.379h1.487q.552 0 .866.24t.313.663q0 .35-.252.559t-.663.209v-.055q.448 0 .719.221a.7.7 0 0 1 .276.577q0 .455-.325.713-.327.252-.897.252zm.651-.534h.86q.271 0 .424-.123a.4.4 0 0 0 .16-.338.4.4 0 0 0-.16-.344q-.153-.129-.424-.129h-.86zm0-1.426h.836a.6.6 0 0 0 .387-.117.4.4 0 0 0 .141-.325.4.4 0 0 0-.141-.32.57.57 0 0 0-.387-.122h-.836zm2.732 1.96v-3.379h.608v1.751q0 .173-.012.381-.013.202-.031.399-.018.19-.037.332l1.272-2.863h.829v3.379h-.608v-1.751q0-.172.012-.369a11 11 0 0 1 .068-.706l-1.272 2.826zm2.995.043v-.608h.129q.246 0 .357-.197.117-.196.123-.663l.037-1.954h2.365v3.379h-.664v-2.771h-1.05l-.031 1.383a2.4 2.4 0 0 1-.135.804.9.9 0 0 1-.356.473q-.24.154-.603.154zm4.286 1.063.486-1.303-1.26-3.182h.731l.707 1.905q.043.122.086.294t.074.283q.024-.11.067-.283.044-.172.086-.294l.664-1.905h.706l-1.646 4.485zm4.784-1.106v-1.186a2 2 0 0 1-.283.049 4 4 0 0 1-.393.019q-.64.006-1.001-.313-.357-.32-.357-.885v-1.063h.664v1.044q0 .289.196.455.198.166.547.166.228 0 .393-.018.173-.025.234-.043v-1.604h.663v3.379zm2.756.061q-.411 0-.725-.159a1.17 1.17 0 0 1-.473-.461 1.4 1.4 0 0 1-.166-.688v-.885q0-.399.166-.688.166-.295.473-.455.314-.165.725-.165.418 0 .725.165.307.16.473.455.166.29.166.688v.602h-2.089v.283q0 .375.184.571.191.197.547.197a1 1 0 0 0 .467-.098.45.45 0 0 0 .221-.301h.658a1.02 1.02 0 0 1-.443.688q-.368.252-.909.251m.725-1.99v-.209q0-.369-.184-.571-.184-.203-.541-.203-.35 0-.541.203-.184.202-.184.577v.154l1.499-.006zm1.337 1.929v-3.379h.663v1.358h1.303v-1.358h.663v3.379h-.663v-1.413h-1.303v1.413zm3.377 0v-3.379h.663v1.358h1.303v-1.358h.663v3.379h-.663v-1.413h-1.303v1.413zm3.198 0 .829-1.266a1.1 1.1 0 0 1-.577-.368 1.03 1.03 0 0 1-.203-.645q0-.516.344-.805.345-.295.94-.295h1.475v3.379h-.658v-1.204h-.645l-.743 1.204zm1.352-1.757h.798v-1.057h-.798q-.296 0-.467.142a.47.47 0 0 0-.166.387q0 .252.166.393.171.135.467.135m5.825 1.757v-3.379h2.47v.608h-1.812v2.771zm4.446.055q-.418 0-.725-.159a1.12 1.12 0 0 1-.473-.455 1.4 1.4 0 0 1-.166-.694v-.873q0-.405.166-.694.165-.295.473-.455.307-.159.725-.159.417 0 .725.159.307.16.473.455.166.29.166.694v.873q0 .399-.166.694a1.13 1.13 0 0 1-.473.455 1.56 1.56 0 0 1-.725.159m0-.583q.337 0 .522-.185.184-.19.184-.54v-.873q0-.356-.184-.54-.185-.185-.522-.185-.332 0-.522.185-.185.184-.185.54v.873q0 .35.185.54.19.185.522.185m3.045.528v-2.783h-1.192v-.596h3.047v.596h-1.192v2.783zm2.363 0v-.602h1.185v-2.175h-1.032v-.602h1.678v2.777h1.087v.602zm1.443-3.963a.5.5 0 0 1-.344-.11.4.4 0 0 1-.129-.307q0-.197.129-.308a.5.5 0 0 1 .344-.116q.216 0 .345.116a.39.39 0 0 1 .129.308.4.4 0 0 1-.129.307.5.5 0 0 1-.345.11m1.958 3.963v-3.379h1.487q.552 0 .866.24t.313.663q0 .35-.252.559t-.663.209v-.055q.448 0 .719.221a.7.7 0 0 1 .276.577q0 .455-.325.713-.327.252-.897.252zm.651-.534h.86q.27 0 .424-.123a.4.4 0 0 0 .16-.338.4.4 0 0 0-.16-.344q-.154-.129-.424-.129h-.86zm0-1.426h.836a.6.6 0 0 0 .387-.117.4.4 0 0 0 .141-.325.4.4 0 0 0-.141-.32.57.57 0 0 0-.387-.122h-.836zm2.75 1.96v-3.379h.664v1.358h.54l.897-1.358h.75l-1.075 1.622 1.093 1.757h-.762l-.903-1.45h-.54v1.45zm3.358 0v-3.379h.609v1.751q0 .173-.013.381a12 12 0 0 1-.067.731l1.271-2.863h.83v3.379h-.608v-1.751q0-.172.012-.369a9 9 0 0 1 .068-.706l-1.272 2.826z"/><rect width="158.713" height="38.91" x="91.644" y="397.295" fill="#000" rx="8.192"/><rect width="158.201" height="38.398" x="91.9" y="397.551" stroke="#fff" stroke-dasharray="0.51 2.05" stroke-opacity=".48" stroke-width=".512" rx="7.936"/><rect width="22.527" height="22.527" x="99.835" y="405.486" fill="#fff" fill-opacity=".08" rx="4.096"/><g stroke="#fff" stroke-linejoin="round" stroke-width="1.024" clip-path="url(#h)"><path d="m113.979 413.871-5.76 5.76M113.979 419.631l-5.76-5.76"/></g><path fill="#fff" d="M131.045 419.34c-1.007 0-1.802-.467-2.326-1.286l.893-.532c.336.598.786.876 1.384.876.647 0 1.049-.319 1.049-.835v-.025c0-.516-.361-.803-.967-.803h-.704v-.827h.524c.549 0 .876-.295.876-.778v-.025c0-.434-.344-.729-.868-.729-.491 0-.901.279-1.155.77l-.901-.524c.483-.762 1.245-1.204 2.146-1.204 1.057 0 1.843.622 1.843 1.474v.066c0 .516-.262.95-.688 1.237.59.253.991.794.991 1.458v.057c0 .942-.892 1.63-2.097 1.63m4.173-.008c-.836 0-1.417-.5-1.417-1.262v-.073c0-.918.778-1.377 2.408-1.377h.336v-.188c0-.426-.27-.688-.795-.688h-.04c-.418 0-.877.139-1.287.426l-.417-.721c.516-.336 1.138-.549 1.769-.549h.074c1.032 0 1.663.582 1.663 1.548v1.925c0 .295.073.598.147.877h-.966a3 3 0 0 1-.107-.491c-.36.368-.844.573-1.368.573m.213-.819a1.46 1.46 0 0 0 1.114-.525v-.712h-.246c-1.048 0-1.515.213-1.515.663v.041c0 .32.262.533.647.533m3.208.737v-4.26h1.016v1.794h.065l1.565-1.794h1.139l-1.794 1.975 1.851 2.285h-1.221l-1.54-2.015h-.065v2.015zm4.464 1.638v-5.898h.803a2.6 2.6 0 0 1 .106.508c.336-.368.811-.581 1.368-.581h.066c1.122 0 1.884.852 1.884 2.08v.246c0 1.229-.762 2.081-1.884 2.081h-.066c-.508 0-.942-.18-1.261-.492v2.056zm2.056-2.375h.074c.622 0 1.048-.516 1.048-1.311v-.197c0-.77-.426-1.277-1.048-1.277h-.074c-.631 0-1.048.507-1.048 1.277v.197c0 .795.417 1.311 1.048 1.311m3.04.737v-4.26h.999v2.712h.065l1.68-2.712h1.114v4.26h-.991v-2.941h-.074l-1.81 2.941zm5.761 0v-3.424h-1.196v-.836h3.408v.836h-1.196v3.424zm3.672 0v-3.424h-1.196v-.836h3.407v.836h-1.195v3.424zm2.566 0 .942-1.614c-.467-.213-.787-.631-.787-1.163v-.147c0-.787.607-1.336 1.467-1.336h1.998v4.26h-.966v-1.45h-.778l-.803 1.45zm1.794-2.195h.868v-1.286h-.868c-.385 0-.647.229-.647.581v.09c0 .353.27.615.647.615m6.567 2.269c-.778 0-1.409-.328-1.819-1l.754-.483c.237.434.581.639 1.04.639h.074c.426 0 .696-.205.696-.5v-.057c0-.328-.237-.5-.655-.5h-.557v-.688h.508c.336 0 .54-.18.54-.467v-.057c0-.287-.229-.459-.589-.459h-.066c-.426 0-.745.23-.934.598l-.721-.565c.377-.524.983-.868 1.762-.868h.073c.819 0 1.467.467 1.467 1.122v.09c0 .344-.197.647-.516.868.425.205.696.557.696 1.008v.082c0 .721-.705 1.237-1.671 1.237zm2.582-.074v-4.26h1.115l1.13 2.499h.065l1.131-2.499h1.106v4.26h-.975v-2.679h-.066l-.942 1.983h-.581l-.942-1.974h-.066v2.67zm6.204-4.833c-.352 0-.598-.229-.598-.549 0-.328.254-.557.598-.557.361 0 .623.229.623.557 0 .32-.254.549-.623.549m-.508 4.833v-4.26h1.016v4.26zm2.16 0v-4.26h1.016v1.622h1.769v-1.622h1.016v4.26h-1.016v-1.819h-1.769v1.819zm4.944 0v-4.26h.999v2.712h.066l1.679-2.712h1.114v4.26h-.991v-2.941h-.074l-1.81 2.941z"/><rect width="158.713" height="38.91" y="333.809" fill="#000" rx="8.192"/><rect width="158.201" height="38.398" x=".256" y="334.065" stroke="#fff" stroke-dasharray="0.51 2.05" stroke-opacity=".48" stroke-width=".512" rx="7.936"/><rect width="22.527" height="22.527" x="8.192" y="342" fill="#fff" fill-opacity=".08" rx="4.096"/><g stroke="#fff" stroke-width="1.024" clip-path="url(#i)"><path stroke-linecap="square" stroke-linejoin="round" d="M22.975 356.783h-7.04"/><path stroke-linecap="round" d="M22.527 351.024h-2.048v4.16h2.048zM18.431 349.424h-2.048v5.76h2.048z"/></g><path fill="#fff" d="M39.402 350.83c-1.008 0-1.803-.467-2.327-1.286l.893-.532c.336.598.786.876 1.384.876.648 0 1.05-.319 1.05-.835v-.025c0-.516-.361-.803-.968-.803h-.704v-.827h.524c.55 0 .877-.295.877-.778v-.025c0-.434-.344-.729-.869-.729-.491 0-.9.279-1.155.77l-.9-.524c.483-.762 1.244-1.204 2.145-1.204 1.057 0 1.844.622 1.844 1.474v.066c0 .516-.262.95-.688 1.237.59.254.99.794.99 1.458v.057c0 .942-.892 1.63-2.096 1.63m3.026-.09v-4.259h2.08c.778 0 1.303.434 1.303 1.081v.139c0 .336-.18.623-.467.819.417.181.671.525.671.934v.139c0 .689-.565 1.147-1.417 1.147zm.966-2.498h.811c.393 0 .623-.18.623-.484v-.057c0-.311-.222-.491-.615-.491h-.819zm0 1.769h.95c.418 0 .68-.205.68-.516v-.082c0-.319-.254-.516-.672-.516h-.958zm3.957-4.104c-.352 0-.598-.229-.598-.549 0-.327.254-.557.598-.557.36 0 .623.23.623.557 0 .32-.254.549-.623.549m-.508 4.833v-4.259h1.016v4.259zm2.914 0v-3.424H48.56v-.835h3.407v.835h-1.196v3.424zm2.918 0v-4.259h1v2.711h.065l1.68-2.711h1.113v4.259h-.991v-2.941h-.074l-1.81 2.941z"/><path fill="#fff" fill-opacity=".55" d="m37.071 361.789 1.266-2.285-1.192-2.2h.75l.626 1.223.11.233.087.178q.024-.061.08-.178l.11-.233.64-1.223h.718l-1.192 2.175 1.266 2.31h-.75l-.694-1.327a7 7 0 0 1-.117-.233l-.086-.191a2 2 0 0 1-.08.184l-.11.234-.707 1.333zm4.028-1.726v-.602h1.966v.602zm4.194 1.769q-.54 0-.891-.24a.99.99 0 0 1-.424-.657h.676q.042.147.215.246a.9.9 0 0 0 .424.092h.307q.277 0 .43-.129a.42.42 0 0 0 .154-.338.43.43 0 0 0-.154-.344q-.148-.129-.43-.129h-.756v-.541h.731q.258 0 .394-.116a.42.42 0 0 0 .135-.326q0-.135-.062-.227a.34.34 0 0 0-.172-.148.7.7 0 0 0-.288-.049h-.301a.7.7 0 0 0-.394.105.4.4 0 0 0-.196.251h-.676a1 1 0 0 1 .411-.657q.351-.258.855-.258h.3q.375 0 .646.117a.9.9 0 0 1 .411.319.83.83 0 0 1 .148.492.68.68 0 0 1-.215.516q-.216.196-.59.209.443.024.663.239.222.21.222.59a.87.87 0 0 1-.344.719q-.345.264-.922.264zm2.221-.043v-3.379h1.487q.553 0 .867.24a.79.79 0 0 1 .313.663q0 .35-.252.559t-.664.209v-.055q.45 0 .72.221a.7.7 0 0 1 .276.577q0 .455-.326.713-.326.252-.897.252zm.652-.534h.86q.27 0 .424-.123a.4.4 0 0 0 .16-.338.41.41 0 0 0-.16-.344q-.154-.129-.424-.129h-.86zm0-1.426H49a.6.6 0 0 0 .387-.117.4.4 0 0 0 .142-.325.4.4 0 0 0-.142-.32.57.57 0 0 0-.387-.122h-.835zm2.7 1.96v-.602h1.186v-2.175H51.02v-.602h1.677v2.777h1.088v.602zm1.444-3.963a.5.5 0 0 1-.344-.11.4.4 0 0 1-.129-.307q0-.197.13-.308a.5.5 0 0 1 .343-.116q.216 0 .344.116a.39.39 0 0 1 .13.308.4.4 0 0 1-.13.307.5.5 0 0 1-.344.11m2.947 3.963v-2.783h-1.192v-.596h3.047v.596H55.92v2.783zm7.085-1.481a.74.74 0 0 1-.547-.215.74.74 0 0 1-.215-.546q0-.339.215-.547a.74.74 0 0 1 .547-.215q.337 0 .547.215a.73.73 0 0 1 .215.547.74.74 0 0 1-.215.546.73.73 0 0 1-.547.215m5.414 1.481v-.645l1.91-3.232h-1.873v-.608h2.58v.645l-1.91 3.232h1.972v.608zm3.733-1.726v-.602h1.966v.602zm4.194 1.769q-.54 0-.891-.24a.99.99 0 0 1-.424-.657h.676q.042.147.215.246a.9.9 0 0 0 .424.092h.307q.276 0 .43-.129a.42.42 0 0 0 .153-.338.43.43 0 0 0-.153-.344q-.148-.129-.43-.129h-.756v-.541h.731q.258 0 .393-.116a.42.42 0 0 0 .135-.326q0-.135-.06-.227a.34.34 0 0 0-.173-.148.7.7 0 0 0-.289-.049h-.3a.7.7 0 0 0-.394.105.4.4 0 0 0-.197.251h-.675a1 1 0 0 1 .411-.657q.35-.258.854-.258h.301q.375 0 .645.117a.9.9 0 0 1 .412.319.83.83 0 0 1 .147.492.68.68 0 0 1-.215.516q-.215.196-.59.209.444.024.664.239.221.21.221.59a.87.87 0 0 1-.344.719q-.343.264-.921.264zm2.221-.043v-3.379h1.487q.553 0 .866.24a.79.79 0 0 1 .314.663q0 .35-.252.559t-.664.209v-.055q.45 0 .719.221a.7.7 0 0 1 .276.577q0 .455-.325.713-.325.252-.897.252zm.651-.534h.86q.27 0 .424-.123a.4.4 0 0 0 .16-.338.41.41 0 0 0-.16-.344q-.153-.129-.423-.129h-.86zm0-1.426h.836a.6.6 0 0 0 .387-.117.4.4 0 0 0 .141-.325.4.4 0 0 0-.141-.32.57.57 0 0 0-.387-.122h-.836zm2.701 1.96v-.602h1.186v-2.175H81.41v-.602h1.677v2.777h1.087v.602zm1.444-3.963a.5.5 0 0 1-.344-.11.4.4 0 0 1-.129-.307q0-.197.129-.308a.5.5 0 0 1 .344-.116q.215 0 .344.116a.39.39 0 0 1 .13.308.4.4 0 0 1-.13.307.5.5 0 0 1-.344.11m2.947 3.963v-2.783h-1.192v-.596h3.047v.596H86.31v2.783z"/><rect width="158.713" height="38.91" x="91.644" y="206.84" fill="#000" rx="8.192"/><rect width="158.201" height="38.398" x="91.9" y="207.096" stroke="#fff" stroke-dasharray="0.51 2.05" stroke-opacity=".48" stroke-width=".512" rx="7.936"/><rect width="22.527" height="22.527" x="99.835" y="215.031" fill="#fff" fill-opacity=".08" rx="4.096"/><path fill="#fff" d="M110.966 228.877q-.524 0-.925-.213a1.56 1.56 0 0 1-.615-.59 1.8 1.8 0 0 1-.213-.893h.656q0 .525.294.819.295.295.811.295.525 0 .811-.303.295-.311.295-.811v-.475q0-.532-.295-.819-.286-.295-.811-.295h-.565v-.639l1.507-1.548h-2.465v-.59h3.121v.647l-1.589 1.639v-.082q.803 0 1.277.458.476.451.476 1.229v.475q0 .508-.222.893a1.55 1.55 0 0 1-.622.59 1.9 1.9 0 0 1-.926.213M131.545 228.885c-1.614 0-2.711-1.171-2.711-2.883v-.156c0-1.688 1.122-2.875 2.695-2.875h.057a2.53 2.53 0 0 1 2.195 1.228l-.819.582c-.286-.524-.745-.844-1.351-.844h-.074c-.942 0-1.589.754-1.589 1.909v.164c0 1.155.647 1.908 1.605 1.908h.082c.606 0 1.073-.335 1.36-.843l.795.589c-.451.77-1.254 1.221-2.179 1.221zm3.784-.09v-3.424h-1.196v-.836h3.408v.836h-1.196v3.424zm2.918 0v-4.26h2.081c.778 0 1.302.434 1.302 1.082v.139c0 .336-.18.622-.467.819.418.18.672.524.672.934v.139c0 .688-.565 1.147-1.417 1.147zm.967-2.499h.811c.393 0 .622-.18.622-.483v-.057c0-.311-.221-.492-.614-.492h-.819zm0 1.77h.95c.418 0 .68-.205.68-.516v-.082c0-.32-.254-.516-.672-.516h-.958zm5.267.803c-1.237 0-2.097-.86-2.097-2.081v-.246c0-1.22.86-2.08 2.097-2.08h.082c1.237 0 2.097.86 2.097 2.08v.246c0 1.221-.86 2.081-2.097 2.081zm.009-.811h.065c.639 0 1.049-.525 1.049-1.311v-.197c0-.77-.418-1.277-1.049-1.277h-.065c-.631 0-1.049.507-1.049 1.277v.197c0 .786.41 1.311 1.049 1.311m3.037 2.375v-5.898h.803c.04.123.09.336.106.508.336-.368.811-.581 1.368-.581h.066c1.122 0 1.884.851 1.884 2.08v.246c0 1.229-.762 2.081-1.884 2.081h-.066a1.77 1.77 0 0 1-1.261-.492v2.056zm2.056-2.375h.074c.622 0 1.048-.516 1.048-1.311v-.197c0-.77-.426-1.277-1.048-1.277h-.074c-.631 0-1.049.507-1.049 1.277v.197c0 .795.418 1.311 1.049 1.311m4.85.811c-1.254 0-2.089-.844-2.089-2.097v-.164c0-1.27.835-2.146 2.064-2.146h.082c1.13 0 1.917.802 1.917 1.966v.548h-3.056v.009c.058.63.492 1.032 1.147 1.032h.082c.508 0 .885-.238 1.139-.549l.557.614c-.402.484-1.049.787-1.737.787zm-1.065-2.573h2.064v-.024c-.025-.623-.401-1.016-.958-1.016h-.074c-.557 0-.934.393-1.032 1.04m3.886 2.499v-4.26h1.016v1.622h1.769v-1.622h1.016v4.26h-1.016v-1.819h-1.769v1.819zm4.944 0v-4.26h1.016v1.622h1.769v-1.622h1.016v4.26h-1.016v-1.819h-1.769v1.819zm4.591 0 .942-1.614c-.466-.213-.786-.631-.786-1.163v-.147c0-.787.606-1.336 1.466-1.336h1.999v4.26h-.967v-1.45h-.778l-.802 1.45zm1.794-2.195h.869v-1.287h-.869c-.385 0-.647.23-.647.582v.09c0 .352.271.615.647.615m7.477 2.195v-1.589a3.3 3.3 0 0 1-1.057.196c-.942 0-1.425-.499-1.425-1.368v-1.499h.999v1.368c0 .459.188.672.623.672.303 0 .598-.057.86-.164v-1.876h1.016v4.26zm3.971.074c-1.253 0-2.088-.844-2.088-2.097v-.164c0-1.27.835-2.146 2.064-2.146h.082c1.13 0 1.917.802 1.917 1.966v.548h-3.056v.009c.058.63.492 1.032 1.147 1.032h.082c.508 0 .885-.238 1.139-.549l.557.614c-.402.484-1.049.787-1.737.787zm-1.064-2.573h2.064v-.024c-.025-.623-.402-1.016-.959-1.016h-.073c-.557 0-.934.393-1.032 1.04m3.886 2.499v-4.26h1.016v1.794h.065l1.565-1.794h1.138l-1.794 1.974 1.852 2.286h-1.221l-1.54-2.015h-.065v2.015zm5.523.082c-.836 0-1.418-.5-1.418-1.262v-.073c0-.918.779-1.377 2.409-1.377h.336v-.188c0-.426-.271-.688-.795-.688h-.041c-.418 0-.876.139-1.286.426l-.418-.721c.516-.336 1.139-.549 1.77-.549h.073c1.032 0 1.663.582 1.663 1.548v1.925c0 .295.074.598.148.877h-.967a3 3 0 0 1-.106-.492 1.9 1.9 0 0 1-1.368.574m.213-.819c.434 0 .835-.197 1.114-.525v-.712h-.246c-1.049 0-1.516.213-1.516.663v.041c0 .32.263.533.648.533"/><g fill="#fff" filter="url(#j)"><path fill-rule="evenodd" d="M186.871 493.546h-32.766v-32.767h32.766zm-27.305-27.306v21.845h21.844V466.24z" clip-rule="evenodd"/><path d="M163.662 470.336h13.653v13.653z"/></g><defs><clipPath id="b"><path fill="#fff" d="M167.928 13.313h6.144v6.143h-6.144z"/></clipPath><clipPath id="d"><path fill="#fff" d="M167.928 140.283h6.144v6.144h-6.144z"/></clipPath><clipPath id="f"><path fill="#fff" d="M167.928 267.252h6.144v6.144h-6.144z"/></clipPath><clipPath id="g"><path fill="#fff" d="M197.623 348.145h10.239v10.239h-10.239z"/></clipPath><clipPath id="h"><path fill="#fff" d="M105.979 411.631h10.239v10.239h-10.239z"/></clipPath><clipPath id="i"><path fill="#fff" d="M14.335 348.145h10.24v10.239h-10.24z"/></clipPath><filter id="a" width="32.767" height="32.766" x="154.617" y=".001" color-interpolation-filters="sRGB" filterUnits="userSpaceOnUse"><feFlood flood-opacity="0" result="BackgroundImageFix"/><feColorMatrix in="SourceAlpha" result="hardAlpha" values="0 0 0 0 0 0 0 0 0 0 0 0 0 0 0 0 0 0 127 0"/><feOffset/><feGaussianBlur stdDeviation="5.12"/><feComposite in2="hardAlpha" operator="out"/><feColorMatrix values="0 0 0 0 0.192157 0 0 0 0 0.352941 0 0 0 0 1 0 0 0 1 0"/><feBlend in2="BackgroundImageFix" result="effect1_dropShadow_10755_6735"/><feBlend in="SourceGraphic" in2="effect1_dropShadow_10755_6735" result="shape"/></filter><filter id="c" width="32.767" height="32.766" x="154.617" y="126.971" color-interpolation-filters="sRGB" filterUnits="userSpaceOnUse"><feFlood flood-opacity="0" result="BackgroundImageFix"/><feColorMatrix in="SourceAlpha" result="hardAlpha" values="0 0 0 0 0 0 0 0 0 0 0 0 0 0 0 0 0 0 127 0"/><feOffset/><feGaussianBlur stdDeviation="5.12"/><feComposite in2="hardAlpha" operator="out"/><feColorMatrix values="0 0 0 0 1 0 0 0 0 1 0 0 0 0 1 0 0 0 0.48 0"/><feBlend in2="BackgroundImageFix" result="effect1_dropShadow_10755_6735"/><feBlend in="SourceGraphic" in2="effect1_dropShadow_10755_6735" result="shape"/></filter><filter id="e" width="32.767" height="32.766" x="154.617" y="253.94" color-interpolation-filters="sRGB" filterUnits="userSpaceOnUse"><feFlood flood-opacity="0" result="BackgroundImageFix"/><feColorMatrix in="SourceAlpha" result="hardAlpha" values="0 0 0 0 0 0 0 0 0 0 0 0 0 0 0 0 0 0 127 0"/><feOffset/><feGaussianBlur stdDeviation="5.12"/><feComposite in2="hardAlpha" operator="out"/><feColorMatrix values="0 0 0 0 0.0196078 0 0 0 0 0.737255 0 0 0 0 0.0901961 0 0 0 1 0"/><feBlend in2="BackgroundImageFix" result="effect1_dropShadow_10755_6735"/><feBlend in="SourceGraphic" in2="effect1_dropShadow_10755_6735" result="shape"/></filter><filter id="j" width="65.533" height="65.532" x="137.722" y="444.396" color-interpolation-filters="sRGB" filterUnits="userSpaceOnUse"><feFlood flood-opacity="0" result="BackgroundImageFix"/><feColorMatrix in="SourceAlpha" result="hardAlpha" values="0 0 0 0 0 0 0 0 0 0 0 0 0 0 0 0 0 0 127 0"/><feOffset/><feGaussianBlur stdDeviation="8.192"/><feComposite in2="hardAlpha" operator="out"/><feColorMatrix values="0 0 0 0 1 0 0 0 0 1 0 0 0 0 1 0 0 0 0.4 0"/><feBlend in2="BackgroundImageFix" result="effect1_dropShadow_10755_6735"/><feBlend in="SourceGraphic" in2="effect1_dropShadow_10755_6735" result="shape"/></filter></defs></svg>