<svg xmlns="http://www.w3.org/2000/svg" width="84" height="64" viewBox="0 0 84 64" fill="none">
  <path d="M15.5987 26.9003C15.5987 26.9003 14.6046 0.121185 48.9888 2.10502C62.2102 2.86784 74.0625 9.51617 76.0957 17.6436C80.0625 33.5 64.5287 40.1246 64.5287 40.1246" stroke="black" stroke-width="2"/>
  <path d="M76.5625 20C76.5625 20 77.0625 27 77.0625 29.5C77.0625 35.5 77.0625 40 77.0625 40" stroke="black" stroke-width="2"/>
  <path d="M65 40L65 52" stroke="black" stroke-width="2"/>
  <path d="M64.8568 40.4556L47 20.1001" stroke="black" stroke-width="2"/>
  <path d="M47.334 20.5V32.5209" stroke="black" stroke-width="2"/>
  <path d="M48 20.3999L15.5957 27.0005" stroke="black" stroke-width="2"/>
  <path d="M15.5957 26.2393V39.7942" stroke="black" stroke-width="2"/>
  <path d="M47 32L15.2656 39.4638" stroke="black" stroke-width="2"/>
  <path d="M77.0625 39.5C77.0625 39.5 77.5625 40.5 74.0625 44.5C71.8684 47.0076 64.5 52 64.5 52L47 31.5" stroke="black" stroke-width="2"/>
  <path d="M35.1025 28.8843L7.8999 36C7.8999 36 16.72 46.9153 24.523 49.7126C37.7474 54.4534 50.0624 50 50.0624 50L35.1025 28.8843Z" fill="black" stroke="black" stroke-width="2"/>
  <path d="M50.5624 50.5001L50.4999 60.0001M7.19995 35.4966V46.0001" stroke="black" stroke-width="2"/>
  <path d="M7 45.4146C7 45.4146 12.9509 54.6958 23.5304 58.3083C37.0854 62.9368 50.9709 58.9695 50.9709 58.9695" stroke="black" stroke-width="2"/>
</svg>