<svg width="274" height="230" viewBox="0 0 274 230" fill="none" xmlns="http://www.w3.org/2000/svg">
<g clip-path="url(#clip0_10679_4775)">
<path d="M193.5 218.5L176 209L168.5 198L173 161.5L196 120L228.5 110.5L256 128L273.5 137L275.5 154L273.5 173.5L256 201L241.5 216L222.5 225H210.5L193.5 218.5Z" fill="black"/>
<path d="M87.5 176C92.1667 178.5 102.1 183.8 104.5 185L107.5 117.5L141 97L123.5 91.5L107.5 93L93 105L83 123L78.5 140.5V156.5L87.5 176Z" fill="black"/>
<path d="M269.522 130.624C270.195 128.564 270.804 126.484 271.351 124.386C271.897 122.289 272.38 120.176 272.799 118.05C273.218 115.923 273.572 113.785 273.861 111.636C274.151 109.488 274.375 107.333 274.534 105.171C276.419 77.9495 268.014 49.8398 249.963 29.16C235.395 12.4709 216.368 1.43617 194.026 -0.0447837C193.802 -0.0681672 193.57 -0.068286 193.345 -0.077211C184.087 -0.443196 174.833 1.27368 166.11 4.30467C164.38 4.90574 162.75 5.74433 161.034 6.36319C160.067 6.71192 159.014 6.89964 158.017 7.15031C156.546 7.51731 155.099 7.96124 153.675 8.48204C145.322 11.5519 136.16 17.5356 129.647 23.5664C121.595 31.022 114.593 39.6003 109.531 49.3715C108.272 51.8033 107.28 54.3453 106.137 56.8289C104.658 60.0447 103.171 63.2532 101.927 66.5702C101.413 67.9835 100.926 69.4066 100.468 70.8395C100.01 72.2722 99.5808 73.7134 99.1799 75.1632C98.7791 76.613 98.4073 78.0703 98.0645 79.535C97.7215 80.9995 97.4078 82.4703 97.1235 83.9473C96.8391 85.4243 96.5842 86.9066 96.3588 88.3939C96.1332 89.8811 95.9373 91.3722 95.7712 92.8671C95.605 94.362 95.4686 95.8597 95.362 97.3602C95.2552 98.8606 95.1784 100.362 95.1315 101.866C93.6858 103.509 92.1926 105.138 90.8505 106.866C90.2571 107.628 89.681 108.402 89.1223 109.189C88.5636 109.976 88.0228 110.776 87.4998 111.587C86.9769 112.398 86.4723 113.221 85.9862 114.055C85.5 114.889 85.0328 115.733 84.5845 116.588C84.136 117.443 83.7069 118.307 83.2973 119.182C82.8876 120.056 82.4977 120.938 82.1275 121.83C81.7572 122.721 81.4073 123.621 81.0774 124.528C80.7474 125.435 80.4379 126.349 80.1488 127.27C76.2064 140.067 75.5651 156.048 82.0141 168.179C83.9702 171.858 86.6458 175.269 89.8646 177.927C92.4818 180.087 95.5912 181.424 98.5653 183.01C103.549 185.667 108.853 188.834 114.285 190.464C121.841 192.73 130.22 191.024 137.028 187.33C149.97 180.307 159.347 166.507 163.47 152.597C167.521 138.93 167.314 124.22 160.372 111.5C157.959 107.079 154.238 102.877 149.884 100.284C147.879 99.0902 145.677 98.2471 143.53 97.3477L136.387 94.3392C134.669 93.6365 132.956 92.9221 131.247 92.1959C129.917 91.6188 128.599 90.9399 127.207 90.5314C128.219 85.0502 129.405 79.6708 131.195 74.3839C134.628 64.2421 140.355 54.7095 147.01 46.3662C155.772 35.3815 168.126 26.1822 181.679 22.1494C185.476 21.0192 189.512 20.3584 193.446 19.9236C205.54 25.2361 215.502 34.1195 223.499 44.5111C223.951 45.1208 224.396 45.7357 224.833 46.3557C225.271 46.9759 225.701 47.6011 226.124 48.2313C226.547 48.8614 226.962 49.4965 227.37 50.1365C227.778 50.7765 228.179 51.4212 228.572 52.0705C228.965 52.7197 229.35 53.3734 229.727 54.0318C230.105 54.6902 230.475 55.3529 230.837 56.0199C231.199 56.6869 231.553 57.358 231.899 58.0333C232.245 58.7086 232.584 59.3879 232.914 60.0713C233.244 60.7546 233.567 61.4416 233.881 62.1322C234.195 62.8231 234.501 63.5175 234.799 64.2155C235.097 64.9135 235.387 65.6148 235.669 66.3196C235.95 67.0243 236.224 67.7323 236.488 68.4434C236.754 69.1547 237.01 69.8689 237.258 70.586C237.507 71.3032 237.746 72.0231 237.978 72.746C238.209 73.4688 238.432 74.1943 238.646 74.9224C238.861 75.6503 239.066 76.3807 239.264 77.1137C239.461 77.8465 239.649 78.5816 239.829 79.3188C240.01 80.0561 240.181 80.7954 240.344 81.5367C240.506 82.278 240.66 83.021 240.805 83.7658C240.951 84.5108 241.087 85.2574 241.215 86.0054C241.343 86.7535 241.462 87.503 241.572 88.2541C241.682 89.0049 241.784 89.757 241.876 90.5102C241.969 91.2635 242.052 92.0177 242.127 92.7728C242.202 93.528 242.268 94.284 242.325 95.0409C242.383 95.7976 242.431 96.555 242.47 97.3128C242.51 98.0708 242.54 98.829 242.562 99.5875C242.584 100.346 242.596 101.105 242.6 101.864C242.604 102.623 242.599 103.382 242.585 104.141C242.571 104.899 242.548 105.658 242.517 106.416C242.485 107.174 242.444 107.932 242.395 108.69C242.345 109.447 242.287 110.203 242.22 110.959C242.153 111.715 242.077 112.47 241.992 113.225C240.41 112.575 238.649 112.353 237.123 111.664C236.038 111.174 235.064 110.383 234.036 109.782C232.273 108.75 230.283 107.908 228.365 107.209C219.968 104.145 210.789 105.036 202.753 108.774C185.355 116.864 172.16 134.493 165.707 152.195C160.581 166.258 159.08 183.435 165.597 197.334C167.601 201.608 170.551 205.578 174.227 208.563C176.973 210.792 180.147 212.092 183.29 213.624L192.545 218.19C196.887 220.35 201.796 223.231 206.275 224.835C214.187 227.669 223.838 225.453 231.238 221.919C249.562 213.168 264.115 194.404 270.783 175.523C274.972 163.659 276.452 150.053 272.596 137.911C271.792 135.38 270.663 133.015 269.522 130.624ZM240.441 130.932C243.349 120.812 244.482 109.918 244.239 99.4142C243.677 75.0926 233.402 49.9403 215.678 33.088C212.626 30.1857 209.343 27.3105 205.897 24.8814C194.7 16.9879 180.796 12.2661 167.04 12.6352C152.688 13.0203 139.037 19.1203 128.285 28.4944C124.98 31.3753 122.063 34.5998 119.057 37.7792C119.794 36.3746 121.101 35.0456 122.122 33.8342C122.821 32.9994 123.535 32.1777 124.265 31.3691C124.994 30.5606 125.738 29.7656 126.497 28.9841C127.255 28.2028 128.028 27.4356 128.814 26.6826C129.601 25.9295 130.401 25.191 131.215 24.4673C132.028 23.7434 132.855 23.0348 133.694 22.3413C134.534 21.6477 135.386 20.9698 136.25 20.3075C137.115 19.6451 137.991 18.9988 138.879 18.3685C139.767 17.7383 140.666 17.1245 141.577 16.5272C154.861 7.92286 170.107 4.63162 185.658 8.0186C206.717 12.6052 224.106 28.0762 235.528 45.7886C235.895 46.3641 236.255 46.9432 236.611 47.5258C236.966 48.1083 237.315 48.6943 237.659 49.2837C238.003 49.873 238.341 50.4658 238.673 51.0618C239.006 51.6578 239.332 52.2569 239.652 52.8592C239.973 53.4615 240.288 54.0669 240.597 54.6753C240.905 55.2838 241.208 55.8953 241.505 56.5098C241.802 57.1241 242.093 57.7413 242.378 58.3613C242.662 58.9814 242.941 59.6041 243.214 60.2297C243.487 60.8551 243.753 61.4832 244.014 62.1138C244.274 62.7444 244.528 63.3776 244.776 64.0133C245.024 64.6489 245.266 65.2868 245.502 65.9271C245.738 66.5676 245.967 67.2102 246.19 67.8549C246.413 68.4999 246.63 69.1468 246.841 69.7958C247.051 70.4449 247.255 71.0959 247.453 71.7488C247.651 72.4018 247.842 73.0567 248.027 73.7134C248.213 74.3702 248.391 75.0287 248.564 75.689C248.736 76.3493 248.902 77.0112 249.061 77.6746C249.22 78.338 249.373 79.003 249.52 79.6694C249.666 80.3358 249.806 81.0036 249.939 81.6728C250.073 82.3419 250.199 83.0123 250.32 83.684C250.44 84.3557 250.554 85.0284 250.661 85.7023C250.768 86.3762 250.869 87.0511 250.963 87.7269C251.057 88.4027 251.144 89.0793 251.225 89.7568C251.306 90.4344 251.38 91.1126 251.448 91.7916C251.515 92.4705 251.576 93.1501 251.631 93.8303C251.685 94.5104 251.733 95.191 251.774 95.8722C251.815 96.5532 251.849 97.2346 251.877 97.9164C251.905 98.5982 251.926 99.2802 251.941 99.9623C251.955 100.644 251.963 101.327 251.964 102.009C251.966 102.691 251.96 103.374 251.948 104.056C251.936 104.738 251.917 105.42 251.892 106.102C251.867 106.784 251.835 107.466 251.796 108.147C251.59 111.686 251.241 115.211 250.748 118.722C250.256 122.233 249.621 125.719 248.845 129.178L247.555 134.743C245.139 133.615 242.714 132.329 240.441 130.932ZM102.751 183.498C101.271 183.069 99.6539 181.951 98.3032 181.212C92.4518 178.01 89.6399 176.649 85.711 170.958C78.758 160.888 77.8392 147.408 79.987 135.681C82.7569 120.556 90.7464 106.09 103.576 97.2704C110.095 92.7893 117.871 90.1941 125.806 91.6716C130.179 92.5619 134.359 94.9077 138.515 96.5259C138.042 96.4907 137.568 96.4584 137.094 96.4292C127.641 95.852 118.566 100.247 111.625 106.412C99.604 117.09 92.4564 133.612 91.5451 149.522C90.9399 160.085 93.3137 171.371 99.6838 179.985C100.598 181.222 101.726 182.348 102.751 183.498ZM194.476 1.73409C215.446 2.97294 234.328 14.1272 248.088 29.6211C266.09 49.8906 274.422 77.2668 272.816 104.149C272.713 105.897 272.567 107.641 272.376 109.382C272.185 111.123 271.951 112.858 271.672 114.586C271.394 116.315 271.071 118.036 270.706 119.749C270.34 121.461 269.931 123.164 269.48 124.855C269.077 126.414 268.736 128.119 268.148 129.618C264.851 130.736 261.445 131.599 258.095 132.546C255.096 133.393 252.123 134.336 249.12 135.167C249.434 133.741 249.764 132.318 250.112 130.9C251.236 125.836 252.288 120.779 252.871 115.618C252.964 114.86 253.049 114.101 253.126 113.34C253.203 112.58 253.272 111.819 253.333 111.058C253.393 110.296 253.446 109.534 253.491 108.771C253.535 108.009 253.572 107.245 253.6 106.482C253.628 105.718 253.648 104.955 253.66 104.191C253.672 103.427 253.676 102.663 253.671 101.899C253.667 101.135 253.654 100.371 253.634 99.6072C253.613 98.8433 253.584 98.0798 253.547 97.3167C253.511 96.5535 253.465 95.7908 253.412 95.0287C253.359 94.2666 253.298 93.5051 253.228 92.7442C253.159 91.9833 253.081 91.2233 252.995 90.464C252.91 89.7047 252.816 88.9464 252.714 88.1893C252.612 87.4321 252.502 86.676 252.384 85.9212C252.266 85.1664 252.14 84.4128 252.006 83.6607C251.872 82.9084 251.73 82.1577 251.58 81.4086C251.43 80.6594 251.272 79.912 251.106 79.1661C250.94 78.4203 250.766 77.6764 250.584 76.9344C250.402 76.1924 250.212 75.4524 250.015 74.7143C249.817 73.9763 249.612 73.2405 249.398 72.5068C249.185 71.7732 248.964 71.0419 248.734 70.3129C248.506 69.584 248.269 68.8577 248.024 68.1337C247.78 67.4099 247.528 66.6888 247.268 65.9702C247.008 65.2518 246.74 64.5362 246.465 63.8233C246.19 63.1106 245.907 62.4008 245.617 61.694C245.327 60.9873 245.029 60.2837 244.724 59.5834C244.418 58.8829 244.106 58.1858 243.786 57.4921C243.465 56.7984 243.138 56.1082 242.803 55.4215C242.468 54.7348 242.126 54.0517 241.777 53.3723C241.427 52.6929 241.07 52.0172 240.707 51.3454C240.343 50.6736 239.972 50.0057 239.594 49.3418C239.215 48.6779 238.83 48.0181 238.438 47.3624C238.046 46.7066 237.647 46.0551 237.241 45.408C227.65 30.3381 214.638 17.514 198.123 10.2833C194.273 8.59771 190.289 7.16578 186.18 6.26168C180.846 5.08816 175.593 4.87158 170.153 4.88705C170.97 4.62192 171.792 4.37279 172.618 4.13961C173.445 3.90643 174.275 3.68938 175.11 3.48856C175.945 3.28769 176.783 3.10312 177.625 2.93492C178.467 2.76665 179.312 2.61487 180.16 2.47944C181.008 2.34408 181.859 2.22526 182.711 2.12292C183.564 2.02064 184.418 1.93496 185.274 1.86588C186.13 1.7968 186.987 1.74438 187.845 1.70868C188.703 1.67298 189.561 1.65394 190.42 1.65156C191.75 1.64317 193.154 1.59759 194.476 1.73409ZM232.754 112.705C235.883 112.944 238.887 113.583 241.783 114.81C241.573 117.113 241.236 119.424 240.856 121.706C230.498 122.493 221.502 127.801 213.912 134.617C211.877 136.443 209.882 138.341 208.098 140.416C207.04 141.628 206.016 142.867 205.026 144.136C204.037 145.404 203.083 146.698 202.165 148.019C201.247 149.34 200.366 150.684 199.522 152.054C198.678 153.423 197.872 154.814 197.104 156.228C195.987 158.294 195.048 160.455 194.122 162.611C189.687 172.93 186.857 184.182 187.717 195.483C188.336 203.622 190.749 212.398 196.495 218.434C195.391 217.871 194.282 217.315 193.185 216.738C191.096 215.673 188.881 214.72 186.928 213.422C181.446 209.778 177.934 203.632 175.948 197.483C170.985 182.108 175.343 163.959 182.522 150.001C190.533 134.428 203.444 119.954 220.542 114.503C224.35 113.289 228.729 112.318 232.754 112.705ZM240.477 123.309L240.457 123.483C240.221 125.391 238.575 130.693 238.84 131.924C239.836 132.949 246.762 136.52 248.375 137.137C255.028 135.773 261.382 132.991 268.021 131.546C269.039 133.66 270.056 135.744 270.801 137.975C273.876 147.186 273.669 157.663 271.498 167.051C270.769 170.201 269.737 173.33 268.672 176.38C262.655 193.613 247.979 211.957 231.37 219.953C229.925 220.649 228.431 221.296 226.924 221.843C219.471 224.573 211.66 225.348 204.256 221.956C198.255 219.207 193.983 213.214 191.759 207.158C186.375 192.5 190.109 174.878 196.519 161.174C203.616 146.002 215.909 131.033 232.107 125.213C234.834 124.234 237.624 123.738 240.477 123.309Z" fill="white"/>
<path d="M201 -3.50006C199.4 -3.50006 124.016 -5.99949 95.5088 57.98C95.5031 57.9928 95.5 58.007 95.5 58.021V107.361C95.5 107.429 95.5672 107.477 95.632 107.455L130.952 95.5162C130.982 95.506 131.006 95.482 131.015 95.4516L134 86L144.992 50.5261C144.997 50.509 145.007 50.4937 145.02 50.4817L166.977 30.5207C166.992 30.5072 167.011 30.4985 167.031 30.4957L195.46 26.5056C195.486 26.502 195.512 26.5085 195.533 26.5238L224.972 47.9795C224.99 47.9928 225.003 48.0118 225.009 48.0335L241.995 108.982C241.998 108.994 241.999 109.006 241.998 109.019L240.503 123.47C240.501 123.49 240.493 123.508 240.481 123.523L233.563 131.923C233.528 131.966 233.534 132.028 233.576 132.064L242.459 139.466C242.484 139.487 242.519 139.494 242.551 139.485L267.486 132.004C267.495 132.001 267.504 131.997 267.512 131.992L270.467 130.022C270.488 130.008 270.503 129.986 270.509 129.961L276.5 104L279.497 71.0338C279.499 71.0119 279.494 70.9899 279.482 70.9713L242.519 12.5303C242.507 12.5107 242.487 12.4958 242.465 12.4886C214.99 3.49405 202.599 -3.50006 201 -3.50006Z" fill="black"/>
<ellipse cx="129.936" cy="143.896" rx="20.8985" ry="29.176" transform="rotate(13.0248 129.936 143.896)" fill="black"/>
<path d="M244.236 145.156C238.566 144.561 232.122 147.686 227.52 151.196C217.851 158.569 209.895 171.829 208.281 183.905C207.491 189.82 207.688 196.63 211.243 201.257C213.675 204.42 216.584 205.825 220.572 206.352C227.549 206.52 233.993 203.372 239.437 198.917C248.951 191.132 256.15 178.409 257.337 166.164C257.892 160.44 257.042 154.136 253.395 149.787C251.099 147.05 247.996 145.486 244.441 145.186L244.41 145.183L244.38 145.179C244.252 145.16 244.276 145.16 244.238 145.156H244.236Z" fill="black" stroke="white" stroke-width="2"/>
<path d="M180.5 194.5C180.5 194.5 159.78 217.677 141 225C112.127 236.259 62 214.5 62 214.5" stroke="white" stroke-width="3" stroke-linejoin="round"/>
<path d="M184 195.5L179 191L162.5 207L167.5 212L184 195.5Z" fill="white"/>
<path d="M66.5 223.5L72.5 209L51.5 201L45.5 216L66.5 223.5Z" fill="black" stroke="white" stroke-width="3"/>
<path d="M50 163V186.5M15 163L36 186.5M3 194.5L30 199" stroke="white" stroke-width="3"/>
<path d="M94 104.5C94 104.5 99.4652 97.4139 108 93.9999C128 85.9996 149 101.5 149 101.5" stroke="white" stroke-width="2"/>
<path d="M240 132C240 132 254 72.5001 220.5 38.5001C201.905 19.6284 170.245 6.93182 144.5 19.0002C96.4999 41.5001 102.998 97 102.998 97" stroke="white" stroke-width="2"/>
<path d="M247.999 136C247.999 136 267.999 67.5001 222.999 28.5002C202.979 11.1491 173 -3.49997 138.999 13C86 38.7197 94.4992 103.5 94.4992 103.5" stroke="white" stroke-width="2"/>
<path d="M127.001 91.9999C127.001 91.9999 126.501 68.2473 136 51.9999C155 19.5 192.496 19.5 192.496 19.5" stroke="white" stroke-width="2"/>
<path d="M239.5 131L247.964 135.979C247.987 135.992 248.014 135.996 248.04 135.989L269 130.5" stroke="white" stroke-width="2"/>
<path d="M268.5 131C268.5 131 276.552 102.232 270.5 72.5001C265.373 47.313 247.431 18.8474 224.5 9.99982C174.5 -9.2916 134.5 15.4997 134.5 15.4997" stroke="white" stroke-width="2"/>
</g>
<defs>
<clipPath id="clip0_10679_4775">
<rect width="274" height="230" fill="white" transform="matrix(-1 0 0 1 274 0)"/>
</clipPath>
</defs>
</svg>
