<svg xmlns="http://www.w3.org/2000/svg" width="20" height="20" viewBox="0 0 20 20" fill="none">
    <g clip-path="url(#clip0_10679_3651)">
      <path d="M16.25 3.125H3.75C3.40482 3.125 3.125 3.40482 3.125 3.75V16.25C3.125 16.5952 3.40482 16.875 3.75 16.875H16.25C16.5952 16.875 16.875 16.5952 16.875 16.25V3.75C16.875 3.40482 16.5952 3.125 16.25 3.125Z" stroke="white" stroke-width="1.5" stroke-linecap="round" stroke-linejoin="round"/>
      <path d="M6.5625 7.5C7.25286 7.5 7.8125 6.94036 7.8125 6.25C7.8125 5.55964 7.25286 5 6.5625 5C5.87214 5 5.3125 5.55964 5.3125 6.25C5.3125 6.94036 5.87214 7.5 6.5625 7.5Z" fill="white"/>
      <path d="M10 7.5C10.6904 7.5 11.25 6.94036 11.25 6.25C11.25 5.55964 10.6904 5 10 5C9.30964 5 8.75 5.55964 8.75 6.25C8.75 6.94036 9.30964 7.5 10 7.5Z" fill="white"/>
      <path d="M13.4375 7.5C14.1279 7.5 14.6875 6.94036 14.6875 6.25C14.6875 5.55964 14.1279 5 13.4375 5C12.7471 5 12.1875 5.55964 12.1875 6.25C12.1875 6.94036 12.7471 7.5 13.4375 7.5Z" fill="white"/>
      <path d="M14.0625 9.375H5.9375V14.0625H14.0625V9.375Z" stroke="white" stroke-width="1.5" stroke-linecap="round" stroke-linejoin="round"/>
    </g>
    <defs>
      <clipPath id="clip0_10679_3651">
        <rect width="20" height="20" fill="white"/>
      </clipPath>
    </defs>
  </svg>