<svg xmlns="http://www.w3.org/2000/svg" width="20" height="20" viewBox="0 0 20 20" fill="none">
    <g clip-path="url(#clip0_10679_3549)">
      <path d="M3.75 10.9053V16.8748H16.25V10.9053" stroke="white" stroke-width="1.5"/>
      <path d="M4.21851 3.125H15.781H16.238L16.3818 3.57812L17.43 6.11858C17.7016 6.77684 17.2177 7.5 16.5056 7.5H3.49505C2.78278 7.5 2.29886 6.77652 2.5708 6.11821L3.62007 3.57812L3.76702 3.125H4.21851Z" stroke="white" stroke-width="1.5" stroke-linecap="round"/>
      <path d="M7.5 7.5V8.75C7.5 9.41304 7.23661 10.0489 6.76777 10.5178C6.29893 10.9866 5.66304 11.25 5 11.25C4.33696 11.25 3.70107 10.9866 3.23223 10.5178C2.76339 10.0489 2.5 9.41304 2.5 8.75V7.5" stroke="white" stroke-width="1.5" stroke-linecap="round" stroke-linejoin="round"/>
      <path d="M12.5 7.5V8.75C12.5 9.41304 12.2366 10.0489 11.7678 10.5178C11.2989 10.9866 10.663 11.25 10 11.25C9.33696 11.25 8.70107 10.9866 8.23223 10.5178C7.76339 10.0489 7.5 9.41304 7.5 8.75V7.5" stroke="white" stroke-width="1.5" stroke-linecap="round" stroke-linejoin="round"/>
      <path d="M17.5 7.5V8.75C17.5 9.41304 17.2366 10.0489 16.7678 10.5178C16.2989 10.9866 15.663 11.25 15 11.25C14.337 11.25 13.7011 10.9866 13.2322 10.5178C12.7634 10.0489 12.5 9.41304 12.5 8.75V7.5" stroke="white" stroke-width="1.5" stroke-linecap="round" stroke-linejoin="round"/>
    </g>
    <defs>
      <clipPath id="clip0_10679_3549">
        <rect width="20" height="20" fill="white"/>
      </clipPath>
    </defs>
  </svg>