<svg xmlns="http://www.w3.org/2000/svg" width="20" height="20" viewBox="0 0 20 20" fill="none">
    <g clip-path="url(#clip0_10679_3611)">
      <path d="M7.1875 4.375H5.3125C4.96732 4.375 4.6875 4.65482 4.6875 5V15C4.6875 15.3452 4.96732 15.625 5.3125 15.625H7.1875C7.53268 15.625 7.8125 15.3452 7.8125 15V5C7.8125 4.65482 7.53268 4.375 7.1875 4.375Z" stroke="white" stroke-width="1.5" stroke-linecap="round" stroke-linejoin="round"/>
      <path d="M14.6875 4.375H12.8125C12.4673 4.375 12.1875 4.65482 12.1875 5V15C12.1875 15.3452 12.4673 15.625 12.8125 15.625H14.6875C15.0327 15.625 15.3125 15.3452 15.3125 15V5C15.3125 4.65482 15.0327 4.375 14.6875 4.375Z" stroke="white" stroke-width="1.5" stroke-linecap="round"/>
      <path d="M15.3125 6.25H17.5C17.6658 6.25 17.8247 6.31585 17.9419 6.43306C18.0592 6.55027 18.125 6.70924 18.125 6.875V13.125C18.125 13.2908 18.0592 13.4497 17.9419 13.5669C17.8247 13.6842 17.6658 13.75 17.5 13.75H15.3125" stroke="white" stroke-width="1.5" stroke-linecap="round" stroke-linejoin="round"/>
      <path d="M4.6875 13.75H2.5C2.33424 13.75 2.17527 13.6842 2.05806 13.5669C1.94085 13.4497 1.875 13.2908 1.875 13.125V6.875C1.875 6.70924 1.94085 6.55027 2.05806 6.43306C2.17527 6.31585 2.33424 6.25 2.5 6.25H4.6875" stroke="white" stroke-width="1.5" stroke-linecap="round" stroke-linejoin="round"/>
      <path d="M7.8125 10H12.1875" stroke="white" stroke-width="1.5" stroke-linecap="round" stroke-linejoin="round"/>
      <path d="M18.125 10H19.0625" stroke="white" stroke-width="1.5" stroke-linecap="round" stroke-linejoin="round"/>
      <path d="M0.9375 10H1.875" stroke="white" stroke-width="1.5" stroke-linecap="round" stroke-linejoin="round"/>
    </g>
    <defs>
      <clipPath id="clip0_10679_3611">
        <rect width="20" height="20" fill="white"/>
      </clipPath>
    </defs>
  </svg>