<svg xmlns="http://www.w3.org/2000/svg" width="20" height="20" viewBox="0 0 20 20" fill="none">
    <g clip-path="url(#clip0_10679_3601)">
      <path d="M4.6875 8.125C5.89562 8.125 6.875 7.14562 6.875 5.9375C6.875 4.72938 5.89562 3.75 4.6875 3.75C3.47938 3.75 2.5 4.72938 2.5 5.9375C2.5 7.14562 3.47938 8.125 4.6875 8.125Z" stroke="white" stroke-width="1.5" stroke-linecap="round" stroke-linejoin="round"/>
      <path d="M4.6875 16.25C5.89562 16.25 6.875 15.2706 6.875 14.0625C6.875 12.8544 5.89562 11.875 4.6875 11.875C3.47938 11.875 2.5 12.8544 2.5 14.0625C2.5 15.2706 3.47938 16.25 4.6875 16.25Z" stroke="white" stroke-width="1.5" stroke-linecap="round" stroke-linejoin="round"/>
      <path d="M10.6242 10L6.49219 12.8273" stroke="white" stroke-width="1.5" stroke-linecap="round" stroke-linejoin="round"/>
      <path d="M18.1242 15.1314L6.49219 7.17285" stroke="white" stroke-width="1.5" stroke-linejoin="round"/>
      <path d="M18.1254 4.86914L13.3926 8.10742" stroke="white" stroke-width="1.5" stroke-linejoin="round"/>
    </g>
    <defs>
      <clipPath id="clip0_10679_3601">
        <rect width="20" height="20" fill="white"/>
      </clipPath>
    </defs>
  </svg>