<svg xmlns="http://www.w3.org/2000/svg" width="20" height="20" viewBox="0 0 20 20" fill="none">
    <g clip-path="url(#clip0_10679_3559)">
      <path d="M9.23828 8.28633L8.26172 6.08789" stroke="white" stroke-width="1.5" stroke-linecap="round" stroke-linejoin="round"/>
      <path d="M13.8465 8.71777L11.7793 9.40684" stroke="white" stroke-width="1.5" stroke-linecap="round" stroke-linejoin="round"/>
      <path d="M14.1461 13.2238L11.4805 11.1504" stroke="white" stroke-width="1.5" stroke-linecap="round" stroke-linejoin="round"/>
      <path d="M8.59922 11.2451L5.77734 13.7545" stroke="white" stroke-width="1.5" stroke-linecap="round" stroke-linejoin="round"/>
      <path d="M10 11.875C11.0355 11.875 11.875 11.0355 11.875 10C11.875 8.96447 11.0355 8.125 10 8.125C8.96447 8.125 8.125 8.96447 8.125 10C8.125 11.0355 8.96447 11.875 10 11.875Z" stroke="white" stroke-width="1.5" stroke-linecap="round" stroke-linejoin="round"/>
      <path d="M7.5 6.25C8.53553 6.25 9.375 5.41053 9.375 4.375C9.375 3.33947 8.53553 2.5 7.5 2.5C6.46447 2.5 5.625 3.33947 5.625 4.375C5.625 5.41053 6.46447 6.25 7.5 6.25Z" stroke="white" stroke-width="1.5" stroke-linecap="round" stroke-linejoin="round"/>
      <path d="M15.625 9.6875C16.6605 9.6875 17.5 8.84803 17.5 7.8125C17.5 6.77697 16.6605 5.9375 15.625 5.9375C14.5895 5.9375 13.75 6.77697 13.75 7.8125C13.75 8.84803 14.5895 9.6875 15.625 9.6875Z" stroke="white" stroke-width="1.5" stroke-linecap="round" stroke-linejoin="round"/>
      <path d="M15.625 16.5625C16.6605 16.5625 17.5 15.723 17.5 14.6875C17.5 13.652 16.6605 12.8125 15.625 12.8125C14.5895 12.8125 13.75 13.652 13.75 14.6875C13.75 15.723 14.5895 16.5625 15.625 16.5625Z" stroke="white" stroke-width="1.5" stroke-linecap="round" stroke-linejoin="round"/>
      <path d="M4.375 16.875C5.41053 16.875 6.25 16.0355 6.25 15C6.25 13.9645 5.41053 13.125 4.375 13.125C3.33947 13.125 2.5 13.9645 2.5 15C2.5 16.0355 3.33947 16.875 4.375 16.875Z" stroke="white" stroke-width="1.5" stroke-linecap="round" stroke-linejoin="round"/>
    </g>
    <defs>
      <clipPath id="clip0_10679_3559">
        <rect width="20" height="20" fill="white"/>
      </clipPath>
    </defs>
  </svg>