<svg xmlns="http://www.w3.org/2000/svg" width="20" height="20" viewBox="0 0 20 20" fill="none">
    <g clip-path="url(#clip0_10679_3587)">
      <path d="M6.875 16.1953C5.5692 15.5968 4.46274 14.6359 3.68717 13.4268C2.9116 12.2178 2.49955 10.8114 2.5 9.375H17.5C17.5005 10.8114 17.0884 12.2178 16.3128 13.4268C15.5373 14.6359 14.4308 15.5968 13.125 16.1953V16.875C13.125 17.0408 13.0592 17.1997 12.9419 17.3169C12.8247 17.4342 12.6658 17.5 12.5 17.5H7.5C7.33424 17.5 7.17527 17.4342 7.05806 17.3169C6.94085 17.1997 6.875 17.0408 6.875 16.875V16.1953Z" stroke="white" stroke-width="1.5" stroke-linecap="round"/>
      <path d="M13.6457 1.77946L12.9251 1.57131L12.5088 3.01238L13.2293 3.22054L13.4375 2.5L13.6457 1.77946ZM13.4375 6.5625C13.6457 5.84196 13.6461 5.8421 13.6466 5.84223C13.6467 5.84227 13.6472 5.84241 13.6475 5.84249C13.6481 5.84266 13.6486 5.84283 13.6492 5.84299C13.6503 5.84332 13.6513 5.84363 13.6523 5.84392C13.6542 5.8445 13.6559 5.845 13.6573 5.84544C13.66 5.84631 13.6618 5.84689 13.6626 5.84718C13.6643 5.84774 13.6626 5.84721 13.6584 5.84551C13.6492 5.84186 13.6331 5.83474 13.615 5.82423C13.5717 5.79922 13.5591 5.7802 13.5598 5.78146C13.6243 5.89331 13.3804 5.74339 14.0046 5.02203L13.4375 4.53125L12.8704 4.04047C12.0884 4.94411 11.8444 5.80982 12.2605 6.53104C12.437 6.83699 12.6881 7.0211 12.8645 7.12303C12.9562 7.17601 13.039 7.21331 13.1013 7.23823C13.1327 7.25081 13.1599 7.2606 13.1815 7.2679C13.1923 7.27156 13.2017 7.27463 13.2098 7.27713C13.2138 7.27838 13.2174 7.2795 13.2207 7.28048C13.2223 7.28097 13.2239 7.28143 13.2253 7.28186C13.226 7.28207 13.2267 7.28227 13.2274 7.28247C13.2277 7.28257 13.2282 7.28271 13.2284 7.28276C13.2289 7.2829 13.2293 7.28304 13.4375 6.5625ZM13.4375 4.53125L14.0046 5.02203C14.7866 4.11839 15.0306 3.25268 14.6145 2.53146C14.438 2.22551 14.1869 2.0414 14.0105 1.93947C13.9188 1.88649 13.836 1.84919 13.7737 1.82427C13.7423 1.81169 13.7151 1.8019 13.6935 1.7946C13.6827 1.79094 13.6733 1.78787 13.6652 1.78537C13.6612 1.78412 13.6576 1.783 13.6543 1.78202C13.6527 1.78153 13.6511 1.78107 13.6497 1.78064C13.649 1.78043 13.6483 1.78023 13.6476 1.78003C13.6473 1.77993 13.6468 1.77979 13.6466 1.77974C13.6461 1.7796 13.6457 1.77946 13.4375 2.5C13.2293 3.22054 13.2289 3.2204 13.2284 3.22027C13.2283 3.22023 13.2278 3.22009 13.2275 3.22001C13.2269 3.21984 13.2264 3.21967 13.2258 3.21951C13.2247 3.21918 13.2237 3.21887 13.2227 3.21858C13.2208 3.218 13.2191 3.2175 13.2177 3.21706C13.215 3.21619 13.2132 3.21561 13.2124 3.21532C13.2107 3.21476 13.2124 3.21529 13.2166 3.21699C13.2258 3.22064 13.2419 3.22776 13.26 3.23827C13.3033 3.26328 13.3159 3.2823 13.3152 3.28104C13.2507 3.16919 13.4946 3.31911 12.8704 4.04047L13.4375 4.53125Z" fill="white"/>
      <path d="M10.2082 1.77946L9.48762 1.57131L9.07131 3.01238L9.79185 3.22054L10 2.5L10.2082 1.77946ZM10 6.5625C10.2082 5.84196 10.2086 5.8421 10.2091 5.84223C10.2092 5.84227 10.2097 5.84241 10.21 5.84249C10.2106 5.84266 10.2111 5.84283 10.2117 5.84299C10.2128 5.84332 10.2138 5.84363 10.2148 5.84392C10.2167 5.8445 10.2184 5.845 10.2198 5.84544C10.2225 5.84631 10.2243 5.84689 10.2251 5.84718C10.2268 5.84774 10.2251 5.84721 10.2209 5.84551C10.2117 5.84186 10.1956 5.83474 10.1775 5.82423C10.1342 5.79922 10.1216 5.7802 10.1223 5.78146C10.1868 5.89331 9.94287 5.74339 10.5671 5.02203L10 4.53125L9.43287 4.04047C8.65088 4.94411 8.40693 5.80982 8.82302 6.53104C8.99952 6.83699 9.25061 7.0211 9.42704 7.12303C9.51872 7.17601 9.6015 7.21331 9.66378 7.23823C9.69524 7.25081 9.72239 7.2606 9.74395 7.2679C9.75476 7.27156 9.76425 7.27463 9.77226 7.27713C9.77627 7.27838 9.77991 7.2795 9.78318 7.28048C9.78482 7.28097 9.78636 7.28143 9.7878 7.28186C9.78852 7.28207 9.78922 7.28227 9.7899 7.28247C9.79023 7.28257 9.79072 7.28271 9.79089 7.28276C9.79137 7.2829 9.79185 7.28304 10 6.5625ZM10 4.53125L10.5671 5.02203C11.3491 4.11839 11.5931 3.25268 11.177 2.53146C11.0005 2.22551 10.7494 2.0414 10.573 1.93947C10.4813 1.88649 10.3985 1.84919 10.3362 1.82427C10.3048 1.81169 10.2776 1.8019 10.256 1.7946C10.2452 1.79094 10.2358 1.78787 10.2277 1.78537C10.2237 1.78412 10.2201 1.783 10.2168 1.78202C10.2152 1.78153 10.2136 1.78107 10.2122 1.78064C10.2115 1.78043 10.2108 1.78023 10.2101 1.78003C10.2098 1.77993 10.2093 1.77979 10.2091 1.77974C10.2086 1.7796 10.2082 1.77946 10 2.5C9.79185 3.22054 9.79138 3.2204 9.79092 3.22027C9.79077 3.22023 9.79032 3.22009 9.79002 3.22001C9.78944 3.21984 9.78887 3.21967 9.78831 3.21951C9.78721 3.21918 9.78617 3.21887 9.78521 3.21858C9.78328 3.218 9.78163 3.2175 9.78024 3.21706C9.77746 3.21619 9.7757 3.21561 9.77485 3.21532C9.7732 3.21476 9.7749 3.21529 9.77914 3.21699C9.78826 3.22064 9.80437 3.22776 9.82255 3.23827C9.86585 3.26328 9.87843 3.2823 9.8777 3.28104C9.81318 3.16919 10.0571 3.31911 9.43287 4.04047L10 4.53125Z" fill="white"/>
      <path d="M6.77065 1.77946L6.05012 1.57131L5.63381 3.01238L6.35435 3.22054L6.5625 2.5L6.77065 1.77946ZM6.5625 6.5625C6.77065 5.84196 6.77112 5.8421 6.77158 5.84223C6.77173 5.84227 6.77218 5.84241 6.77248 5.84249C6.77306 5.84266 6.77363 5.84283 6.77419 5.84299C6.77529 5.84332 6.77633 5.84363 6.77729 5.84392C6.77922 5.8445 6.78087 5.845 6.78226 5.84544C6.78504 5.84631 6.7868 5.84689 6.78765 5.84718C6.7893 5.84774 6.7876 5.84721 6.78336 5.84551C6.77424 5.84186 6.75813 5.83474 6.73995 5.82423C6.69665 5.79922 6.68407 5.7802 6.6848 5.78146C6.74932 5.89331 6.50537 5.74339 7.12963 5.02203L6.5625 4.53125L5.99537 4.04047C5.21338 4.94411 4.96943 5.80982 5.38552 6.53104C5.56202 6.83699 5.81311 7.0211 5.98954 7.12303C6.08122 7.17601 6.164 7.21331 6.22628 7.23823C6.25774 7.25081 6.28489 7.2606 6.30645 7.2679C6.31726 7.27156 6.32675 7.27463 6.33476 7.27713C6.33877 7.27838 6.34241 7.2795 6.34568 7.28048C6.34732 7.28097 6.34886 7.28143 6.3503 7.28186C6.35102 7.28207 6.35172 7.28227 6.3524 7.28247C6.35273 7.28257 6.35322 7.28271 6.35339 7.28276C6.35387 7.2829 6.35435 7.28304 6.5625 6.5625ZM6.5625 4.53125L7.12963 5.02203C7.91162 4.11839 8.15557 3.25268 7.73948 2.53146C7.56298 2.22551 7.31189 2.0414 7.13546 1.93947C7.04378 1.88649 6.961 1.84919 6.89872 1.82427C6.86726 1.81169 6.84011 1.8019 6.81855 1.7946C6.80774 1.79094 6.79825 1.78787 6.79024 1.78537C6.78623 1.78412 6.78259 1.783 6.77932 1.78202C6.77768 1.78153 6.77614 1.78107 6.7747 1.78064C6.77398 1.78043 6.77328 1.78023 6.7726 1.78003C6.77227 1.77993 6.77178 1.77979 6.77161 1.77974C6.77113 1.7796 6.77065 1.77946 6.5625 2.5C6.35435 3.22054 6.35388 3.2204 6.35342 3.22027C6.35327 3.22023 6.35282 3.22009 6.35252 3.22001C6.35194 3.21984 6.35137 3.21967 6.35081 3.21951C6.34971 3.21918 6.34867 3.21887 6.34771 3.21858C6.34578 3.218 6.34413 3.2175 6.34274 3.21706C6.33996 3.21619 6.3382 3.21561 6.33735 3.21532C6.3357 3.21476 6.3374 3.21529 6.34164 3.21699C6.35076 3.22064 6.36687 3.22776 6.38505 3.23827C6.42835 3.26328 6.44093 3.2823 6.4402 3.28104C6.37568 3.16919 6.61963 3.31911 5.99537 4.04047L6.5625 4.53125Z" fill="white"/>
    </g>
    <defs>
      <clipPath id="clip0_10679_3587">
        <rect width="20" height="20" fill="white"/>
      </clipPath>
    </defs>
  </svg>