<svg xmlns="http://www.w3.org/2000/svg" width="237" height="48" viewBox="0 0 237 48" fill="none">
    <path d="M48 48H0V0H48V48ZM8.00098 7.99902V39.999H40.001V7.99902H8.00098Z" fill="white"/>
    <path d="M14.0009 14H34.0011V34L14.0009 14Z" fill="white"/>
    <path d="M71.1581 34.9098C65.2581 34.9098 61.1946 30.69 61.1946 24.8681V23.7741C61.1946 18.0304 65.4144 13.8105 71.0018 13.8105H71.3535C74.9091 13.8105 77.8786 15.4125 79.8713 18.3039L75.7687 21.2344C74.5965 19.1635 73.3071 18.2648 71.5489 18.2648H71.3144C68.7747 18.2648 67.2118 20.3357 67.2118 24.0085V24.7118C67.2118 28.2284 68.8919 30.3383 71.4707 30.3383H71.8224C73.4634 30.3383 74.831 29.3615 75.9641 27.3688L80.0276 30.4946C77.9959 33.386 75.1435 34.9098 71.5098 34.9098H71.1581Z" fill="white"/>
    <path d="M82.898 34.5191V6.38672H88.7198V16.5066C90.439 14.7874 92.7834 13.7715 95.3622 13.7715C99.7383 13.7715 102.278 16.6238 102.278 21.5079V34.5191H96.4562V22.7582C96.4562 19.984 95.3622 18.6556 93.0178 18.6556C90.3218 18.6556 88.7198 20.4138 88.7198 23.3443V34.5191H82.898Z" fill="white"/>
    <path d="M115.808 34.9489C109.674 34.9489 105.571 30.8853 105.571 24.79V24.0476C105.571 18.0304 109.713 13.8105 115.574 13.8105H116.082C121.552 13.8105 125.381 17.6787 125.381 23.0708V25.9622H111.237C111.51 28.6582 113.425 30.2992 116.199 30.2992H116.551C118.817 30.2992 120.653 29.2052 121.864 27.8767L124.756 31.5105C122.802 33.5032 119.559 34.9489 116.433 34.9489H115.808ZM111.393 22.4065H119.872V22.2893C119.794 19.6324 118.231 18.0695 116.004 18.0695H115.613C113.347 18.0695 111.823 19.6714 111.393 22.4065Z" fill="white"/>
    <path d="M137.818 34.9098C131.918 34.9098 127.855 30.69 127.855 24.8681V23.7741C127.855 18.0304 132.075 13.8105 137.662 13.8105H138.014C141.569 13.8105 144.539 15.4125 146.532 18.3039L142.429 21.2344C141.257 19.1635 139.967 18.2648 138.209 18.2648H137.975C135.435 18.2648 133.872 20.3357 133.872 24.0085V24.7118C133.872 28.2284 135.552 30.3383 138.131 30.3383H138.483C140.124 30.3383 141.491 29.3615 142.624 27.3688L146.688 30.4946C144.656 33.386 141.804 34.9098 138.17 34.9098H137.818Z" fill="white"/>
    <path d="M149.558 34.5191V6.38672H155.38V22.5628H155.732L162.413 14.2013H168.782L160.733 23.5397L168.86 34.5191H162.101L155.771 25.1026H155.38V34.5191H149.558Z" fill="white"/>
    <path d="M183.101 34.9489C180.483 34.9489 178.256 33.9721 176.693 32.2529C176.576 33.0734 176.42 33.933 176.185 34.5191H171.575V6.38672H177.397V15.8423C178.881 14.5138 180.835 13.7715 183.101 13.7715H183.414C188.767 13.7715 192.361 17.835 192.361 23.7741V24.9463C192.361 30.8853 188.767 34.9489 183.414 34.9489H183.101ZM181.656 30.6118H182.046C184.625 30.6118 186.344 28.2675 186.344 24.7118V23.8132C186.344 20.3357 184.625 18.1085 182.046 18.1085H181.656C179.077 18.1085 177.358 20.3357 177.358 23.8132V24.7118C177.358 28.2675 179.077 30.6118 181.656 30.6118Z" fill="white"/>
    <path d="M205.021 34.9489C198.926 34.9489 194.706 30.8463 194.706 24.9463V23.7741C194.706 17.8741 198.926 13.7715 205.021 13.7715H205.412C211.507 13.7715 215.727 17.8741 215.727 23.7741V24.9463C215.727 30.8463 211.507 34.9489 205.412 34.9489H205.021ZM205.021 30.6118H205.412C207.991 30.6118 209.71 28.2675 209.71 24.7118V23.8132C209.71 20.3357 207.991 18.1085 205.412 18.1085H205.021C202.442 18.1085 200.723 20.3357 200.723 23.8132V24.7118C200.723 28.2675 202.442 30.6118 205.021 30.6118Z" fill="white"/>
    <path d="M216.244 34.5191L222.848 24.0476V23.8913L216.518 14.2013H222.926L226.599 20.7264H226.833L230.389 14.2013H236.718L230.428 23.8913V24.0476L236.992 34.5191H230.584L226.677 27.3297H226.442L222.535 34.5191H216.244Z" fill="white"/>
  </svg>