<svg xmlns="http://www.w3.org/2000/svg" width="12" height="12" viewBox="0 0 12 12" fill="none"><g clip-path="url(#clip0_10679_6483)"><path d="M7.05536 9.73858V7.24354H4.93828V9.73858H3.32027L5.28159 11.7044C5.67576 12.0985 6.3147 12.0985 6.71046 11.7044L8.67656 9.73858H7.05536ZM2.26172 8.68018V3.31983L0.295629 5.28248C-0.0985431 5.6766 -0.0985431 6.31545 0.295629 6.71116L2.26172 8.68018ZM4.93828 2.25824V4.75328H7.05536V2.25824H8.67656L6.71046 0.29559C6.31629 -0.09853 5.67735 -0.09853 5.28159 0.29559L3.32027 2.25824H4.93828ZM11.698 5.28248L9.7351 3.31983V8.67541L11.7012 6.70958C12.0954 6.31863 12.1001 5.67978 11.7139 5.28566C11.7139 5.28566 11.7139 5.28566 11.7091 5.28089C11.7091 5.28089 11.7091 5.28089 11.7012 5.28089H11.698V5.28248Z" fill="#DA291C"/></g></svg>
