<svg xmlns="http://www.w3.org/2000/svg" width="32" height="32" viewBox="0 0 32 32" fill="none"><g clip-path="url(#clip0_10679_4706)"><path d="M22.6027 26.9997C22.8679 26.9997 23.1223 26.8943 23.3098 26.7068C23.4974 26.5192 23.6027 26.2649 23.6027 25.9997V20.6634C24.1362 20.9158 24.7248 21.0292 25.3139 20.9931C25.9029 20.957 26.4733 20.7725 26.9719 20.4568C27.4705 20.1411 27.8812 19.7044 28.1658 19.1874C28.4504 18.6704 28.5996 18.0898 28.5996 17.4997C28.5996 16.9095 28.4504 16.3289 28.1658 15.8119C27.8812 15.2949 27.4705 14.8583 26.9719 14.5426C26.4733 14.2269 25.9029 14.0424 25.3139 14.0062C24.7248 13.9701 24.1362 14.0835 23.6027 14.3359V8.99968C23.6027 8.73446 23.4974 8.48011 23.3098 8.29257C23.1223 8.10503 22.8679 7.99968 22.6027 7.99968H16.7665C17.0191 7.46621 17.1328 6.8775 17.0968 6.28831C17.0609 5.69912 16.8765 5.12859 16.5609 4.6298C16.2452 4.13101 15.8085 3.72015 15.2914 3.43546C14.7743 3.15076 14.1936 3.00146 13.6033 3.00146C13.0131 3.00146 12.4324 3.15076 11.9153 3.43546C11.3982 3.72015 10.9615 4.13101 10.6458 4.6298C10.3302 5.12859 10.1458 5.69912 10.1098 6.28831C10.0739 6.8775 10.1875 7.46621 10.4402 7.99968H4.60272C4.3375 7.99968 4.08315 8.10503 3.89561 8.29257C3.70807 8.48011 3.60272 8.73446 3.60272 8.99968V14.3359C4.13618 14.0835 4.72481 13.9701 5.31386 14.0062C5.90292 14.0424 6.47327 14.2269 6.97189 14.5426C7.47051 14.8583 7.88121 15.2949 8.16579 15.8119C8.45038 16.3289 8.59961 16.9095 8.59961 17.4997C8.59961 18.0898 8.45038 18.6704 8.16579 19.1874C7.88121 19.7044 7.47051 20.1411 6.97189 20.4568C6.47327 20.7725 5.90292 20.957 5.31386 20.9931C4.72481 21.0292 4.13618 20.9158 3.60272 20.6634V25.9997C3.60272 26.2649 3.70807 26.5192 3.89561 26.7068C4.08315 26.8943 4.3375 26.9997 4.60272 26.9997H22.6027Z" stroke="black" stroke-width="2.5" stroke-linecap="round"></path></g><defs><clipPath id="clip0_10679_4706"><rect width="32" height="32" fill="white"></rect></clipPath></defs></svg>
