<svg width="294" height="190" viewBox="0 0 294 190" fill="none" xmlns="http://www.w3.org/2000/svg">
<g clip-path="url(#clip0_10755_7034)">
<path d="M134.863 0.100328C132.441 -0.256503 124.882 7.16804 123.029 9.07109C122.549 9.56249 122.591 23.8674 123.002 24.2983C125.833 27.2712 131.882 32.0564 135.619 33.5518C135.892 36.3411 135.729 42.269 135.733 45.3175L135.722 67.2405C132.85 70.3364 130.55 76.2263 132.534 80.3258C133.876 83.0988 135.931 84.2394 138.717 85.2378C139.274 88.1432 141.711 88.6346 144.247 88.8543C146.305 89.0327 148.299 88.8384 149.578 87.005C151.017 88.3189 152.598 89.7116 153.974 91.0729C152.63 92.1765 151.458 93.4736 150.497 94.922C148.288 98.269 145.737 104.13 144.039 107.878C142.213 111.909 139.642 117.115 138.152 121.205C133.53 121.045 128.251 121.181 123.58 121.183L95.0225 121.195L81.4245 121.176C79.2702 121.175 76.6331 121.094 74.4897 121.34C74.0861 121.276 72.8553 122.56 72.8414 122.873C72.7451 125.067 74.603 130.162 75.1292 131.929L79.8491 147.818L84.5132 163.559C85.4584 166.784 86.25 169.842 87.338 173.049L57.519 173.072C57.4352 163.994 57.55 154.881 57.5019 145.801C57.4988 145.035 57.4429 143.091 56.8531 142.587C53.1436 139.411 42.3239 138.887 37.7017 138.986C36.8558 131.232 31.5849 126.131 31.872 118.356C31.9512 116.215 32.676 114.145 33.5995 112.235C34.0574 111.289 35.459 109.245 35.5148 108.362L35.3006 108.125C34.8381 108.078 34.2002 108.19 33.941 108.642C31.7556 112.45 30.2051 116.197 30.5962 120.674C31.1751 127.3 35.5816 132.49 36.3421 139.003C36.0565 138.991 35.7694 138.983 35.4822 138.981C31.3505 138.953 21.1579 139.565 17.886 142.511C16.902 143.396 17.1379 145.817 17.1519 147.175C4.57831 144.941 2.89893 158.091 7.54437 166.657C9.70801 170.649 11.912 171.923 16.0437 173.142C12.2938 173.089 8.54391 173.084 4.79559 173.123C3.67032 173.131 0.910675 172.85 0.106689 173.389C-0.098175 173.851 -0.054718 173.663 0.0865173 174.244C0.496277 174.497 15.2366 174.385 17.1596 174.43C17.1938 178.043 16.1058 182.423 20.1397 183.648C21.2727 183.993 20.2235 184.399 20.4392 185.191C21.8812 186.176 28.3379 188.932 30.2175 189.717C30.919 188.438 31.5585 187.126 32.1328 185.785C35.1904 185.878 38.6703 185.861 41.7232 185.796C45.8705 185.382 53.0582 185.118 56.5225 182.341C57.9784 181.174 57.5019 176.451 57.4988 174.365C64.1868 174.411 70.8748 174.419 77.5613 174.387C79.6023 174.385 85.9458 174.514 87.5584 174.248C88.8342 179.24 89.9471 178.911 94.7524 178.835C96.1803 178.813 97.7604 178.826 99.1961 178.826L120.333 178.827C141.598 179.01 162.866 178.852 184.127 178.348C187.474 178.278 190.823 178.241 194.171 178.239C195.654 178.236 197.239 178.261 198.634 178.262C199.806 178.264 201.085 177.407 201.909 176.71C202.278 176.665 203.175 176.598 203.486 176.598C216.59 176.577 229.695 176.629 242.799 176.622C245.237 176.62 247.194 175.085 249.674 175.073C253.048 175.054 256.42 175.054 259.793 175.045L282.648 175.017C284.275 175.011 293.075 175.276 294.055 174.678C294.089 174.163 292.835 173.763 292.438 173.775C289.651 173.856 286.862 173.833 284.073 173.833L264.755 173.837C264.759 160.529 266.331 146.967 266.185 133.513C266.043 120.434 260.481 116.218 247.71 115.32C245.389 115.157 243.296 114.898 240.926 114.911C238.809 108.786 235.826 102.32 232.831 96.6291C227.546 86.5838 216.437 86.0135 206.729 83.4035C204.266 82.741 201.999 81.5732 199.39 80.9084C198.918 79.8418 198.143 78.4803 197.527 77.4972L197.549 70.1147C200.546 70.7818 202.503 70.6209 205.403 69.7373C215.795 66.57 216.451 49.8455 205.187 47.0552C205.159 44.7536 205.181 42.4166 205.182 40.1122L206.904 40.0518C207.44 31.5285 208.464 22.0046 202.911 14.8077C200.09 11.1509 196.11 8.4341 191.56 7.48359C190.506 7.1758 188.254 7.25853 187.327 6.866C182.294 4.7365 177.284 3.93328 171.832 4.31122C170.086 4.43228 168.168 4.84018 166.303 4.57275C162.724 4.05962 159.096 3.51033 155.492 2.99037L134.863 0.100328ZM205.039 84.2585C205.273 86.5912 205.825 88.6498 206.307 90.9388L208.814 102.658C207.642 103.167 201.075 106.703 200.609 107.524C201.172 108.622 206.21 112.767 207.497 113.921C205.138 119.211 202.75 125.526 200.545 130.98L197.11 139.514C196.71 140.519 194.817 143.999 195.989 144.629L196.352 144.546C197.587 141.842 198.706 138.831 199.825 136.054L204.785 123.769C205.865 121.03 208.074 116.115 208.904 113.485C206.956 111.608 204.371 109.485 202.277 107.707C204.197 106.589 208.587 104.262 210.155 103.163C208.843 97.3877 207.202 90.325 206.245 84.5087L206.468 84.5823C216.173 87.7328 226.538 86.9816 232.167 98.0162C234.436 102.463 236.081 106.327 238.01 110.896C242.188 120.898 246.04 131.033 249.558 141.285C251.467 146.677 253.734 152.334 254.966 157.916C255.387 159.823 255.216 163.196 254.628 165.072C253.008 170.381 249.299 174.609 243.435 175.231C239.478 175.652 235.287 175.223 231.306 175.372C224.705 175.316 218.013 175.437 211.432 175.296C212.943 168.566 211.957 159.801 208.085 154.004C211.515 153.605 228.373 153.582 229.751 152.915L229.95 152.632C229.843 152.134 229.971 152.34 229.497 152.033C228.118 151.943 227.042 151.983 225.666 152.028C223.359 143.233 220.983 134.455 218.539 125.697L216.441 118.225C216.189 117.314 215.868 115.17 215.215 114.642C214.723 114.73 214.935 114.625 214.567 114.981C214.541 116.178 216.827 124.022 217.286 125.722L224.467 152.128C219.164 152.241 213.799 152.513 208.498 152.777C204.806 152.961 199.865 152.749 196.373 153.109L195.276 154.284C194.292 154.042 193.388 153.816 192.386 153.639C192.305 135.781 193.949 117.955 197.297 100.413C198.129 96.0656 199.691 91.6154 200.671 87.2856C201.003 85.8207 200.824 84.6837 200.262 83.3445C200.082 82.916 199.955 82.7708 200.141 82.5389C201.723 83.0651 203.508 83.635 205.039 84.2585ZM186.97 34.6479C187.097 38.148 186.93 41.74 187.084 45.148C189.061 46.6224 191.189 48.2768 193.253 49.5916C192.352 50.9039 191.652 51.8873 191.104 53.409C189.059 59.0927 190.676 65.7955 195.751 69.2634C195.951 69.3998 196.153 69.533 196.357 69.6629C196.404 72.4643 196.411 75.2663 196.379 78.0679C190.52 80.9992 184.647 84.1548 178.779 87.1337C173.551 89.7341 166.462 93.895 161.141 95.9481C157.626 93.0871 153.66 88.9839 150.146 85.8706C150.459 81.3913 148.234 80.56 144.401 80.0304C143.81 79.5738 143.249 78.9709 142.748 78.4171C140.898 76.3789 138.829 74.5161 136.963 72.5013L136.97 47.4324C136.963 42.9637 137.039 38.27 136.954 33.8194L144.458 33.8568C145.48 33.8623 147.575 33.8284 148.517 33.9447C152.28 34.2369 157.32 34.1097 161.253 34.2076C169.822 34.4951 178.396 34.6419 186.97 34.6479ZM158.085 113.778C159.027 116.779 168.605 143.09 169.899 144.373C170.368 144.459 170.143 144.488 170.589 144.234C170.869 143.562 170.433 142.823 170.119 142.064C167.251 135.256 164.571 128.37 162.082 121.414C161.266 119.136 160.163 116.378 159.504 114.113C161.14 112.35 163.647 110.815 165.433 109.179C165.722 108.915 165.695 108.751 165.731 108.398C165.225 107.298 160.788 104.661 159.523 103.777C160.276 101.495 161.053 99.2209 161.856 96.9562C163.61 96.1639 167.222 94.6382 168.755 93.6982L169.626 101.066C170.616 106.642 171.059 112.925 171.415 118.581L172.478 134.93C172.753 139.667 172.905 144.378 173.426 149.096C168.13 150.555 162.361 153.02 159.296 157.857C156.902 149.235 154.429 140.636 151.877 132.059C151.497 130.791 150.683 128.498 150.477 127.368C149.067 119.631 145.592 121.314 139.292 121.15C139.936 120.268 141.516 116.478 142.037 115.303C143.745 111.464 145.475 107.634 147.231 103.816C149.377 99.184 150.893 95.3012 154.91 91.9322C156.306 93.2987 159.439 95.9595 160.486 97.2263C160.07 98.497 158.205 103.348 158.301 104.175C159.157 105.449 162.881 107.295 164.324 108.407C163.281 109.297 158.749 113.06 158.085 113.778ZM35.0259 180.007L33.4909 179.301C32.468 178.819 31.5461 178.38 30.5481 177.842C33.0284 173.008 33.151 167.096 31.3971 162.022C29.6975 157.105 26.9891 153.151 29.5827 148.05L29.6541 147.915C35.3441 148.518 51.4006 148.202 56.2447 145.576L56.2695 180.722C52.8984 184.831 38.0044 184.798 32.8576 184.424C33.7082 182.923 34.2561 181.519 35.0259 180.007ZM191.178 153.172L183.651 151.111C181.113 150.396 177.081 149.048 174.588 149.042C173.755 138.68 173.314 128.078 172.532 117.692C172.452 116.62 171.834 110.435 172.059 109.98C173.524 107.014 176.045 102.723 178.191 100.2L181.563 100.156C183.711 102.185 185.71 104.416 187.73 106.568C188.756 107.661 190.364 109.601 191.489 110.456C192.687 109.209 194.646 103.674 195.718 101.95C192.834 117.864 191.333 133.997 191.233 150.171L191.178 153.172ZM197.07 155.681C201.018 159.3 201.029 167.279 200.373 172.246C198.585 171.838 197.195 172.077 195.476 172.009C193.083 171.914 188.149 172.347 186.048 171.79C184.809 171.461 180.715 168.628 179.613 167.886C175.706 169.305 175.174 169.966 171.937 172.029L165.482 172.017C167.962 167.727 169.911 165.491 174.495 163.073C175.468 162.56 176.99 162.036 177.734 161.647C177.48 160.93 177.637 161.034 177.125 160.649C176.296 160.571 173.281 162.305 172.446 162.812C169.411 164.655 166.673 167.36 164.913 170.452C164.54 171.107 164.062 171.641 163.43 172.076C162.884 170.055 162.129 168.023 161.717 166.021C164.584 161.911 166.876 159.463 171.465 157.275C172.43 156.815 173.924 156.317 174.099 155.421L173.884 155.086C172.648 154.864 168.785 157.341 167.556 158.161C164.891 159.936 163.113 162.027 161.239 164.546C160.734 162.777 160.087 160.799 159.705 159.035C163.032 155.131 165.551 152.986 170.562 151.26C171.658 150.883 173.002 150.402 174.161 150.293C174.736 150.245 175.314 150.254 175.887 150.32C180.829 151.453 185.528 153.019 190.429 154.262C192.572 154.807 194.868 155.521 197.07 155.681ZM146.579 122.528C147.101 122.867 147.964 123.429 148.151 124.02C149.04 126.828 149.911 129.847 150.725 132.664L155.827 150.192L160.583 166.707C161.431 169.626 162.356 172.602 163.087 175.557C163.263 176.266 163.189 176.727 162.788 177.325C160.628 177.691 158.46 177.6 156.269 177.6L147.853 177.59L118.861 177.589L99.8324 177.595C98.0537 177.595 92.1495 177.721 90.6052 177.509C90.0744 177.135 89.5513 176.682 89.3542 176.047C88.6604 173.808 88.1001 171.475 87.4389 169.223L82.4442 152.274L76.7884 133.293C76.2963 131.64 73.8425 124.039 74.0411 123.086C74.3438 122.828 74.7256 122.548 75.1276 122.535C77.7243 122.453 80.4699 122.487 83.062 122.487L99.938 122.487L130.078 122.49C135.341 122.489 141.359 122.349 146.579 122.528ZM174.584 5.38839C183.31 5.97276 188.996 7.60496 195.14 14.4763C201.255 21.3154 202.823 30.9002 203.132 39.8153L200.426 39.8547L199.992 39.8326C199.704 39.3342 199.419 33.9275 199.239 32.7233C197.253 19.4423 190.251 10.249 177.019 6.58864C175.95 6.29311 173.704 5.95786 172.858 5.58535L172.97 5.43293C173.651 5.36045 173.903 5.34214 174.584 5.38839ZM199.811 86.1341C198.551 90.6958 197.738 94.2484 195.888 98.6418C194.774 101.286 192.008 106.316 191.248 108.709C190.341 107.605 188.846 105.886 187.828 104.893C186.186 102.955 184.441 101.376 182.754 99.566C183.998 98.1275 185.606 96.6277 186.955 95.2264C189.446 92.6631 191.834 90.0024 194.114 87.2509C194.922 86.2726 197.806 82.0522 198.369 81.7384C198.92 83.2698 199.359 84.5725 199.811 86.1341ZM177.157 99.5498C175.05 101.809 174.58 103.149 173.045 105.658C172.813 106.072 172.089 107.468 171.795 107.69C171.526 107.05 171.307 104.078 171.193 103.179L169.864 93.195C170.568 92.8014 171.293 92.4067 171.981 91.9912C173.89 94.484 175.317 97.1791 177.157 99.5498ZM206.638 154.018C210.311 159.376 211.702 167.428 210.545 173.781C210.448 174.304 210.333 174.824 210.199 175.338C208.906 175.346 203.031 175.458 202.093 175.248C201.881 174.781 201.887 174.722 201.827 174.203C201.394 172.701 201.735 171.09 201.847 169.539C202.123 165.698 201.83 161.959 200.294 158.37C199.268 155.972 198.669 155.142 196.237 154.203C199.14 154.175 203.848 154.259 206.638 154.018ZM28.0942 147.67C27.6829 148.867 27.1847 150.318 27.1614 151.583C27.0435 157.867 31.7944 163.103 31.3474 169.6C31.1457 172.519 30.4193 174.727 29.339 177.409C27.8816 176.577 26.3807 176.035 25.1297 175.316C24.5135 176.572 21.9665 182.003 21.3891 182.616C21.1641 182.653 21.1594 182.697 20.9995 182.633C18.7257 181.64 18.3501 181.003 18.361 178.424C18.3703 176.251 18.51 173.977 18.4091 171.81C16.8679 171.855 16.2377 171.818 14.7648 171.396C7.3783 169.282 3.6517 155.825 9.00488 150.307C10.377 148.888 12.2705 148.091 14.2448 148.102C16.0639 148.105 16.9067 148.592 18.4308 149.432C18.4308 148.783 18.3455 146.208 18.5457 145.803L18.6729 145.795C21.684 146.95 24.8705 147.585 28.0942 147.67ZM142.788 80.1623C141.686 80.2736 141.067 80.3092 140.094 80.9061C139.669 81.3907 139.18 81.9147 138.812 82.4365C134.679 80.4391 133.603 76.9228 135.655 72.8371C136.096 73.7312 141.669 79.0447 142.788 80.1623ZM54.4164 144.938C53.2957 145.269 49.6871 144.085 48.0775 143.902C44.5419 143.501 40.986 143.295 37.427 143.285C37.5015 142.399 37.5046 141.176 37.8057 140.4C38.2279 140.169 38.0991 140.24 38.6532 140.266C41.5711 140.347 54.9425 140.876 55.9001 143.757C55.6735 144.572 55.1489 144.64 54.4164 144.938ZM179.376 169.196C180.86 170.239 182.406 171.191 184.006 172.046L178.464 172.041C176.956 172.038 175.128 171.99 173.647 172.063C175.307 171.348 177.957 169.541 179.376 169.196ZM199.827 173.266C200.451 173.888 200.686 174.275 200.758 175.177C200.94 177.457 196.929 176.904 195.341 176.927L187.58 177.042C179.802 177.238 172.022 177.381 164.241 177.469C164.424 175.607 164.282 174.964 163.539 173.221C175.617 173.314 187.778 173.117 199.827 173.266ZM23.6024 184.035C23.9408 183.319 25.8965 179.085 26.3667 178.697C28.1299 179.481 29.8869 180.277 31.6392 181.084C31.3397 181.809 29.3142 186.254 28.9417 186.628C27.8536 185.93 24.8938 184.582 23.6024 184.035ZM176.43 96.4445C175.385 94.7224 174.294 93.0281 173.16 91.363C181.169 87.4723 189.124 83.019 197.086 79.1909C197.238 79.6096 197.605 80.3523 197.398 80.6719C193.972 85.9578 185.976 94.9934 181.51 98.9925C180.446 99.0322 179.381 99.0541 178.316 99.0583C177.975 98.6001 176.627 96.8574 176.43 96.4445ZM20.5976 145.17C20.0528 144.945 19.5049 144.726 18.9709 144.474C18.5736 143.919 18.6046 144.139 18.6854 143.597C20.551 140.793 32.8638 140.282 36.2955 140.242C36.2536 141.462 36.1838 142.107 35.9851 143.313C30.039 143.377 26.3015 143.583 20.5976 145.17ZM202.125 47.5754C201.709 48.1773 199.904 48.84 199.212 49.5781C194.492 54.61 194.837 63.654 200.281 68.0476C200.72 68.402 201.164 68.7197 201.598 69.0872C201.235 69.2676 201.096 69.1425 200.591 69.0492C198.493 68.2055 196.745 65.6941 195.893 63.6654C194.418 60.2164 194.407 56.3166 195.861 52.8588C196.993 50.1011 199.084 47.9806 202.125 47.5754Z" fill="black"/>
<path d="M121.751 71.2579L102.957 64.4648" stroke="black" stroke-width="1.47629"/>
<path d="M119.714 76.2414L106.354 74.8828" stroke="black" stroke-width="1.47629"/>
<path d="M119.034 83.4863L107.259 86.2036" stroke="black" stroke-width="1.47629"/>
<path d="M116.155 144.894C108.987 144.183 108.568 155.202 116.515 156.639C124.491 156.881 123.265 145.926 116.155 144.894ZM116.178 155.402C110.822 153.78 109.892 145.947 116.411 146.122C122.089 147.887 122.491 155.969 116.178 155.402Z" fill="black" fill-opacity="0.984314"/>
<path d="M172.585 49.2276C168.236 48.5457 164.166 51.543 163.527 55.8986C162.888 60.2539 165.925 64.2944 170.286 64.8911C174.588 65.4795 178.561 62.4932 179.191 58.1976C179.822 53.9018 176.874 49.8999 172.585 49.2276ZM166.865 62.3835C168.709 62.4594 169.386 62.5539 171.144 61.9057C172.363 60.8653 173.255 60.0194 173.36 58.2452C173.423 57.0204 172.992 55.8214 172.164 54.917C171.356 54.0427 170.231 53.531 169.041 53.4971C167.831 53.4625 166.658 53.9179 165.788 54.7602C165.399 55.1447 164.941 55.8313 164.624 56.2939C165.695 52.123 168.122 49.8967 172.538 50.3614C176.309 51.2414 178.818 54.7978 177.892 58.6284C177.471 60.4175 176.346 61.9607 174.77 62.9078C172.052 64.5327 169.445 63.8216 166.865 62.3835Z" fill="black"/>
<path d="M147.195 49.2238C142.885 48.6506 138.927 51.6836 138.359 55.9951C137.791 60.3064 140.83 64.2606 145.142 64.8225C149.446 65.3834 153.391 62.352 153.957 58.0486C154.524 53.745 151.498 49.796 147.195 49.2238ZM141.77 62.3751C143.543 62.3484 144.597 62.4547 146.233 61.6603C147.328 60.7393 148.046 59.8277 148.152 58.3256C148.235 57.0869 147.825 55.8655 147.009 54.929C146.216 54.0408 145.086 53.5257 143.895 53.5085C142.674 53.4886 141.494 53.9556 140.619 54.8065C140.206 55.2055 139.798 55.8415 139.476 56.3262C140.536 51.9399 142.925 49.8281 147.556 50.3841C151.428 51.764 153.868 55.5736 152.392 59.6055C151.792 61.2073 150.573 62.5005 149.01 63.1941C147.15 64.022 145.252 63.842 143.395 63.1077C142.844 62.8865 142.301 62.642 141.77 62.3751Z" fill="black"/>
<path d="M164.416 81.5998C171.601 81.2344 173.306 75.7539 173.306 75.7539H155.769C155.769 75.7539 157.23 81.9652 164.416 81.5998Z" stroke="black" stroke-width="1.2179" stroke-linecap="square"/>
<path d="M158.083 51.8828L153.698 70.1512H162.102" stroke="black" stroke-width="1.2179" stroke-linecap="square"/>
<path d="M166.243 40.5293L165.844 40.6814C165.517 41.0944 165.579 40.8683 165.633 41.3772C166.698 42.6386 177.853 46.3311 180.056 47.0443L180.436 46.9172C180.747 46.4349 180.701 46.6855 180.614 46.1481C180.336 45.8855 167.922 41.2714 166.243 40.5293Z" fill="black" fill-opacity="0.984314"/>
<path d="M151.537 40.4844C150.621 40.4865 139.816 45.054 138.762 45.7482C138.648 46.3093 138.675 46.1193 138.901 46.7299C140.273 46.4689 150.28 42.2378 151.565 41.4189C151.766 40.952 151.702 41.0996 151.537 40.4844Z" fill="black" fill-opacity="0.980392"/>
<path d="M16.3079 151.402C15.9898 151.371 15.67 151.347 15.3487 151.326C8.95252 150.945 9.18068 158.538 10.8492 162.606C11.5958 164.425 12.1731 165.325 13.5467 166.711C15.2059 168.105 16.3204 168.319 18.3614 169.075C18.5073 167.175 18.4421 164.679 18.4421 162.762L18.4312 152.057C17.5217 151.671 17.278 151.596 16.3079 151.402ZM17.16 167.251C15.6887 166.758 15.4201 166.576 14.2638 165.556C11.7975 162.689 10.2516 158.204 11.7013 154.477C12.1933 153.215 13.8494 152.463 15.1625 152.508C15.7849 152.63 16.5082 152.753 17.1119 152.911C17.1523 157.692 17.1678 162.472 17.16 167.251Z" fill="black" fill-opacity="0.988235"/>
<path d="M206.295 170.058C205.619 170.009 205.013 170.476 204.889 171.142C204.765 171.809 205.163 172.463 205.813 172.658C206.301 172.804 206.83 172.66 207.175 172.284C207.52 171.91 207.62 171.37 207.432 170.896C207.245 170.422 206.803 170.097 206.295 170.058Z" fill="black"/>
<path d="M35.9166 113.816C35.5348 114.114 35.3548 114.458 35.1934 114.928C33.3308 120.346 35.3315 125.387 37.5991 130.316C37.8242 130.807 37.9157 130.984 38.3457 131.13C38.8641 130.926 39.4228 130.836 39.1605 130.298C36.2938 124.426 34.8193 121.029 36.7936 114.505C36.6849 114.197 36.2596 114.028 35.9166 113.816Z" fill="black"/>
</g>
<defs>
<clipPath id="clip0_10755_7034">
<rect width="294" height="189.748" fill="white" transform="matrix(-1 0 0 1 294 0)"/>
</clipPath>
</defs>
</svg>
