<svg xmlns="http://www.w3.org/2000/svg" width="18" height="20" viewBox="0 0 18 20" fill="none">
    <path fill-rule="evenodd" clip-rule="evenodd" d="M13.5747 0.515287C10.5617 -0.171762 7.4373 -0.171762 4.42439 0.515287L4.09975 0.588557C3.25202 0.781335 2.47337 1.21035 1.8505 1.82782C1.22762 2.4453 0.784957 3.22702 0.571792 4.08594C-0.190597 7.15612 -0.190597 10.3718 0.571792 13.4419C0.775103 14.2611 1.18734 15.0107 1.76662 15.6147C2.34589 16.2187 3.07157 16.6555 3.86991 16.8807L4.31521 19.5927C4.32943 19.6788 4.36602 19.7594 4.42116 19.8262C4.47631 19.893 4.548 19.9435 4.62877 19.9724C4.70954 20.0013 4.79644 20.0077 4.88041 19.9907C4.96438 19.9737 5.04236 19.9341 5.10623 19.876L7.72155 17.4893C9.68479 17.6102 11.655 17.4501 13.5747 17.0136L13.9003 16.9403C14.748 16.7475 15.5266 16.3185 16.1495 15.701C16.7724 15.0836 17.215 14.3018 17.4282 13.4429C18.1906 10.3727 18.1906 7.1571 17.4282 4.08692C17.215 3.22787 16.7722 2.44607 16.1491 1.82858C15.526 1.21109 14.7472 0.782151 13.8993 0.589534L13.5747 0.515287ZM5.23264 4.00681C5.05465 3.98022 4.87311 4.01678 4.71838 4.11037H4.70497C4.34586 4.32529 4.02218 4.5959 3.74638 4.91437C3.51654 5.18498 3.39205 5.45852 3.35949 5.72229C3.34033 5.8786 3.35374 6.03686 3.39875 6.18633L3.41599 6.1961C3.67455 6.9708 4.01164 7.71619 4.42343 8.41762C4.95463 9.40269 5.60801 10.3138 6.36744 11.1286L6.39042 11.1618L6.42682 11.1892L6.44884 11.2155L6.47565 11.239C7.27718 12.016 8.17244 12.6857 9.13982 13.2319C10.2459 13.8464 10.9172 14.1365 11.3204 14.2577V14.2635C11.4382 14.3007 11.5454 14.3173 11.6536 14.3173C11.9972 14.2921 12.3224 14.1496 12.5768 13.9128C12.888 13.6315 13.1514 13.3003 13.3563 12.932V12.9251C13.5488 12.5539 13.4837 12.2042 13.206 11.9668C12.6486 11.469 12.0453 11.0273 11.4046 10.6479C10.9756 10.4105 10.5399 10.5542 10.3637 10.7945L9.98733 11.279C9.79389 11.5194 9.44339 11.4861 9.44339 11.4861L9.43381 11.492C6.81849 10.8111 6.12037 8.10989 6.12037 8.10989C6.12037 8.10989 6.08781 7.74257 6.33009 7.555L6.80125 7.16814C7.02726 6.98057 7.18431 6.53704 6.94203 6.09938C6.57101 5.44624 6.13903 4.83118 5.65208 4.26277C5.54557 4.1293 5.3964 4.03834 5.23072 4.00584M9.6512 2.83255C9.52421 2.83255 9.40242 2.88401 9.31262 2.97562C9.22282 3.06722 9.17238 3.19146 9.17238 3.32101C9.17238 3.45056 9.22282 3.5748 9.31262 3.66641C9.40242 3.75801 9.52421 3.80947 9.6512 3.80947C10.8626 3.80947 11.8681 4.21294 12.6639 4.98667C13.0729 5.40967 13.3917 5.91084 13.6005 6.45987C13.8102 7.00988 13.906 7.59701 13.8811 8.18511C13.8785 8.24926 13.8882 8.31331 13.9099 8.3736C13.9315 8.4339 13.9645 8.48925 14.0071 8.53652C14.0931 8.63197 14.2128 8.68865 14.3398 8.69409C14.4668 8.69953 14.5907 8.65329 14.6843 8.56553C14.7778 8.47777 14.8334 8.35569 14.8387 8.22614C14.8673 7.50279 14.7496 6.78118 14.493 6.10622C14.2352 5.42783 13.8427 4.81117 13.34 4.295L13.3305 4.28524C12.3431 3.32297 11.0934 2.83255 9.6512 2.83255ZM9.61864 4.43861C9.49164 4.43861 9.36985 4.49008 9.28006 4.58168C9.19026 4.67328 9.13982 4.79753 9.13982 4.92707C9.13982 5.05662 9.19026 5.18086 9.28006 5.27247C9.36985 5.36407 9.49164 5.41554 9.61864 5.41554H9.63492C10.5083 5.47904 11.1442 5.77602 11.5895 6.26351C12.0463 6.76564 12.2828 7.3899 12.2646 8.16167C12.2617 8.29122 12.3093 8.41664 12.3971 8.51035C12.4848 8.60406 12.6054 8.65838 12.7324 8.66136C12.8594 8.66434 12.9824 8.61574 13.0742 8.52624C13.1661 8.43674 13.2193 8.31368 13.2222 8.18414C13.2452 7.17107 12.9254 6.29672 12.2914 5.5992V5.59724C11.6431 4.888 10.7534 4.51286 9.6828 4.43959L9.66652 4.43764L9.61864 4.43861ZM9.60044 6.07496C9.53636 6.06919 9.4718 6.07665 9.41061 6.0969C9.34942 6.11715 9.29286 6.14977 9.2443 6.19281C9.19574 6.23586 9.15618 6.28844 9.12799 6.34742C9.09979 6.4064 9.08353 6.47058 9.08018 6.53611C9.07684 6.60165 9.08647 6.6672 9.1085 6.72885C9.13054 6.79051 9.16453 6.847 9.20844 6.89496C9.25235 6.94291 9.30528 6.98135 9.36408 7.00798C9.42287 7.0346 9.48632 7.04887 9.55064 7.04993C9.95094 7.07142 10.2066 7.19451 10.3675 7.35961C10.5294 7.52569 10.65 7.79239 10.672 8.20954C10.6732 8.27509 10.6874 8.33972 10.7136 8.39959C10.7398 8.45946 10.7775 8.51333 10.8245 8.558C10.8716 8.60267 10.927 8.63722 10.9874 8.65959C11.0478 8.68197 11.112 8.6917 11.1762 8.68823C11.2404 8.68475 11.3032 8.66813 11.3609 8.63935C11.4187 8.61058 11.4702 8.57024 11.5123 8.52074C11.5544 8.47124 11.5864 8.41359 11.6062 8.35123C11.6261 8.28887 11.6334 8.22307 11.6278 8.15776C11.5971 7.57161 11.4171 7.05384 11.0484 6.67284C10.6778 6.29184 10.1731 6.10622 9.60044 6.07496Z" fill="#795BFD"/>
    <path fill-rule="evenodd" clip-rule="evenodd" d="M13.5747 0.515287C10.5617 -0.171762 7.4373 -0.171762 4.42439 0.515287L4.09975 0.588557C3.25202 0.781335 2.47337 1.21035 1.8505 1.82782C1.22762 2.4453 0.784957 3.22702 0.571792 4.08594C-0.190597 7.15612 -0.190597 10.3718 0.571792 13.4419C0.775103 14.2611 1.18734 15.0107 1.76662 15.6147C2.34589 16.2187 3.07157 16.6555 3.86991 16.8807L4.31521 19.5927C4.32943 19.6788 4.36602 19.7594 4.42116 19.8262C4.47631 19.893 4.548 19.9435 4.62877 19.9724C4.70954 20.0013 4.79644 20.0077 4.88041 19.9907C4.96438 19.9737 5.04236 19.9341 5.10623 19.876L7.72155 17.4893C9.68479 17.6102 11.655 17.4501 13.5747 17.0136L13.9003 16.9403C14.748 16.7475 15.5266 16.3185 16.1495 15.701C16.7724 15.0836 17.215 14.3018 17.4282 13.4429C18.1906 10.3727 18.1906 7.1571 17.4282 4.08692C17.215 3.22787 16.7722 2.44607 16.1491 1.82858C15.526 1.21109 14.7472 0.782151 13.8993 0.589534L13.5747 0.515287ZM5.23264 4.00681C5.05465 3.98022 4.87311 4.01678 4.71838 4.11037H4.70497C4.34586 4.32529 4.02218 4.5959 3.74638 4.91437C3.51654 5.18498 3.39205 5.45852 3.35949 5.72229C3.34033 5.8786 3.35374 6.03686 3.39875 6.18633L3.41599 6.1961C3.67455 6.9708 4.01164 7.71619 4.42343 8.41762C4.95463 9.40269 5.60801 10.3138 6.36744 11.1286L6.39042 11.1618L6.42682 11.1892L6.44884 11.2155L6.47565 11.239C7.27718 12.016 8.17244 12.6857 9.13982 13.2319C10.2459 13.8464 10.9172 14.1365 11.3204 14.2577V14.2635C11.4382 14.3007 11.5454 14.3173 11.6536 14.3173C11.9972 14.2921 12.3224 14.1496 12.5768 13.9128C12.888 13.6315 13.1514 13.3003 13.3563 12.932V12.9251C13.5488 12.5539 13.4837 12.2042 13.206 11.9668C12.6486 11.469 12.0453 11.0273 11.4046 10.6479C10.9756 10.4105 10.5399 10.5542 10.3637 10.7945L9.98733 11.279C9.79389 11.5194 9.44339 11.4861 9.44339 11.4861L9.43381 11.492C6.81849 10.8111 6.12037 8.10989 6.12037 8.10989C6.12037 8.10989 6.08781 7.74257 6.33009 7.555L6.80125 7.16814C7.02726 6.98057 7.18431 6.53704 6.94203 6.09938C6.57101 5.44624 6.13903 4.83118 5.65208 4.26277C5.54557 4.1293 5.3964 4.03834 5.23072 4.00584M9.6512 2.83255C9.52421 2.83255 9.40242 2.88401 9.31262 2.97562C9.22282 3.06722 9.17238 3.19146 9.17238 3.32101C9.17238 3.45056 9.22282 3.5748 9.31262 3.66641C9.40242 3.75801 9.52421 3.80947 9.6512 3.80947C10.8626 3.80947 11.8681 4.21294 12.6639 4.98667C13.0729 5.40967 13.3917 5.91084 13.6005 6.45987C13.8102 7.00988 13.906 7.59701 13.8811 8.18511C13.8785 8.24926 13.8882 8.31331 13.9099 8.3736C13.9315 8.4339 13.9645 8.48925 14.0071 8.53652C14.0931 8.63197 14.2128 8.68865 14.3398 8.69409C14.4668 8.69953 14.5907 8.65329 14.6843 8.56553C14.7778 8.47777 14.8334 8.35569 14.8387 8.22614C14.8673 7.50279 14.7496 6.78118 14.493 6.10622C14.2352 5.42783 13.8427 4.81117 13.34 4.295L13.3305 4.28524C12.3431 3.32297 11.0934 2.83255 9.6512 2.83255ZM9.61864 4.43861C9.49164 4.43861 9.36985 4.49008 9.28006 4.58168C9.19026 4.67328 9.13982 4.79753 9.13982 4.92707C9.13982 5.05662 9.19026 5.18086 9.28006 5.27247C9.36985 5.36407 9.49164 5.41554 9.61864 5.41554H9.63492C10.5083 5.47904 11.1442 5.77602 11.5895 6.26351C12.0463 6.76564 12.2828 7.3899 12.2646 8.16167C12.2617 8.29122 12.3093 8.41664 12.3971 8.51035C12.4848 8.60406 12.6054 8.65838 12.7324 8.66136C12.8594 8.66434 12.9824 8.61574 13.0742 8.52624C13.1661 8.43674 13.2193 8.31368 13.2222 8.18414C13.2452 7.17107 12.9254 6.29672 12.2914 5.5992V5.59724C11.6431 4.888 10.7534 4.51286 9.6828 4.43959L9.66652 4.43764L9.61864 4.43861ZM9.60044 6.07496C9.53636 6.06919 9.4718 6.07665 9.41061 6.0969C9.34942 6.11715 9.29286 6.14977 9.2443 6.19281C9.19574 6.23586 9.15618 6.28844 9.12799 6.34742C9.09979 6.4064 9.08353 6.47058 9.08018 6.53611C9.07684 6.60165 9.08647 6.6672 9.1085 6.72885C9.13054 6.79051 9.16453 6.847 9.20844 6.89496C9.25235 6.94291 9.30528 6.98135 9.36408 7.00798C9.42287 7.0346 9.48632 7.04887 9.55064 7.04993C9.95094 7.07142 10.2066 7.19451 10.3675 7.35961C10.5294 7.52569 10.65 7.79239 10.672 8.20954C10.6732 8.27509 10.6874 8.33972 10.7136 8.39959C10.7398 8.45946 10.7775 8.51333 10.8245 8.558C10.8716 8.60267 10.927 8.63722 10.9874 8.65959C11.0478 8.68197 11.112 8.6917 11.1762 8.68823C11.2404 8.68475 11.3032 8.66813 11.3609 8.63935C11.4187 8.61058 11.4702 8.57024 11.5123 8.52074C11.5544 8.47124 11.5864 8.41359 11.6062 8.35123C11.6261 8.28887 11.6334 8.22307 11.6278 8.15776C11.5971 7.57161 11.4171 7.05384 11.0484 6.67284C10.6778 6.29184 10.1731 6.10622 9.60044 6.07496Z" fill="black"/>
  </svg>