<svg width="139" height="100" viewBox="0 0 139 100" fill="none" xmlns="http://www.w3.org/2000/svg">
<path d="M81.3507 24.8155C80.8193 25.5664 80.5624 26.4267 80.5547 27.2813L80.5547 27.3518C80.5655 28.6908 81.1946 30.0043 82.3653 30.8423C84.3093 32.2227 86.9924 31.7695 88.3725 29.8243C88.9038 29.075 89.1586 28.2116 89.17 27.357L89.17 27.2922C89.1576 25.9532 88.5301 24.6325 87.3578 23.796C86.6006 23.2588 85.7266 23 84.866 23C83.5185 23 82.1932 23.6311 81.3507 24.8155Z" fill="black"/>
<path d="M69.8187 53.718C76.3681 53.4551 81.6051 48.0594 81.6232 41.4192C81.6454 34.5995 76.1515 29.0534 69.3556 29.0332L69.3163 29.0332C62.6434 29.0332 57.2053 34.3651 57.0156 41.0219L57.0156 41.7381C57.2007 48.2207 62.3669 53.4582 68.817 53.7175L69.8187 53.718Z" fill="black"/>
<path d="M66.6541 70.2275L65.7351 70.2275C65.5759 70.2275 65.5273 70.3437 65.5273 70.4381L65.5273 76.7226C65.5273 76.8165 65.5759 76.9326 65.7351 76.9326L66.6541 76.9326C66.7772 76.9326 66.8619 76.8585 66.8619 76.7226L66.8619 70.4381C66.8619 70.3017 66.7772 70.2275 66.6541 70.2275Z" fill="black"/>
<path d="M83.0801 60.5508L79.6625 60.5508C79.5705 60.5508 79.4531 60.6016 79.4531 60.7613L79.4531 61.6916C79.4531 61.8151 79.5286 61.9022 79.6625 61.9022L80.69 61.9022L80.69 67.0458C80.69 67.1817 80.7769 67.2559 80.8963 67.2559L81.8473 67.2559C82.0024 67.2559 82.0535 67.1381 82.0535 67.0458L82.0535 61.9022L83.0801 61.9022C83.2139 61.9022 83.2889 61.8156 83.2889 61.6916L83.2889 60.7613C83.2884 60.6021 83.1705 60.5508 83.0801 60.5508Z" fill="black"/>
<path d="M69.3776 67.0462L69.3776 64.5804L70.7411 64.5804L70.7411 67.0457C70.7411 67.1816 70.8295 67.2557 70.9504 67.2557L71.8694 67.2557C72.0286 67.2557 72.0772 67.1396 72.0772 67.0457L72.0772 60.7617C72.0772 60.6689 72.0286 60.5527 71.8694 60.5527L70.9504 60.5527C70.8295 60.5527 70.7411 60.6274 70.7411 60.7617L70.7411 63.2285L69.3776 63.2285L69.3776 60.7617C69.3776 60.6274 69.2902 60.5527 69.1713 60.5527L68.2487 60.5527C68.0895 60.5527 68.043 60.6689 68.043 60.7617L68.043 67.0462C68.043 67.1401 68.0895 67.2562 68.2487 67.2562L69.1713 67.2562C69.2902 67.2562 69.3776 67.1816 69.3776 67.0462Z" fill="black"/>
<path d="M53.2124 60.5508L52.418 60.5508L50.5686 60.5508L49.7767 60.5508C49.617 60.5508 49.5234 60.6016 49.5234 60.8121L49.5234 67.0458C49.5234 67.1381 49.5741 67.2559 49.7297 67.2559L50.6518 67.2559C50.7717 67.2559 50.858 67.1817 50.858 67.0458L50.858 61.9022L52.1311 61.9022L52.1311 67.0458C52.1311 67.1817 52.2174 67.2559 52.3389 67.2559L53.2579 67.2559C53.4171 67.2559 53.4657 67.1381 53.4657 67.0458L53.4657 60.8121C53.4652 60.6021 53.3711 60.5508 53.2124 60.5508Z" fill="black"/>
<path d="M59.6951 67.0434L59.6951 60.8113C59.6951 60.5992 59.6015 60.5479 59.4402 60.5479L58.6484 60.5479L58.3595 60.5479L57.5567 60.5479C56.6222 60.5479 56.1152 61.0109 56.1152 62.0247L56.1152 64.015C56.1152 64.365 56.1694 65.439 55.9477 65.9072C55.7988 66.2158 55.5673 66.3081 55.4195 66.3895C55.3021 66.46 55.2768 66.5492 55.3342 66.7038C55.3703 66.8054 55.5115 67.1248 55.5544 67.2368C55.5947 67.3349 55.6743 67.4199 55.8221 67.3914C56.0645 67.3385 56.4243 67.2534 56.7354 66.9485C57.0812 66.6115 57.4229 66.263 57.4229 64.1913L57.4229 62.2135C57.4229 61.7763 57.7252 61.7852 57.9889 61.7852L58.3595 61.7852L58.3595 67.0429C58.3595 67.1788 58.4478 67.2534 58.5672 67.2534L59.4873 67.2534C59.6444 67.254 59.6951 67.1357 59.6951 67.0434Z" fill="black"/>
<path d="M72.8186 70.2275L71.8981 70.2275C71.7766 70.2275 71.6903 70.3017 71.6903 70.4381L71.6903 72.9049L70.3268 72.9049L70.3268 70.4381C70.3268 70.3017 70.2405 70.2275 70.119 70.2275L69.1984 70.2275C69.0408 70.2275 68.9922 70.3437 68.9922 70.4381L68.9922 76.7226C68.9922 76.8165 69.0408 76.9326 69.1984 76.9326L70.119 76.9326C70.2405 76.9326 70.3268 76.8585 70.3268 76.7226L70.3268 74.2573L71.6903 74.2573L71.6903 76.7226C71.6903 76.8585 71.7766 76.9326 71.8981 76.9326L72.8186 76.9326C72.9778 76.9326 73.0249 76.8165 73.0249 76.7226L73.0249 70.4381C73.0249 70.3432 72.9778 70.2275 72.8186 70.2275Z" fill="black"/>
<path d="M75.2042 67.2584L77.6929 67.2584C77.848 67.2584 77.9152 67.1801 77.9152 67.0189L77.9152 66.0937C77.9152 65.9506 77.8775 65.9071 77.7296 65.9071L75.5851 65.9071L75.5851 64.6584L77.0272 64.6584C77.1869 64.6584 77.2443 64.5935 77.2443 64.4317L77.2443 63.5408C77.2443 63.3811 77.1761 63.307 77.02 63.307L76.5248 63.307L75.9464 63.307L75.5851 63.307L75.5851 61.9022L77.4903 61.9022C77.65 61.9022 77.6965 61.8534 77.6965 61.6916L77.6965 60.7956C77.6965 60.6322 77.6319 60.5508 77.4722 60.5508L75.2957 60.5508L75.2052 60.5508L74.4785 60.5508C74.3265 60.5508 74.25 60.6358 74.25 60.7831L74.25 67.0349C74.25 67.1397 74.3151 67.2579 74.4438 67.2579L75.1907 67.2579L75.2042 67.2584Z" fill="black"/>
<path d="M66.2601 66.9748L64.5451 60.7758C64.5017 60.6213 64.4112 60.5508 64.252 60.5508L64.1962 60.5508L63.4364 60.5508L63.379 60.5508C63.2198 60.5508 63.1293 60.6213 63.0875 60.7758L61.3709 66.9748C61.3291 67.1293 61.4056 67.2559 61.527 67.2559L62.4114 67.2559C62.5871 67.2559 62.6461 67.2019 62.6807 67.0764L62.8942 66.2275L64.7136 66.2275L64.7389 66.2255L64.9524 67.0764C64.9844 67.2014 65.0444 67.2559 65.2201 67.2559L66.1055 67.2559C66.2254 67.2559 66.3009 67.1288 66.2601 66.9748ZM63.2327 64.8741L63.7403 62.8511L63.8158 62.3632L63.8923 62.8511L64.4004 64.8741L63.2327 64.8741Z" fill="black"/>
<path d="M87.4381 60.7758C87.3962 60.6213 87.3057 60.5508 87.1465 60.5508L87.0907 60.5508L86.3309 60.5508L86.2735 60.5508C86.1143 60.5508 86.0239 60.6213 85.982 60.7758L84.2655 66.9748C84.2236 67.1293 84.3001 67.2559 84.4216 67.2559L85.3054 67.2559C85.4812 67.2559 85.5401 67.2019 85.5747 67.0764L85.7882 66.2275L87.6076 66.2275L87.6329 66.2255L87.8464 67.0764C87.8784 67.2014 87.9384 67.2559 88.1141 67.2559L88.9995 67.2559C89.1195 67.2559 89.1949 67.1293 89.1541 66.9748L87.4381 60.7758ZM86.1247 64.8741L86.6348 62.8511L86.7103 62.3632L86.7868 62.8511L87.2944 64.8741L86.1247 64.8741Z" fill="black"/>
<path d="M77.1287 70.1631C75.8753 70.1631 74.9392 70.858 74.9392 72.3328C74.9392 73.2994 74.9258 73.4233 74.9258 74.7109C74.9258 76.2386 75.8086 77.0004 77.1287 77.0004C78.4524 77.0004 79.326 76.1857 79.326 74.7109C79.326 73.6862 79.3332 73.679 79.3332 72.4396C79.3332 70.956 78.3837 70.1631 77.1287 70.1631ZM77.979 74.8307C77.979 75.4006 77.6389 75.7434 77.1287 75.7434C76.6211 75.7434 76.279 75.4188 76.279 74.8307C76.279 74.3339 76.2862 72.6641 76.2862 72.2928C76.2862 71.7229 76.646 71.4237 77.1287 71.4237C77.6136 71.4237 77.979 71.7613 77.979 72.3328C77.979 72.8099 77.979 74.4335 77.979 74.8307Z" fill="black"/>
<path d="M63.385 74.9523C63.1478 73.9857 62.573 73.5952 62.0158 73.4754L62.0448 73.4681C62.7395 73.2576 62.9984 72.7551 63.1767 72.095C63.323 71.5582 63.6507 70.4879 63.6507 70.4879C63.6926 70.3407 63.6399 70.2266 63.4807 70.2266L62.602 70.2266C62.4784 70.2266 62.4066 70.2572 62.3668 70.4029C62.3668 70.4029 61.9998 71.7273 61.8969 72.1079C61.776 72.5669 61.546 72.7738 61.2167 72.7738L60.8223 72.7738L60.8223 70.4392C60.8223 70.3028 60.736 70.2286 60.6146 70.2286L59.6945 70.2286C59.5369 70.2286 59.4883 70.3448 59.4883 70.4392L59.4883 76.7237C59.4883 76.816 59.5369 76.9322 59.6945 76.9322L60.6146 76.9322C60.736 76.9322 60.8223 76.8596 60.8223 76.7237L60.8223 74.2325L61.1485 74.2325C61.4778 74.2325 62.02 74.4503 62.1554 75.085C62.2551 75.5481 62.5151 76.7507 62.5151 76.7507C62.5482 76.8886 62.6185 76.9358 62.7772 76.9358L63.6621 76.9358C63.7779 76.9358 63.859 76.843 63.8213 76.6801C63.8213 76.6791 63.5174 75.4853 63.385 74.9523Z" fill="black"/>
</svg>
