<svg width="139" height="100" viewBox="0 0 139 100" fill="none" xmlns="http://www.w3.org/2000/svg">
<g clip-path="url(#clip0_49_751)">
<path d="M35.2002 42.9482L34.7108 42.9482L34.7108 41.5L31.7202 41.5L31.7202 42.9482L31.1764 42.9482C27.9139 42.9482 25.8477 44.837 25.8477 48.237L25.8477 48.8667C25.8477 52.2037 27.8595 54.0926 31.2308 54.0926L31.7202 54.0926L31.7202 55.5407L34.7108 55.5407L34.7108 54.0926L35.2002 54.0926C38.517 54.0926 40.5833 52.2037 40.5833 48.8037L40.5833 48.1741C40.5833 44.7111 38.517 42.8852 35.2002 42.8852L35.2002 42.9482ZM31.0677 51.637C29.5995 51.637 28.8383 50.5667 28.8383 48.6778L28.8383 48.4259C28.8383 46.537 29.5995 45.4667 31.0677 45.4667L31.7202 45.4667L31.7202 51.5741L31.0677 51.5741L31.0677 51.637ZM37.5927 48.6778C37.5927 50.5667 36.777 51.637 35.3089 51.637L34.7108 51.637L34.7108 45.4667L35.3089 45.4667C36.777 45.4667 37.5927 46.4741 37.5927 48.4259L37.5927 48.6778ZM46.6733 45.5296C43.7914 45.5296 41.8339 47.6074 41.8339 50.5667C41.8339 53.5889 43.7914 55.6037 46.6733 55.6037C49.5552 55.6037 51.5127 53.5889 51.5127 50.5667C51.5127 47.6074 49.5552 45.5296 46.6733 45.5296ZM46.6733 53.0852C45.4227 53.0852 44.607 52.0778 44.607 50.5667C44.607 49.0556 45.4227 48.0482 46.6733 48.0482C47.8695 48.0482 48.7395 49.0556 48.7395 50.5667C48.7395 52.0778 47.8695 53.0852 46.6733 53.0852ZM62.442 45.7185L59.2883 45.7185L56.0258 50.2519L56.0258 45.7185L53.307 45.7185L53.307 55.4148L56.0258 55.4148L56.0258 50.8815L59.2883 55.4148L62.6595 55.4148L58.8533 50.3778L62.442 45.7185ZM67.6077 48.0482C68.532 48.0482 69.1845 48.6778 69.402 49.5593L72.1208 49.5593C71.9033 47.1667 70.2177 45.5296 67.662 45.5296C64.7802 45.5296 62.8227 47.6074 62.8227 50.5667C62.8227 53.5889 64.7802 55.6037 67.7164 55.6037C70.2177 55.6037 71.9033 53.9667 72.0664 51.637L69.402 51.637C69.2926 52.0854 69.0561 52.4782 68.7307 52.7522C68.4053 53.0263 68.0098 53.1657 67.6077 53.1482C66.4114 53.1482 65.5958 52.0778 65.5958 50.6296C65.5958 49.0556 66.4114 48.0482 67.6077 48.0482ZM72.8277 45.7185L72.8277 48.3L75.8727 48.3L75.8727 55.4148L78.5914 55.4148L78.5914 48.3L81.582 48.3L81.582 45.7815L72.882 45.7815L72.8277 45.7185ZM88.2158 45.6556C87.1283 45.6556 86.1495 46.1593 85.497 47.1037L85.497 45.7185L82.9414 45.7185L82.9414 58.3111L85.6602 58.3111L85.6602 54.2815C86.3127 55.037 87.1827 55.5407 88.2158 55.5407C90.717 55.5407 92.4027 53.463 92.4027 50.5667C92.4027 47.6704 90.717 45.6556 88.2158 45.6556ZM87.5633 53.1482C86.367 53.1482 85.497 52.0778 85.497 50.6296C85.497 49.0556 86.367 48.0482 87.5633 48.0482C88.8139 48.0482 89.6295 49.0556 89.6295 50.5667C89.6295 52.0778 88.8139 53.0852 87.5633 53.0852L87.5633 53.1482ZM98.547 45.5296C95.6652 45.5296 93.7077 47.6074 93.7077 50.5667C93.7077 53.5889 95.6652 55.6037 98.547 55.6037C101.429 55.6037 103.386 53.5889 103.386 50.5667C103.386 47.6074 101.429 45.5296 98.4927 45.5296L98.547 45.5296ZM98.547 53.0852C97.2964 53.0852 96.4808 52.0778 96.4808 50.5667C96.4808 49.0556 97.2964 48.0482 98.547 48.0482C99.7433 48.0482 100.613 49.0556 100.613 50.5667C100.613 52.0778 99.7433 53.0852 98.547 53.0852ZM104.148 45.7185L104.148 48.3L107.138 48.3L107.138 55.4148L109.857 55.4148L109.857 48.3L112.848 48.3L112.848 45.7815L104.148 45.7815L104.148 45.7185Z" fill="black"/>
</g>
<defs>
<clipPath id="clip0_49_751">
<rect width="87" height="17" fill="white" transform="translate(25.8477 41.5)"/>
</clipPath>
</defs>
</svg>
