<svg width="139" height="100" viewBox="0 0 139 100" fill="none" xmlns="http://www.w3.org/2000/svg">
<g clip-path="url(#clip0_49_670)">
<path d="M50.5898 48.7502L50.5898 44.999L51.4835 44.999L52.6837 46.5804L53.8199 44.999L54.6625 44.999L54.6625 48.7502L53.7688 48.7502L53.7688 46.3597L52.6837 47.8185L52.556 47.8185L51.4708 46.3843L51.4708 48.7502L50.5898 48.7502Z" fill="black"/>
<path d="M55.6211 48.7502L55.6211 44.999L57.9319 44.999L57.9319 45.8081L56.5148 45.8081L56.5148 46.47L57.766 46.47L57.766 47.2669L56.5148 47.2669L56.5148 47.9411L57.9958 47.9411L57.9958 48.7502L55.6211 48.7502Z" fill="black"/>
<path d="M59.7062 48.7494L58.8125 48.7494L58.8125 44.9493L59.9998 44.9493C60.4328 44.9136 60.8632 45.0411 61.1999 45.3048C61.3198 45.4208 61.4143 45.5586 61.4779 45.7102C61.5415 45.8617 61.5729 46.024 61.5702 46.1874C61.5713 46.3546 61.5367 46.5202 61.4686 46.6741C61.4006 46.828 61.3004 46.9669 61.1744 47.0823C61.0336 47.2066 60.8687 47.3031 60.6891 47.3662C60.5094 47.4293 60.3186 47.4578 60.1275 47.45L59.6934 47.45L59.7062 48.7494ZM59.7062 45.8074L59.7062 46.6655L60.1147 46.6655C60.1848 46.6754 60.2562 46.6697 60.3236 46.6488C60.3909 46.6278 60.4523 46.5922 60.503 46.5448C60.5536 46.4973 60.5922 46.4393 60.6156 46.3752C60.6391 46.311 60.6468 46.2426 60.6382 46.1751C60.6382 45.8809 60.4595 45.7461 60.102 45.7461L59.7062 45.7461" fill="black"/>
<path d="M62.2617 48.7502L62.2617 44.999L64.5853 44.999L64.5853 45.8081L63.1554 45.8081L63.1554 46.47L64.4066 46.47L64.4066 47.2669L63.1554 47.2669L63.1554 47.9411L64.6364 47.9411L64.6364 48.7502L62.2617 48.7502Z" fill="black"/>
<path d="M66.5382 46.801L65.1849 44.999L66.2191 44.999L67.3936 46.6417L67.3936 44.999L68.2873 44.999L68.2873 46.6417L69.4618 44.999L70.4833 44.999L69.13 46.7888L70.5469 48.7502L69.5258 48.7502L68.2873 46.9604L68.2873 48.7502L67.3936 48.7502L67.3936 46.9604L66.1552 48.7502L65.1211 48.7502L66.5382 46.801Z" fill="black"/>
<path d="M70.8906 48.7494L72.5123 44.9492L73.3036 44.9492L74.9253 48.7494L73.9677 48.7494L73.6483 47.9649L72.1036 47.9649L71.7846 48.7494L70.8906 48.7494ZM72.8823 46.1015L72.4483 47.1558L73.3166 47.1558L72.8823 46.1015Z" fill="black"/>
<path d="M76.2656 48.7494L77.8743 44.9492L78.666 44.9492L80.3003 48.7494L79.3427 48.7494L79.0233 47.9649L77.4786 47.9649L77.1596 48.7494L76.2656 48.7494ZM78.2829 46.1015L77.849 47.1558L78.7169 47.1558L78.2829 46.1015Z" fill="black"/>
<path d="M83.1348 48.7502L83.1348 45.8081L81.7686 45.8081L81.7686 48.7502L80.875 48.7502L80.875 44.999L84.0157 44.999L84.0157 48.7502L83.1348 48.7502Z" fill="black"/>
<path d="M84.6289 45.8081L84.6289 44.999L87.8592 44.999L87.8592 45.8081L86.6845 45.8081L86.6845 48.7502L85.791 48.7502L85.791 45.8081L84.6289 45.8081Z" fill="black"/>
<path d="M88.457 48.7502L88.457 44.999L90.7681 44.999L90.7681 45.8081L89.351 45.8081L89.351 46.47L90.6019 46.47L90.6019 47.2669L89.351 47.2669L89.351 47.9411L90.8191 47.9411L90.8191 48.7502L88.457 48.7502Z" fill="black"/>
<path d="M91.6484 48.7502L91.6484 44.999L92.5424 44.999L92.5424 46.6417L93.8063 44.999L94.8788 44.999L93.4233 46.7275L94.9937 48.7502L93.8699 48.7502L92.5424 46.9727L92.5424 48.7502L91.6484 48.7502Z" fill="black"/>
<path d="M53.6029 55.0015L53.6029 51.0788L51.7772 51.0788L51.7772 55.0015L50.5898 55.0015L50.5898 50L54.7902 50L54.7902 55.0015L53.6029 55.0015Z" fill="black"/>
<path d="M56.2679 50.7494C56.5314 50.5005 56.8452 50.3058 57.1898 50.1772C57.5344 50.0487 57.9028 49.9889 58.2723 50.0017C58.9909 49.9868 59.6872 50.2419 60.2129 50.7127C60.4739 50.9543 60.6784 51.2465 60.8127 51.5699C60.947 51.8933 61.008 52.2404 60.9917 52.5883C61.0061 52.934 60.9442 53.2788 60.81 53.6C60.6758 53.9211 60.4722 54.2113 60.2129 54.4516C59.9497 54.6925 59.6392 54.8806 59.2994 55.0047C58.9595 55.1289 58.5973 55.1868 58.234 55.1748C57.4983 55.2001 56.7821 54.9444 56.2423 54.4638C55.9813 54.2222 55.7768 53.93 55.6425 53.6066C55.5082 53.2832 55.4472 52.9361 55.4635 52.5883C55.451 52.2475 55.5127 51.9079 55.6446 51.5913C55.7765 51.2747 55.9757 50.9879 56.2296 50.7494L56.2679 50.7494ZM57.1998 53.618C57.4889 53.892 57.8788 54.0456 58.285 54.0456C58.6912 54.0456 59.0811 53.892 59.3703 53.618C59.6386 53.3141 59.7796 52.9252 59.766 52.527C59.7751 52.3263 59.7412 52.126 59.6666 51.9383C59.5919 51.7507 59.478 51.5797 59.3319 51.4359C59.1923 51.2998 59.0252 51.1925 58.8407 51.1208C58.6562 51.0492 58.4585 51.0145 58.2595 51.0191C58.0605 51.0138 57.8625 51.0481 57.6779 51.1198C57.4933 51.1916 57.3262 51.2992 57.1871 51.4359C56.9098 51.7346 56.7566 52.1207 56.7566 52.5208C56.7566 52.9209 56.9098 53.307 57.1871 53.6057" fill="black"/>
<path d="M61.6875 55.8596L61.6875 53.935L62.2493 53.935C62.4615 53.6101 62.6168 53.254 62.7089 52.8808C62.8704 52.2674 62.9561 51.6379 62.9642 51.0052L62.9642 50L66.3602 50L66.3602 53.9228L67.0624 53.9228L67.0624 55.8596L65.9517 55.8596L65.9517 55.0015L62.7599 55.0015L62.7599 55.8596L61.6875 55.8596ZM64.1132 51.9123C64.0719 52.3273 63.9907 52.7376 63.8707 53.1382C63.8081 53.4143 63.7004 53.6791 63.5515 53.9228L65.2495 53.9228L65.2495 51.0788L64.1898 51.0788L64.1132 51.9123Z" fill="black"/>
<path d="M68.3272 50.662C68.5908 50.413 68.9045 50.2183 69.2492 50.0898C69.5939 49.9612 69.9619 49.9015 70.3315 49.9142C70.6962 49.9003 71.0596 49.9561 71.4017 50.0781C71.7433 50.2002 72.0566 50.3861 72.3232 50.6252C72.5844 50.8668 72.7889 51.159 72.923 51.4824C73.0574 51.8058 73.1183 52.153 73.1022 52.5008C73.113 52.8454 73.0482 53.1884 72.9119 53.5074C72.7755 53.8263 72.5706 54.1141 72.3106 54.3518C72.0474 54.5928 71.7368 54.7808 71.3971 54.905C71.0573 55.0292 70.695 55.087 70.3315 55.0751C69.5958 55.1003 68.8798 54.8446 68.34 54.3641C68.0789 54.1225 67.8744 53.8302 67.7402 53.5068C67.6059 53.1835 67.5449 52.8363 67.5612 52.4885C67.5487 52.1477 67.6103 51.8082 67.7422 51.4915C67.8741 51.1749 68.0733 50.8882 68.3272 50.6497L68.3272 50.662ZM69.2592 53.5305C69.5483 53.8045 69.9382 53.9581 70.3446 53.9581C70.7506 53.9581 71.1405 53.8045 71.4296 53.5305C71.6977 53.2266 71.8391 52.8377 71.8253 52.4395C71.8345 52.2388 71.8004 52.0385 71.7261 51.8508C71.6514 51.6632 71.5373 51.4922 71.3913 51.3485C71.2515 51.2123 71.0845 51.105 70.8999 51.0333C70.7157 50.9617 70.5177 50.9271 70.3189 50.9317C70.1197 50.9263 69.9217 50.9606 69.7371 51.0323C69.5525 51.104 69.3855 51.2117 69.2464 51.3485C68.9692 51.6471 68.8159 52.0332 68.8159 52.4333C68.8159 52.8334 68.9692 53.2196 69.2464 53.5182" fill="black"/>
<path d="M75.1834 55.0019L73.9961 55.0019L73.9961 50.0004L75.5917 50.0004C76.1708 49.9488 76.748 50.1159 77.2004 50.4662C77.3712 50.6238 77.5037 50.815 77.5899 51.0266C77.6757 51.2383 77.7128 51.4653 77.6983 51.6921C77.7063 51.9203 77.6634 52.1475 77.5734 52.3588C77.483 52.5701 77.3474 52.7606 77.1751 52.9179C76.9863 53.0847 76.7649 53.214 76.524 53.2981C76.2831 53.3823 76.0268 53.4197 75.7706 53.4083L75.1961 53.4083L75.1834 55.0019ZM75.1834 51.0792L75.1834 52.2192L75.7323 52.305C75.8223 52.3179 75.9138 52.3114 76.0008 52.286C76.0877 52.2607 76.1678 52.2171 76.2348 52.1584C76.3018 52.0997 76.3547 52.0275 76.3891 51.9468C76.424 51.8662 76.4393 51.7792 76.4343 51.6921C76.4343 51.3121 76.1919 51.1159 75.7066 51.1159L75.1834 51.1159" fill="black"/>
<path d="M79.1128 50.662C79.3763 50.413 79.69 50.2183 80.0347 50.0898C80.3794 49.9612 80.7478 49.9015 81.1171 49.9142C81.4817 49.9003 81.8452 49.9561 82.1872 50.0781C82.5288 50.2002 82.8421 50.3861 83.1087 50.6252C83.3699 50.8668 83.5745 51.159 83.7085 51.4824C83.8429 51.8058 83.9038 52.153 83.8878 52.5008C83.8985 52.8454 83.8338 53.1884 83.6974 53.5074C83.5611 53.8263 83.3561 54.1141 83.0961 54.3518C82.833 54.5928 82.5223 54.7808 82.1826 54.905C81.8429 55.0292 81.4805 55.087 81.1171 55.0751C80.3813 55.1003 79.6654 54.8446 79.1254 54.3641C78.8546 54.1293 78.639 53.8416 78.4938 53.5202C78.3483 53.1987 78.2767 52.8511 78.2828 52.5008C78.2705 52.16 78.3322 51.8204 78.4639 51.5038C78.5957 51.1872 78.7949 50.9005 79.0488 50.662L79.1128 50.662ZM80.0446 53.5305C80.3338 53.8045 80.7237 53.9581 81.1301 53.9581C81.5361 53.9581 81.926 53.8045 82.2152 53.5305C82.4833 53.2266 82.6246 52.8377 82.6108 52.4395C82.62 52.2388 82.5863 52.0385 82.5116 51.8508C82.4369 51.6632 82.3228 51.4922 82.1769 51.3485C82.0371 51.2123 81.8701 51.105 81.6855 51.0333C81.5012 50.9617 81.3032 50.9271 81.1044 50.9317C80.9053 50.9263 80.7072 50.9606 80.5226 51.0323C80.338 51.104 80.171 51.2117 80.032 51.3485C79.7547 51.6471 79.6015 52.0332 79.6015 52.4333C79.6015 52.8334 79.7547 53.2196 80.032 53.5182" fill="black"/>
<path d="M85.8156 52.3904L84.0024 50L85.3686 50L86.9516 52.1943L86.9516 50L88.1389 50L88.1389 52.1943L89.7223 50L91.0881 50L89.2753 52.3904L91.1647 55.0015L89.7989 55.0015L88.1389 52.6111L88.1389 55.0015L86.9516 55.0015L86.9516 52.6111L85.292 55.0015L83.9258 55.0015L85.8156 52.3904Z" fill="black"/>
<path d="M94.9843 55.0015L94.9843 52.9911L93.0949 52.9911L93.0949 55.0015L91.8945 55.0015L91.8945 50L93.0949 50L93.0949 51.9123L94.9843 51.9123L94.9843 50L96.1843 50L96.1843 55.0015L94.9843 55.0015Z" fill="black"/>
<path d="M98.4404 55.0015L97.4063 55.0015L97.4063 50L98.5936 50L98.5936 53.1137L100.904 50L101.938 50L101.938 55.0015L100.751 55.0015L100.751 51.9001L98.4404 55.0015Z" fill="black"/>
<path d="M103.164 55.0015L103.164 50L104.351 50L104.351 52.182L106.062 50L107.492 50L105.526 52.3169L107.645 55.0015L106.139 55.0015L104.351 52.6234L104.351 55.0015L103.164 55.0015Z" fill="black"/>
<path d="M36.2558 42.4981L36.2558 44.9988L36.2558 47.4996L33.6514 47.4996L31.0469 47.4996L31.0469 50.0003L33.6514 50.0003L36.2558 50.0003L38.8731 50.0003L38.8731 47.4996L38.8731 44.9988L38.8731 42.4981L36.2558 42.4981Z" fill="black"/>
<path d="M38.8597 57.5023L38.8597 55.0506C39.548 55.0506 40.2296 54.9196 40.8649 54.6652C41.5002 54.4108 42.0768 54.038 42.5611 53.5684C43.0455 53.0987 43.4281 52.5416 43.6869 51.9291C43.9456 51.3166 44.0754 50.6609 44.0686 50L46.622 50C46.622 50.9852 46.4199 51.9608 46.0273 52.871C45.6346 53.7812 45.0591 54.6083 44.3335 55.3049C43.608 56.0016 42.7466 56.5542 41.7987 56.9312C40.8507 57.3082 39.8347 57.5023 38.8086 57.5023" fill="black"/>
<path d="M44.0673 47.499C41.9951 47.499 40.0077 48.2895 38.5424 49.6964C37.0771 51.1033 36.2539 53.0116 36.2539 55.0013L36.2539 57.453L38.8073 57.453L38.8073 55.0013C38.8073 54.3404 38.9437 53.686 39.2086 53.0759C39.4736 52.4659 39.8619 51.9124 40.351 51.4473C40.8401 50.9822 41.4204 50.6148 42.0583 50.3664C42.6962 50.1179 43.379 49.9933 44.0673 49.9998L46.6207 49.9998L46.6207 47.5481L44.0673 47.499Z" fill="black"/>
</g>
<defs>
<clipPath id="clip0_49_670">
<rect width="76.6022" height="15.0045" fill="white" transform="translate(31.0469 42.4981)"/>
</clipPath>
</defs>
</svg>
