<svg width="139" height="100" viewBox="0 0 139 100" fill="none" xmlns="http://www.w3.org/2000/svg">
<g clip-path="url(#clip0_49_800)">
<path d="M31.0469 43.9592C31.085 43.7532 31.1114 43.544 31.1633 43.3416C31.3351 42.654 31.7053 42.0335 32.2268 41.5589C32.7483 41.0844 33.3976 40.7773 34.0921 40.6767C34.7867 40.576 35.4951 40.6863 36.1275 40.9936C36.7599 41.3009 37.2877 41.7913 37.6437 42.4024C38.6374 44.1427 39.6267 45.8856 40.6117 47.6309C40.6303 47.6637 40.6456 47.6984 40.677 47.7614L40.4994 47.7614L34.5008 47.7566C33.6844 47.7436 32.8982 47.4423 32.2785 46.905C31.6587 46.3677 31.2443 45.6282 31.1072 44.8146C31.0882 44.6927 31.0671 44.5708 31.0469 44.449L31.0469 43.9592ZM62.4295 36.1797C62.701 36.2199 62.9748 36.248 63.2434 36.3025C64.0104 36.4611 64.7119 36.8507 65.2558 37.42L64.148 38.6979C64.0419 38.612 63.9435 38.5313 63.844 38.4521C63.3295 38.0418 62.7508 37.7825 62.0903 37.798C61.1194 37.8209 60.4101 38.2918 60.0011 39.1844C59.5095 40.257 59.779 41.5856 60.6139 42.309C60.9901 42.6216 61.4507 42.8123 61.9356 42.8562C62.4206 42.9001 62.9074 42.7953 63.3325 42.5554C63.637 42.3842 63.9122 42.1594 64.188 41.9681L65.2842 43.0762C65.0199 43.3684 64.7196 43.6252 64.3907 43.8401C63.8135 44.2054 63.1541 44.4169 62.4742 44.4548C61.6863 44.5368 60.8915 44.3961 60.1781 44.0484C58.9374 43.4188 58.2009 42.4 57.9876 41.0156C57.7954 39.7682 58.0738 38.6305 58.8764 37.65C59.5105 36.8766 60.4102 36.3738 61.3954 36.2424C61.5403 36.2196 61.6858 36.2005 61.8309 36.1797L62.4295 36.1797ZM57.8763 49.0224L57.8763 47.9143L58.0327 47.9143C74.5159 47.9143 90.9991 47.9133 107.482 47.9112C107.618 47.9112 107.652 47.953 107.649 48.0813C107.641 48.3452 107.641 48.6093 107.649 48.8734C107.652 48.9958 107.609 49.0403 107.493 49.0232C107.465 49.0208 107.436 49.0206 107.407 49.0224L57.8763 49.0224ZM42.0232 46.9686C41.8199 46.6154 41.629 46.2851 41.4393 45.9543C40.6068 44.5027 39.7446 43.0672 38.9494 41.5948C37.7563 39.386 39.0171 36.846 41.296 36.3646C42.1975 36.1663 43.1399 36.333 43.9212 36.8289C44.7025 37.3249 45.2604 38.1105 45.4754 39.0174C45.5882 39.4478 45.6155 39.8966 45.5557 40.3377C45.4959 40.7788 45.3502 41.2036 45.127 41.5875C44.13 43.3363 43.118 45.0763 42.112 46.8198C42.0883 46.861 42.0633 46.9014 42.0232 46.9686ZM43.3451 47.7631C43.3822 47.6942 43.4076 47.6443 43.4353 47.596C44.4148 45.8856 45.3882 44.1717 46.376 42.4663C47.0963 41.2227 48.1812 40.6127 49.6082 40.6492C51.1506 40.6887 52.5265 41.8556 52.873 43.4032C52.9838 43.8836 52.9949 44.3819 52.9058 44.8669C52.8167 45.3518 52.6292 45.8129 52.3551 46.221C52.081 46.6291 51.7264 46.9754 51.3134 47.2381C50.9004 47.5009 50.4381 47.6743 49.9556 47.7476C49.7818 47.7735 49.6063 47.7857 49.4306 47.7841C48.1479 47.7863 46.8653 47.786 45.5827 47.7831C44.8894 47.7819 44.1959 47.7764 43.5024 47.7723C43.4573 47.772 43.4119 47.7672 43.3451 47.7631ZM43.3832 49.2795L43.5815 49.2795C44.2276 49.2795 44.8737 49.2807 45.5197 49.2792C46.8353 49.2763 48.151 49.2616 49.4666 49.272C49.9266 49.2641 50.3833 49.3509 50.809 49.5272C51.2347 49.7035 51.6203 49.9657 51.9425 50.2976C52.8981 51.2814 53.2201 52.4677 52.854 53.7924C52.4861 55.1239 51.5944 55.9707 50.2673 56.3078C49.5709 56.4836 48.8377 56.437 48.1687 56.1742C47.4996 55.9114 46.9276 55.4455 46.5313 54.8405C46.1967 54.3239 45.9155 53.7718 45.6115 53.235C44.8948 51.9696 44.1786 50.7039 43.4629 49.4377C43.44 49.3971 43.4207 49.3544 43.3832 49.2795ZM42.0149 50.0718C42.2517 50.4876 42.4762 50.8812 42.7002 51.275C43.4756 52.6385 44.2512 54.0019 45.0268 55.3652C45.3957 56.0027 45.5672 56.7373 45.5191 57.4742C45.4311 58.985 44.2663 60.3466 42.7891 60.664C42.3263 60.7711 41.8468 60.7826 41.3794 60.6979C40.9121 60.6132 40.4664 60.434 40.0692 60.171C39.6719 59.9081 39.3313 59.5668 39.0677 59.1676C38.804 58.7685 38.6228 58.3196 38.5348 57.8479C38.3642 57.0212 38.5066 56.1599 38.9339 55.4341C39.9214 53.7072 40.9123 51.9822 41.9065 50.259C41.9373 50.2054 41.9684 50.152 42.0149 50.0718ZM40.7041 49.2795C40.6673 49.3503 40.6454 49.3963 40.6202 49.4403C39.6232 51.1785 38.6389 52.9243 37.6238 54.6519C37.0246 55.6714 36.1175 56.2498 34.9425 56.3755C34.0291 56.4644 33.1175 56.1897 32.4014 55.6096C31.6854 55.0296 31.2215 54.1901 31.1083 53.2696C30.9952 52.3491 31.2418 51.4203 31.7957 50.6808C32.3495 49.9413 33.167 49.4494 34.0741 49.3097C34.5965 49.2355 35.1351 49.278 35.6664 49.2673C35.7091 49.2665 35.7519 49.2684 35.7947 49.2685L40.5246 49.2795L40.7041 49.2795ZM91.0052 44.3244L91.0052 36.3293L91.1647 36.3293C92.4041 36.3293 93.6434 36.3206 94.8826 36.3329C95.5551 36.3394 96.192 36.4927 96.7198 36.9506C97.1977 37.3651 97.3822 37.9029 97.3535 38.5289C97.3221 39.214 96.998 39.7161 96.4276 40.0682C96.4034 40.0833 96.3798 40.0994 96.3568 40.1164C96.3466 40.1271 96.3375 40.1387 96.3296 40.1512C96.434 40.1995 96.5356 40.2451 96.6358 40.2932C97.1687 40.5489 97.5953 40.9155 97.7301 41.5197C97.9809 42.6441 97.6148 43.6574 96.3665 44.0984C95.8656 44.2648 95.3403 44.344 94.8131 44.3325L91.1523 44.3323C91.1059 44.3323 91.0596 44.3275 91.0052 44.3244ZM93.8737 41.0423L93.8737 41.0192C93.5366 41.0192 93.1995 41.0236 92.8626 41.0168C92.7423 41.0144 92.6949 41.0451 92.6968 41.1766C92.7036 41.6659 92.7037 42.1553 92.697 42.6448C92.6955 42.769 92.7297 42.8115 92.8571 42.8103C93.5026 42.8045 94.1482 42.8127 94.7937 42.8055C95.0792 42.8167 95.3636 42.7621 95.6251 42.6458C95.7626 42.5832 95.8783 42.4802 95.9572 42.3502C96.0361 42.2203 96.0745 42.0694 96.0675 41.9171C96.0787 41.7647 96.042 41.6126 95.9628 41.4824C95.8836 41.3522 95.7659 41.2506 95.6263 41.1919C95.4641 41.114 95.2896 41.0656 95.1107 41.0491C94.6992 41.0284 94.2861 41.0423 93.8737 41.0423ZM93.7814 37.8278L93.7799 37.8498C93.4764 37.8498 93.1726 37.8548 92.869 37.8474C92.7429 37.8442 92.694 37.8771 92.6963 38.015C92.7043 38.48 92.7043 38.9451 92.6965 39.4105C92.6944 39.5406 92.7384 39.573 92.8595 39.5717C93.3576 39.5662 93.8564 39.5838 94.3537 39.5634C94.6179 39.5562 94.8798 39.511 95.1314 39.4292C95.5264 39.2929 95.7003 38.8946 95.5916 38.4835C95.4967 38.1244 95.2294 37.9561 94.8996 37.9087C94.5305 37.8556 94.1544 37.8526 93.7814 37.8278ZM90.3527 59.3897C89.9905 59.8154 89.533 60.1477 89.0183 60.3589C87.9759 60.8265 86.8065 60.9193 85.7047 60.6218C84.2299 60.2184 83.3301 59.2155 82.9935 57.7172C82.7726 56.7332 82.7999 55.7507 83.214 54.8138C83.7914 53.5069 84.7835 52.7291 86.1946 52.5505C87.1727 52.4267 88.1072 52.5643 88.9252 53.1835C89.6518 53.7335 90.0511 54.4898 90.2694 55.3593C90.3969 55.9106 90.4615 56.4748 90.4616 57.0409C90.4646 57.1904 90.4129 57.2261 90.273 57.2258C88.5206 57.2218 86.7681 57.2209 85.0156 57.2232L84.7931 57.2232C84.7756 57.4771 84.8281 57.7309 84.9449 57.9565C85.0951 58.2613 85.3176 58.5238 85.5926 58.7205C85.8676 58.9172 86.1865 59.0421 86.5209 59.0839C87.307 59.2063 88.1108 59.049 88.7951 58.6391C88.985 58.5143 89.1673 58.378 89.341 58.2309L90.3527 59.3897ZM84.7749 55.8356L88.267 55.8356C88.3145 55.8356 88.362 55.8328 88.4093 55.8358C88.4945 55.8414 88.5167 55.7967 88.5084 55.7203C88.4914 55.4925 88.4287 55.2705 88.3243 55.0679C88.2198 54.8652 88.0758 54.6861 87.9008 54.5414C87.6897 54.3688 87.4438 54.2449 87.1804 54.1783C86.9169 54.1118 86.6423 54.1043 86.3756 54.1563C85.7462 54.2559 85.246 54.5627 84.9397 55.1449C84.8206 55.3545 84.7634 55.5942 84.7749 55.8356ZM88.2088 41.895L89.2323 43.0685C88.9419 43.414 88.586 43.6973 88.1856 43.9017C87.3392 44.3379 86.3883 44.5244 85.4419 44.44C84.1134 44.3467 83.0513 43.7713 82.3492 42.5994C81.9711 41.9458 81.771 41.2026 81.7694 40.4454C81.7331 38.9367 82.2362 37.6802 83.5096 36.8126C84.2209 36.3282 85.0206 36.175 85.868 36.2123C86.8067 36.2538 87.6164 36.5842 88.2588 37.2867C88.7343 37.8277 89.0549 38.4894 89.1862 39.2007C89.2986 39.7212 89.3474 40.2537 89.3313 40.7863C89.3304 40.8189 89.3268 40.8515 89.323 40.9039L83.8655 40.9039C83.6768 40.9039 83.6698 40.9049 83.6874 41.0887C83.744 41.6836 84.0674 42.1124 84.5445 42.429C84.9745 42.721 85.4928 42.8499 86.0078 42.793C86.3372 42.7613 86.6638 42.7049 86.9849 42.6242C87.4535 42.5046 87.8784 42.2515 88.2088 41.895ZM85.5187 39.5229C86.0981 39.5229 86.6774 39.5228 87.2567 39.5225C87.3252 39.5223 87.404 39.5408 87.3923 39.4175C87.3779 39.1918 87.3182 38.9714 87.2168 38.7697C87.1154 38.5681 86.9744 38.3894 86.8025 38.2446C86.3589 37.8728 85.8417 37.7694 85.2799 37.8445C84.5614 37.9405 83.802 38.4577 83.6697 39.3411C83.6447 39.5075 83.6547 39.5227 83.8234 39.5228C84.3885 39.5234 84.9536 39.5235 85.5187 39.5231L85.5187 39.5229ZM103.56 52.5178C105.813 52.4728 107.635 54.2652 107.637 56.642C107.639 58.8243 105.996 60.8313 103.46 60.78C101.063 60.7317 99.4761 58.7882 99.4828 56.6276C99.4901 54.2865 101.283 52.4743 103.56 52.5178ZM103.564 59.1055C104.272 59.1041 104.857 58.8147 105.242 58.216C105.873 57.2348 105.903 56.2092 105.329 55.1985C104.546 53.8194 102.556 53.8306 101.776 55.2179C101.531 55.6269 101.396 56.0936 101.385 56.5717C101.374 57.0497 101.487 57.5224 101.712 57.9427C102.091 58.6972 102.71 59.1035 103.564 59.1055ZM65.2925 63.2424L66.1494 61.8753C66.2482 61.9449 66.3358 62.0088 66.4259 62.0694C66.8919 62.3831 67.3858 62.3089 67.6876 61.8323C67.8822 61.5248 67.9976 61.1672 68.1664 60.8416C68.3034 60.577 68.275 60.3494 68.1526 60.0778C67.0819 57.7012 66.0275 55.3172 64.9685 52.9353C64.9495 52.8926 64.9326 52.849 64.9076 52.7886C64.9666 52.784 65.0111 52.7775 65.0558 52.7775C65.6874 52.7769 66.3191 52.7801 66.9507 52.7741C66.9942 52.769 67.038 52.7803 67.0738 52.8057C67.1096 52.8311 67.135 52.8689 67.1451 52.9119C67.82 54.5688 68.4972 56.2247 69.1767 57.8796C69.1983 57.9322 69.2211 57.9844 69.2566 58.0681C69.2899 57.9915 69.3157 57.9405 69.335 57.8871C69.9326 56.2316 70.5291 54.5757 71.1243 52.9194C71.1331 52.8735 71.1591 52.8329 71.1968 52.8058C71.2345 52.7788 71.281 52.7675 71.3267 52.7742C71.9156 52.7802 72.5046 52.7769 73.0935 52.7774C73.1392 52.7774 73.1849 52.7812 73.2504 52.7841C73.1197 53.1046 72.9957 53.4092 72.8711 53.7137C71.9416 55.9845 71.0125 58.2556 70.0838 60.5268C69.8784 61.0313 69.7085 61.5511 69.4914 62.0503C69.2877 62.5389 68.9761 62.9739 68.5805 63.322C68.1708 63.6655 67.6494 63.8429 67.1175 63.8196C66.6299 63.8176 66.1508 63.7617 65.7155 63.5135C65.5761 63.4339 65.4444 63.3404 65.2925 63.2424ZM99.4459 40.3286C99.4459 37.9733 101.186 36.2096 103.511 36.2096C105.835 36.2096 107.578 37.9807 107.58 40.3268C107.582 42.5535 105.884 44.4987 103.427 44.4557C101.192 44.4167 99.446 42.6395 99.4459 40.3286ZM101.356 40.1738C101.336 40.7085 101.458 41.2391 101.709 41.7101C102.469 43.109 104.367 43.1243 105.168 41.9334C105.802 40.9898 105.85 39.9846 105.331 38.9801C104.647 37.6572 103.068 37.613 102.237 38.3102C101.967 38.5391 101.749 38.8239 101.597 39.1454C101.445 39.467 101.363 39.8175 101.356 40.1738ZM77.8401 39.4987L77.8401 39.2753C77.8401 38.3533 77.8429 37.4315 77.8371 36.5096C77.8361 36.3652 77.8745 36.3229 78.0206 36.3256C78.5616 36.335 79.1029 36.3293 79.6553 36.3293L79.6553 44.3229C79.6118 44.3261 79.5662 44.3322 79.5207 44.3323C79.0124 44.333 78.5041 44.3283 77.996 44.3357C77.865 44.3376 77.8377 44.2886 77.838 44.1688C77.8416 43.1891 77.8401 42.2096 77.8399 41.2301L77.8399 41.0129C77.7741 41.0087 77.7194 41.0021 77.6645 41.0021C76.648 41.0016 75.6316 41.0015 74.6151 41.0019C74.429 41.0019 74.4286 41.0028 74.4286 41.1918C74.4284 42.1714 74.4283 43.1509 74.4284 44.1304L74.4284 44.3229L72.6229 44.3229L72.6229 36.3403L74.4285 36.3403L74.4285 36.5252C74.4285 37.4566 74.432 38.3882 74.425 39.3196C74.4239 39.4696 74.4697 39.5027 74.6108 39.5019C75.6273 39.4959 76.6439 39.4987 77.6604 39.4987L77.8401 39.4987ZM76.1914 60.5111L74.3046 60.5111L74.3046 52.7871L76.1062 52.7871L76.1623 53.6104L76.2101 53.6491C76.243 53.5934 76.2804 53.5404 76.3218 53.4908C77.0104 52.7837 77.8557 52.5389 78.8155 52.6258C79.2624 52.6514 79.6967 52.785 80.0819 53.0154C80.7413 53.4337 81.0989 54.0623 81.258 54.8123C81.3176 55.0934 81.3487 55.3799 81.3507 55.6674C81.3594 57.2232 81.3549 58.7791 81.3549 60.3349L81.3549 60.5188L80.8276 60.5188C80.4333 60.5188 80.039 60.5112 79.6449 60.5226C79.4981 60.5269 79.4614 60.4832 79.4619 60.3392C79.4667 58.8553 79.4648 57.3716 79.4647 55.8878C79.4767 55.6042 79.4278 55.3212 79.3213 55.0585C79.187 54.7774 78.9652 54.5487 78.6898 54.4075C78.4145 54.2662 78.1009 54.2202 77.7972 54.2766C76.8164 54.4259 76.3266 55.2311 76.2212 55.9578C76.2001 56.1194 76.1906 56.2823 76.1925 56.4452C76.1903 57.7418 76.1899 59.0384 76.1914 60.335L76.1914 60.5111ZM57.8763 59.577L59.0171 58.316C59.3082 58.6051 59.6583 58.8262 60.0429 58.9641C60.6979 59.2099 61.4153 59.2275 62.0813 59.0141C62.196 58.9876 62.2997 58.9258 62.3782 58.8373C62.4567 58.7487 62.5062 58.6377 62.5197 58.5195C62.5406 58.3903 62.521 58.2576 62.4636 58.1402C62.4062 58.0228 62.3139 57.9265 62.1996 57.8649C61.8295 57.6392 61.4169 57.5284 61.0069 57.4091C60.5885 57.2875 60.1651 57.1778 59.757 57.027C59.2372 56.8419 58.7902 56.4923 58.4825 56.0301C58.2351 55.6416 58.1262 55.1796 58.1735 54.7202C58.2209 54.2607 58.4217 53.8313 58.7429 53.5027C59.2187 53.0109 59.8414 52.691 60.5149 52.5926C61.5829 52.4179 62.6346 52.4956 63.6281 52.978C63.8442 53.0829 64.0461 53.2181 64.2716 53.3493L63.3121 54.6818C62.9332 54.5239 62.5849 54.3454 62.2167 54.2336C61.7087 54.0828 61.171 54.0662 60.6549 54.1853C60.5304 54.214 60.4136 54.27 60.3129 54.3493C59.9546 54.6347 59.9756 55.1038 60.3742 55.3253C60.6436 55.4653 60.9262 55.5775 61.2179 55.6602C61.7198 55.8169 62.2332 55.9366 62.7334 56.0979C63.1809 56.2367 63.5846 56.4917 63.9042 56.8374C64.6267 57.6262 64.7182 59.2681 63.4669 60.1174C62.8985 60.498 62.2403 60.719 61.5597 60.7579C60.6865 60.8355 59.8076 60.7037 58.9943 60.3733C58.5652 60.1998 58.1823 59.927 57.8763 59.577ZM90.7727 52.7775C91.4906 52.7775 92.1839 52.7753 92.8769 52.783C92.9051 52.7928 92.9308 52.8089 92.952 52.8301C92.9733 52.8513 92.9896 52.8771 92.9997 52.9055C93.3569 53.8648 93.7111 54.8252 94.0621 55.7867L94.9232 58.1308C94.9427 58.1841 94.9662 58.2358 94.9999 58.3172C95.0301 58.2476 95.0522 58.2028 95.0694 58.1561C95.7081 56.4185 96.3456 54.6804 96.9818 52.9418C96.9934 52.8877 97.025 52.8402 97.0702 52.8089C97.1154 52.7776 97.1708 52.7651 97.2249 52.7738C97.7947 52.7816 98.3648 52.7771 98.9347 52.7771L99.1162 52.7771C99.0944 52.8367 99.0805 52.879 99.0635 52.92C98.0324 55.4131 97.002 57.9065 95.9722 60.4003C95.9604 60.4404 95.9345 60.4747 95.8994 60.4969C95.8644 60.5191 95.8225 60.5276 95.7816 60.5208C95.2402 60.5167 94.6987 60.5148 94.1573 60.5219C94.1054 60.5303 94.0522 60.519 94.0081 60.4901C93.964 60.4613 93.932 60.4169 93.9183 60.3656C93.0616 58.2919 92.201 56.22 91.3363 54.1498C91.1691 53.7479 91.0017 53.3462 90.834 52.9445C90.8143 52.8966 90.7981 52.8471 90.7727 52.7775ZM69.7706 36.3367L69.7706 44.3211C69.7231 44.3253 69.6819 44.3321 69.6407 44.3321C69.1183 44.3328 68.5958 44.3294 68.0734 44.3349C68.0521 44.3407 68.0296 44.3408 68.0083 44.3351C67.987 44.3293 67.9675 44.318 67.9519 44.3023C67.9362 44.2866 67.9249 44.267 67.9191 44.2455C67.9133 44.224 67.9132 44.2013 67.9189 44.1797C67.9215 41.6112 67.9217 39.0427 67.9192 36.4742C67.9138 36.4538 67.9138 36.4323 67.9192 36.4119C67.9246 36.3914 67.9352 36.3728 67.95 36.3579C67.9648 36.3429 67.9832 36.3322 68.0034 36.3267C68.0236 36.3212 68.0449 36.3213 68.0651 36.3268C68.5923 36.3326 69.1195 36.3292 69.6467 36.3296C69.6838 36.3296 69.721 36.3337 69.7706 36.3368L69.7706 36.3367Z" fill="black"/>
</g>
<defs>
<clipPath id="clip0_49_800">
<rect width="76.6022" height="27.64" fill="white" transform="translate(31.0469 36.1797)"/>
</clipPath>
</defs>
</svg>
