<svg width="139" height="100" viewBox="0 0 139 100" fill="none" xmlns="http://www.w3.org/2000/svg">
<g clip-path="url(#clip0_49_719)">
<path d="M40.4141 54.21L42.7289 54.21L44.2326 66.018L44.2722 66.018L45.7759 54.21L47.8929 54.21L45.6769 69.427L42.6102 69.427L40.4141 54.21Z" fill="black"/>
<path d="M52.3076 54.21L55.4337 54.21L57.8276 69.427L55.5326 69.427L55.1171 66.4082L55.1171 66.4492L52.5054 66.4492L52.09 69.427L49.9531 69.427L52.3076 54.21ZM54.8203 64.3751L53.7914 56.8591L53.7519 56.8591L52.7429 64.3751L54.8203 64.3751Z" fill="black"/>
<path d="M61.863 56.3662L59.4492 56.3662L59.4492 54.21L66.572 54.21L66.572 56.3868L64.1581 56.3868L64.1581 69.427L61.863 69.427L61.863 56.3662Z" fill="black"/>
<path d="M70.2336 68.6469C69.6598 67.9897 69.3828 67.0451 69.3828 65.8129L69.3828 64.9504L71.5592 64.9504L71.5592 65.9977C71.5592 66.9835 71.9549 67.4763 72.7463 67.4763C73.142 67.4763 73.4388 67.3531 73.6366 67.1272C73.8345 66.9013 73.9334 66.4906 73.9334 65.9567C73.9334 65.3201 73.7949 64.7656 73.5179 64.2727C73.2409 63.7799 72.7265 63.2049 71.9747 62.5272C71.025 61.6647 70.3523 60.8638 69.9764 60.1656C69.6005 59.4674 69.4026 58.6665 69.4026 57.7835C69.4026 56.5719 69.6994 55.6477 70.2731 54.9906C70.8667 54.3335 71.7175 54.0049 72.8255 54.0049C73.9334 54.0049 74.7644 54.3335 75.3184 54.9906C75.8922 55.6477 76.1692 56.5924 76.1692 57.8245L76.1692 58.4611L73.9927 58.4611L73.9927 57.6808C73.9927 57.1674 73.8939 56.7772 73.696 56.5308C73.4981 56.2844 73.2211 56.1817 72.8452 56.1817C72.0736 56.1817 71.6977 56.6745 71.6977 57.6397C71.6977 58.1942 71.8362 58.7076 72.133 59.1799C72.4099 59.6522 72.9442 60.2477 73.696 60.9254C74.6655 61.7879 75.3184 62.5888 75.6943 63.2871C76.0505 64.0058 76.2483 64.8272 76.2483 65.7924C76.2483 67.0451 75.9515 67.9897 75.358 68.6674C74.7644 69.3246 73.8939 69.6736 72.7661 69.6736C71.6581 69.6326 70.8073 69.304 70.2336 68.6469Z" fill="black"/>
<path d="M81.374 54.21L84.5001 54.21L86.8941 69.427L84.599 69.427L84.1835 66.4082L84.1835 66.4492L81.5719 66.4492L81.1564 69.427L79.0195 69.427L81.374 54.21ZM83.8868 64.3751L82.8579 56.8591L82.8183 56.8591L81.8093 64.3751L83.8868 64.3751Z" fill="black"/>
<path d="M90.0781 54.21L92.3732 54.21L92.3732 60.6171L95.3213 54.21L97.6163 54.21L94.8662 59.7957L97.6559 69.427L95.2421 69.427L93.3031 62.6501L92.3732 64.5805L92.3732 69.427L90.0781 69.427L90.0781 54.21Z" fill="black"/>
<path d="M42.6328 72.0967L43.0879 72.0967L43.0879 72.7949L43.721 72.0967L44.275 72.0967L43.4638 73.0208L44.2948 73.9859L43.6814 73.9859L43.1472 73.3082L43.0879 73.3904L43.0879 74.0065L42.6328 74.0065L42.6328 72.0967Z" fill="black"/>
<path d="M46.7075 72.0557C46.8856 72.0557 47.0439 72.0967 47.2022 72.1994C47.3605 72.2816 47.4792 72.4048 47.5583 72.569C47.6374 72.7128 47.677 72.8976 47.677 73.0619C47.677 73.2467 47.6374 73.411 47.5583 73.5548C47.4792 73.719 47.3605 73.8217 47.2022 73.9244C47.0636 74.0066 46.8856 74.0476 46.7075 74.0476C46.4503 74.0476 46.2129 73.945 46.0348 73.7601C45.8567 73.5753 45.7578 73.3288 45.7578 73.0619C45.7578 72.7744 45.8567 72.528 46.0744 72.3226C46.2525 72.1378 46.4701 72.0557 46.7075 72.0557ZM46.7075 72.5075C46.569 72.5075 46.4503 72.5485 46.3514 72.6717C46.2525 72.7744 46.2129 72.8976 46.2129 73.0619C46.2129 73.2262 46.2525 73.3699 46.3514 73.4521C46.4503 73.5548 46.569 73.5958 46.7075 73.5958C46.846 73.5958 46.9647 73.5342 47.0636 73.4315C47.1626 73.3288 47.2022 73.2056 47.2022 73.0413C47.2022 72.877 47.1626 72.7538 47.0636 72.6512C46.9845 72.5485 46.8658 72.5075 46.7075 72.5075Z" fill="black"/>
<path d="M49.8769 72.7939L50.5694 72.7939L50.5694 72.1162L51.0245 72.1162L51.0245 74.0055L50.5694 74.0055L50.5694 73.2252L49.8769 73.2252L49.8769 74.0055L49.4219 74.0055L49.4219 72.1162L49.8769 72.1162L49.8769 72.7939Z" fill="black"/>
<path d="M53.099 73.9859L53.099 74.3145L52.6836 74.3145L52.6836 73.5957L52.9606 73.5957L53.5937 72.0967L53.8905 72.0967L54.5236 73.5957L54.8006 73.5957L54.8006 74.3351L54.3653 74.3351L54.3653 74.0065L53.099 74.0065L53.099 73.9859ZM54.029 73.5957L53.7322 72.7949L53.4156 73.5957L54.029 73.5957Z" fill="black"/>
<path d="M56.6984 73.9859L56.4609 73.9859L56.4609 72.0967L56.916 72.0967L56.916 73.2056L57.8459 72.0967L58.0636 72.0967L58.0636 73.9859L57.6085 73.9859L57.6085 72.8976L56.6984 73.9859Z" fill="black"/>
<path d="M59.7266 72.0967L61.4281 72.0967L61.4281 72.5485L60.8147 72.5485L60.8147 73.9859L60.3597 73.9859L60.3597 72.5485L59.7266 72.5485L59.7266 72.0967Z" fill="black"/>
<path d="M64.9306 73.1851L63.4665 73.1851C63.4864 73.3288 63.5457 73.4315 63.6446 73.5137C63.7435 73.5958 63.8623 73.6369 64.0007 73.6369C64.1788 73.6369 64.3173 73.5753 64.436 73.4521L64.8119 73.6369C64.713 73.7807 64.5943 73.8833 64.4756 73.9449C64.3371 74.0066 64.1788 74.0476 64.0007 74.0476C63.7237 74.0476 63.4864 73.945 63.3082 73.7601C63.1302 73.5753 63.0313 73.3288 63.0313 73.0619C63.0313 72.7744 63.1302 72.528 63.3082 72.3432C63.4864 72.1584 63.704 72.0557 63.981 72.0557C64.2777 72.0557 64.4953 72.1584 64.6735 72.3432C64.8515 72.528 64.9504 72.7949 64.9504 73.1029L64.9306 73.1851ZM64.4756 72.8155C64.436 72.7128 64.3767 72.6307 64.2975 72.5485C64.2184 72.4869 64.0997 72.4459 63.981 72.4459C63.8623 72.4459 63.7435 72.4869 63.6446 72.5485C63.5852 72.5896 63.5259 72.6717 63.4864 72.7949L64.4756 72.7949L64.4756 72.8155Z" fill="black"/>
<path d="M67.1267 72.0967L67.1267 72.3021C67.2059 72.22 67.3047 72.1584 67.4037 72.1173C67.5026 72.0762 67.6015 72.0557 67.7202 72.0557C67.9576 72.0557 68.1555 72.1584 68.3336 72.3432C68.4918 72.528 68.5908 72.7744 68.5908 73.0619C68.5908 73.3494 68.5117 73.5753 68.3336 73.7601C68.1555 73.945 67.9576 74.0476 67.7202 74.0476C67.6213 74.0476 67.5224 74.0271 67.4235 73.986C67.3246 73.945 67.2454 73.8833 67.1464 73.8012L67.1464 74.6842L66.6914 74.6842L66.6914 72.0967L67.1267 72.0967ZM67.6213 72.4869C67.4828 72.4869 67.3641 72.528 67.2652 72.6307C67.1663 72.7333 67.1267 72.8565 67.1267 73.0208C67.1267 73.1851 67.1663 73.3288 67.2652 73.4315C67.3641 73.5342 67.4828 73.5958 67.6213 73.5958C67.7598 73.5958 67.8785 73.5342 67.9775 73.4315C68.0764 73.3288 68.1159 73.1851 68.1159 73.0208C68.1159 72.8565 68.0764 72.7333 67.9775 72.6307C67.8785 72.5485 67.7598 72.4869 67.6213 72.4869Z" fill="black"/>
<path d="M72.114 72.4869L71.7381 72.7128C71.6589 72.6307 71.5995 72.5896 71.5204 72.5485C71.4413 72.528 71.3621 72.5075 71.283 72.5075C71.1049 72.5075 70.9665 72.5691 70.8675 72.6717C70.7686 72.7744 70.7092 72.9182 70.7092 73.0824C70.7092 73.2467 70.7686 73.37 70.8675 73.4726C70.9665 73.5753 71.1049 73.6164 71.2632 73.6164C71.4611 73.6164 71.6194 73.5343 71.7381 73.3905L72.0942 73.6369C71.8964 73.9039 71.6194 74.0271 71.2632 74.0271C70.9466 74.0271 70.6894 73.9245 70.5114 73.7396C70.3333 73.5343 70.2344 73.3084 70.2344 73.0414C70.2344 72.8565 70.274 72.6923 70.3729 72.528C70.452 72.3637 70.5905 72.2611 70.7488 72.1584C70.907 72.0762 71.0852 72.0352 71.283 72.0352C71.4611 72.0352 71.6194 72.0762 71.7777 72.1379C71.8963 72.2405 72.015 72.3432 72.114 72.4869Z" fill="black"/>
<path d="M74.3499 72.7949L74.4883 72.7949C74.6862 72.7949 74.8247 72.8154 74.9236 72.836C75.0225 72.877 75.1215 72.9386 75.1808 73.0208C75.26 73.1234 75.2798 73.2466 75.2798 73.3904C75.2798 73.5341 75.2402 73.6574 75.1808 73.76C75.1215 73.8627 75.0424 73.9243 74.9434 73.9449C74.8445 73.9859 74.706 73.9859 74.5279 73.9859L73.875 73.9859L73.875 72.0967L74.33 72.0967L74.33 72.7949L74.3499 72.7949ZM74.3499 73.6368L74.4883 73.6368C74.5675 73.6368 74.6268 73.6368 74.6664 73.6163C74.706 73.5957 74.7455 73.5752 74.7653 73.5547C74.7851 73.5136 74.8049 73.4725 74.8049 73.4315C74.8049 73.2672 74.706 73.185 74.5279 73.185L74.33 73.185L74.33 73.6368L74.3499 73.6368Z" fill="black"/>
<path d="M77.0195 72.0967L77.4746 72.0967L77.4746 72.7949L78.1078 72.0967L78.6617 72.0967L77.8506 73.0208L78.6815 73.9859L78.0682 73.9859L77.534 73.3082L77.4944 73.3698L77.4944 73.9859L77.0394 73.9859L77.0394 72.0967L77.0195 72.0967Z" fill="black"/>
<path d="M80.4836 73.9859L80.2461 73.9859L80.2461 72.0967L80.7012 72.0967L80.7012 73.2056L81.6311 72.0967L81.8487 72.0967L81.8487 73.9859L81.3937 73.9859L81.3937 72.8976L80.4836 73.9859Z" fill="black"/>
<path d="M83.9054 73.9861L83.668 73.9861L83.668 72.0968L84.123 72.0968L84.123 73.2058L85.0529 72.0968L85.2705 72.0968L85.2705 73.9861L84.8155 73.9861L84.8155 72.8977L83.9054 73.9861ZM83.8064 71.2754L84.1824 71.2754C84.2022 71.3165 84.2615 71.3576 84.301 71.3781C84.3604 71.3987 84.4198 71.4192 84.4989 71.4192C84.5781 71.4192 84.6374 71.3987 84.6968 71.3781C84.7363 71.3576 84.7759 71.3165 84.7957 71.2754L85.1717 71.2754C85.1518 71.4192 85.0727 71.5424 84.9738 71.6246C84.8551 71.7067 84.6968 71.7683 84.4989 71.7683C84.3604 71.7683 84.2417 71.7478 84.1428 71.7067C84.0439 71.6656 83.9647 71.604 83.9251 71.5424C83.846 71.4603 83.8064 71.3576 83.8064 71.2754Z" fill="black"/>
<path d="M89.6811 73.9859L89.6811 74.3145L89.2656 74.3145L89.2656 73.5957L89.5426 73.5957L90.1758 72.0967L90.4725 72.0967L91.1056 73.5957L91.3826 73.5957L91.3826 74.3351L90.9474 74.3351L90.9474 74.0065L89.6811 74.0065L89.6811 73.9859ZM90.611 73.5957L90.3143 72.7949L89.9977 73.5957L90.611 73.5957Z" fill="black"/>
<path d="M93.2226 71.3164C93.3017 71.3164 93.3809 71.337 93.4205 71.3986C93.4798 71.4602 93.4996 71.5218 93.4996 71.6245C93.4996 71.7066 93.4798 71.7888 93.4205 71.8504C93.3611 71.912 93.3017 71.9325 93.2226 71.9325C93.1434 71.9325 93.0643 71.912 93.005 71.8504C92.9456 71.7888 92.9258 71.7066 92.9258 71.6245C92.9258 71.5423 92.9456 71.4602 93.005 71.4191C93.0841 71.3575 93.1434 71.3164 93.2226 71.3164ZM93.005 72.0968L93.46 72.0968L93.46 73.9861L93.005 73.9861L93.005 72.0968Z" fill="black"/>
<path d="M96.3686 73.2877L96.9226 72.0967L97.2194 72.0967L97.6744 73.9859L97.2194 73.9859L96.9819 72.877L96.4477 73.9859L96.2697 73.9859L95.7355 72.877L95.4981 73.9859L95.043 73.9859L95.4981 72.0967L95.7948 72.0967L96.3686 73.2877Z" fill="black"/>
</g>
<g clip-path="url(#clip1_49_719)">
<path d="M75.6734 31.1005C74.7053 29.4063 73.117 28.1962 71.2413 27.697C69.3504 27.1978 67.384 27.455 65.7049 28.4231C62.2106 30.4349 61.0156 34.9125 63.0275 38.3916C63.9956 40.0858 65.5839 41.2959 67.4596 41.7952C68.0949 41.9615 68.7303 42.0523 69.3656 42.0523C70.6362 42.0523 71.8766 41.7195 73.0111 41.069C74.7053 40.1009 75.9155 38.5126 76.4146 36.6369C76.9138 34.7612 76.6415 32.7947 75.6734 31.1005ZM75.4314 36.3949C75.3709 36.6369 75.2801 36.879 75.1894 37.1059C75.1591 36.41 74.9625 35.7142 74.5995 35.094C74.0095 34.0805 73.0716 33.3544 71.9371 33.0519C71.5892 32.9611 71.2413 32.9157 70.8934 32.9006L69.6833 32.9006L69.6833 36.6218L70.6968 36.6218L70.6968 33.9141C70.727 33.9141 70.7572 33.9141 70.8026 33.9141C71.0901 33.9141 71.3926 33.9595 71.6799 34.0351C72.5573 34.262 73.2834 34.8217 73.7372 35.6083C74.191 36.3949 74.312 37.3025 74.07 38.1798C73.8431 39.0572 73.2834 39.7833 72.4968 40.2371C71.2564 40.948 69.8496 41.2203 68.4731 41.0237C68.2159 40.9934 67.9739 40.9329 67.7168 40.8724C66.0982 40.4337 64.7368 39.39 63.8897 37.9378C62.8913 36.1982 62.8157 34.1864 63.4964 32.4468C63.5266 33.1426 63.7233 33.8233 64.0863 34.4587C64.9032 35.8352 66.3856 36.6218 67.8983 36.6218C67.9286 36.6218 69.0025 36.6218 69.0025 36.6218L69.0025 32.9006L66.9907 32.9006L66.9907 33.9141L68.0042 33.9141L68.0042 35.6234C67.6714 35.6385 67.3537 35.5932 67.0209 35.5024C66.1436 35.2755 65.4175 34.7158 64.9637 33.9292C64.5099 33.1426 64.3889 32.235 64.6309 31.3577C64.8578 30.4803 65.4175 29.7542 66.2041 29.3004C67.4445 28.5895 68.8513 28.3172 70.2429 28.5138C70.485 28.5441 70.7421 28.6046 70.9841 28.6651C72.6027 29.1038 73.9641 30.1475 74.8112 31.5997C75.6432 33.067 75.8701 34.7612 75.4314 36.3949Z" fill="black"/>
<path d="M69.3493 43.2334C65.023 43.2334 61.4531 39.9812 60.9388 35.791L59.9102 35.791C60.4245 40.5408 64.4633 44.262 69.3493 44.262C74.2352 44.262 78.274 40.5408 78.7884 35.791L77.7597 35.791C77.2455 39.9812 73.6755 43.2334 69.3493 43.2334Z" fill="black"/>
<path d="M69.3493 26.2903C73.6755 26.2903 77.2455 29.5426 77.7597 33.7327L78.7884 33.7327C78.274 28.9829 74.2352 25.2617 69.3493 25.2617C64.4633 25.2617 60.4245 28.9829 59.9102 33.7327L60.9388 33.7327C61.4531 29.5426 65.023 26.2903 69.3493 26.2903Z" fill="black"/>
<path d="M60.0263 34.6244L59.8901 34.6244C59.8901 34.5487 59.9204 34.4882 59.9658 34.4428C60.0111 34.3974 60.0717 34.3672 60.1473 34.3672C60.1927 34.3672 60.238 34.3823 60.2683 34.3974C60.2986 34.4126 60.3288 34.4428 60.3439 34.4882C60.3591 34.5185 60.3742 34.5638 60.3742 34.5941C60.3742 34.6395 60.3591 34.6849 60.3439 34.7303C60.3288 34.7756 60.2683 34.8361 60.2078 34.9118L60.1322 35.0025L60.3893 35.0025L60.3893 35.1386L59.875 35.1386L59.875 35.0782L60.1019 34.8513C60.1624 34.7907 60.1927 34.7453 60.2078 34.7151C60.2229 34.6849 60.238 34.6546 60.238 34.6244C60.238 34.5941 60.2229 34.579 60.2078 34.5487C60.1927 34.5336 60.1624 34.5185 60.1322 34.5185C60.1019 34.5185 60.0717 34.5336 60.0565 34.5487C60.0414 34.5638 60.0263 34.5941 60.0263 34.6244Z" fill="black"/>
<path d="M60.7103 34.3672C60.7708 34.3672 60.8162 34.3823 60.8464 34.4126C60.8918 34.4428 60.9221 34.4731 60.9372 34.5336C60.9523 34.5941 60.9674 34.6697 60.9674 34.7605C60.9674 34.8513 60.9523 34.942 60.9372 34.9874C60.9221 35.0479 60.8918 35.0782 60.8464 35.1084C60.8162 35.1386 60.7708 35.1538 60.7103 35.1538C60.6498 35.1538 60.6044 35.1386 60.5741 35.1084C60.5439 35.0782 60.5136 35.0479 60.4834 34.9874C60.4683 34.942 60.4531 34.8664 60.4531 34.7605C60.4531 34.6244 60.4683 34.5336 60.5136 34.4731C60.5741 34.4126 60.6347 34.3672 60.7103 34.3672ZM60.7254 34.5034C60.6952 34.5034 60.68 34.5185 60.6649 34.5336C60.6498 34.5487 60.6347 34.579 60.6195 34.6092C60.6044 34.6395 60.6044 34.7 60.6044 34.7756C60.6044 34.8664 60.6195 34.9269 60.6347 34.9723C60.6498 35.0025 60.68 35.0328 60.7254 35.0328C60.7557 35.0328 60.7859 35.0177 60.801 34.9874C60.8313 34.942 60.8313 34.8815 60.8313 34.7756C60.8313 34.6849 60.8162 34.6092 60.801 34.579C60.7859 34.5185 60.7557 34.5034 60.7254 34.5034Z" fill="black"/>
<path d="M78.1517 34.3672C78.2122 34.3672 78.2576 34.3823 78.2878 34.4126C78.3332 34.4428 78.3635 34.4731 78.3786 34.5336C78.3937 34.5941 78.4089 34.6697 78.4089 34.7605C78.4089 34.8513 78.3937 34.942 78.3786 34.9874C78.3635 35.0479 78.3332 35.0782 78.2878 35.1084C78.2576 35.1386 78.2122 35.1538 78.1517 35.1538C78.0912 35.1538 78.0458 35.1386 78.0156 35.1084C77.9853 35.0782 77.9551 35.0479 77.9248 34.9874C77.9097 34.942 77.8945 34.8664 77.8945 34.7605C77.8945 34.6244 77.9097 34.5336 77.9551 34.4731C78.0004 34.4126 78.0609 34.3672 78.1517 34.3672ZM78.1517 34.5034C78.1214 34.5034 78.1063 34.5185 78.0912 34.5336C78.076 34.5487 78.0609 34.579 78.0458 34.6092C78.0307 34.6395 78.0307 34.7 78.0307 34.7756C78.0307 34.8664 78.0458 34.9269 78.0609 34.9723C78.076 35.0025 78.1063 35.0328 78.1517 35.0328C78.182 35.0328 78.2122 35.0177 78.2274 34.9874C78.2576 34.942 78.2576 34.8815 78.2576 34.7756C78.2576 34.6849 78.2424 34.6092 78.2274 34.579C78.2122 34.5185 78.182 34.5034 78.1517 34.5034Z" fill="black"/>
<path d="M78.6069 34.3975L78.8187 34.3975L78.8187 35.1387L78.6825 35.1387L78.6825 34.5336L78.5313 34.5336L78.6069 34.3975Z" fill="black"/>
</g>
<defs>
<clipPath id="clip0_49_719">
<rect width="58" height="21" fill="white" transform="translate(40.3477 53.7383)"/>
</clipPath>
<clipPath id="clip1_49_719">
<rect width="19" height="19" fill="white" transform="translate(59.8477 25.2617)"/>
</clipPath>
</defs>
</svg>
