<svg width="139" height="100" viewBox="0 0 139 100" fill="none" xmlns="http://www.w3.org/2000/svg">
<path d="M97.5149 41.4747L94.44 41.4747C93.9129 41.4747 93.1222 41.4747 92.5951 41.4747L90.7501 41.4747C90.223 41.4747 89.8276 41.4747 89.7837 41.4747C89.7837 41.4747 89.7398 41.4747 89.6959 41.4747C89.6519 41.4747 89.608 41.4747 89.608 41.4747C89.5641 41.4747 89.5201 41.4747 89.4762 41.4747C89.4323 41.4747 89.3884 41.4747 89.3444 41.4747C89.3005 41.4747 89.2566 41.4747 89.2566 41.4747C89.2127 41.4747 89.1687 41.4747 89.1248 41.4747C89.0809 41.4747 89.0369 41.4747 88.993 41.4747C88.9491 41.4747 88.9052 41.4747 88.9052 41.4747C88.8612 41.4747 88.7295 41.4747 88.5977 41.4747C88.4659 41.4747 88.2023 41.4747 88.0705 41.5191C87.9388 41.5191 87.6752 41.5636 87.5434 41.5636C87.4116 41.5636 87.1481 41.6081 87.0163 41.6526C86.8845 41.697 86.6649 41.7415 86.5331 41.786C86.4013 41.8305 86.1817 41.8749 86.0499 41.9194C85.9181 41.9639 85.6985 42.0084 85.5667 42.0529C85.4349 42.0973 85.2153 42.1863 85.0835 42.2308C84.9517 42.2752 84.776 42.3642 84.6442 42.4087C84.5124 42.4531 84.3367 42.5421 84.205 42.6311C84.0732 42.6755 83.8975 42.809 83.7657 42.8534C83.6339 42.8979 83.4582 43.0314 83.3264 43.1203C83.1946 43.2093 83.0189 43.3427 82.9311 43.3872C82.8432 43.4761 82.6675 43.6096 82.5357 43.6985C82.4039 43.7875 82.2282 43.9209 82.1404 44.0098C82.0525 44.0988 81.8768 44.2322 81.789 44.3657C81.7011 44.4546 81.5693 44.6325 81.4815 44.7215C81.3936 44.8104 81.2618 44.9883 81.1301 45.0773C81.0422 45.1663 80.9104 45.3442 80.8226 45.4776C80.7347 45.5665 80.6029 45.7445 80.5151 45.8779C80.4272 46.0113 80.3394 46.1892 80.2515 46.3227C80.2076 46.4561 80.0758 46.634 79.9879 46.7674C79.9001 46.9009 79.8122 47.0788 79.7683 47.2122C79.7244 47.3456 79.6365 47.5235 79.5487 47.657C79.5047 47.7904 79.373 48.0128 79.329 48.1462C79.2851 48.2796 79.1973 48.502 79.1533 48.6355C79.1094 48.7689 79.0655 48.9913 79.0215 49.1247C78.9776 49.2581 78.9337 49.4805 78.8898 49.5695C78.8458 49.7029 78.7141 49.3916 78.5823 48.9023L76.8252 42.6311C76.6934 42.1418 76.2981 41.7415 75.9906 41.7415C75.6831 41.7415 74.9802 41.7415 74.497 41.7415L73.1353 41.7415C72.6082 41.7415 71.9493 41.7415 71.5978 41.7415C71.2464 41.7415 70.8511 42.1418 70.7193 42.6311L67.5126 54.0172C67.3808 54.5064 67.2491 54.5064 67.2491 53.9727L67.2491 42.5866C67.2491 42.0973 66.8537 41.6526 66.3266 41.6526L61.4067 41.6526C60.8796 41.6526 60.4843 41.8749 60.4843 42.0973C60.4843 42.3642 60.4843 42.4976 60.4403 42.4531C60.3964 42.4087 60.3086 42.2308 60.2646 42.0529C60.1768 41.8749 60.045 41.6081 59.9571 41.4747C59.8693 41.2967 59.7375 41.0744 59.6057 40.8965C59.5179 40.763 59.3861 40.4962 59.2543 40.3627C59.1664 40.2293 58.9907 39.9624 58.9029 39.829C58.815 39.6956 58.6393 39.4287 58.5075 39.2953C58.3758 39.1618 58.2 38.9395 58.0683 38.806C57.9365 38.6726 57.7608 38.4502 57.629 38.3613C57.4972 38.2278 57.2776 38.0499 57.1897 37.9165C57.0579 37.7831 56.8822 37.6051 56.7065 37.4717C56.5747 37.3828 56.3551 37.2049 56.2233 37.0714C56.0915 36.9825 55.8719 36.8046 55.7401 36.6711C55.6083 36.5822 55.3448 36.4043 55.213 36.3153C55.0373 36.2264 54.8177 36.0929 54.6419 36.004C54.4662 35.915 54.2466 35.7816 54.0709 35.7371C53.8952 35.6482 53.6755 35.5592 53.4998 35.4702C53.3241 35.4258 53.0606 35.2923 52.9288 35.2479C52.7531 35.2034 52.4895 35.07 52.3138 35.0255C52.1381 34.981 51.8745 34.892 51.6988 34.8476C51.5231 34.8031 51.2595 34.7586 51.0838 34.7141C50.9081 34.6697 50.6446 34.6252 50.4689 34.5807C50.2931 34.5362 49.9857 34.5362 49.8099 34.4917C49.6342 34.4917 47.9211 34.4473 47.8772 34.4473C47.8332 34.4473 47.394 34.4473 46.8668 34.4473L44.0116 34.4473C43.4844 34.4473 42.6937 34.4473 42.1666 34.4473L37.4664 34.4473C36.9393 34.4473 36.5 34.9365 36.5 35.4258L36.5 61.178C36.5 61.6673 36.8953 62.112 37.4225 62.112L42.1666 62.112C42.6498 62.112 43.4844 62.112 44.0116 62.112L46.9547 62.112C47.4379 62.112 49.6342 62.112 49.8099 62.0676C49.9857 62.0676 50.2931 62.0231 50.4689 61.9786C50.6446 61.9341 50.9521 61.8896 51.0838 61.8896C51.2595 61.8452 51.5231 61.8007 51.6988 61.7562C51.8745 61.7117 52.1381 61.6228 52.3138 61.5783C52.4895 61.5338 52.7531 61.4449 52.9288 61.4004C53.1045 61.3559 53.3681 61.2225 53.4998 61.178C53.6755 61.0891 53.8952 61.0001 54.0709 60.9111C54.2466 60.8667 54.4662 60.7332 54.6419 60.6443C54.7737 60.5553 55.0373 60.4219 55.213 60.3329C55.3887 60.244 55.6083 60.1106 55.7401 59.9771C55.8719 59.8882 56.0915 59.7103 56.2233 59.6213C56.3551 59.5324 56.5747 59.3544 56.7065 59.221C56.8383 59.0876 57.0579 58.9097 57.1897 58.7762C57.3215 58.6428 57.4972 58.4649 57.629 58.3315C57.7608 58.198 57.9365 57.9757 58.0683 57.8422C58.2 57.7088 58.3758 57.4864 58.5075 57.353C58.6393 57.2195 58.815 56.9972 58.9029 56.8637C58.9907 56.7303 59.1664 56.5079 59.2543 56.33C59.3422 56.1521 59.4739 55.9297 59.6057 55.7518C59.6936 55.5739 59.8254 55.3515 59.9571 55.1736C60.045 54.9957 60.1768 54.7733 60.2646 54.5954C60.3525 54.4175 60.4403 54.2396 60.4403 54.1951C60.4843 54.1506 60.4843 54.5064 60.4843 55.0402L60.4843 61.267C60.4843 61.8007 60.8796 62.201 61.4067 62.201L66.3266 62.201C66.8537 62.201 70.9829 62.201 70.9829 62.201C71.51 62.201 71.9493 61.7562 72.0371 61.2225L73.6624 52.1492C73.7503 51.6599 73.8821 51.6599 73.9699 52.1492L75.5513 61.2225C75.6391 61.7117 76.1223 62.1565 76.6495 62.1565L81.5254 62.201C82.0525 62.201 82.3161 61.8007 82.1843 61.3114L81.789 59.8437C81.6572 59.3544 81.5693 58.9986 81.6132 59.0431C81.6572 59.0876 81.789 59.221 81.8768 59.31C81.9647 59.3989 82.1404 59.5768 82.2282 59.6658C82.3161 59.7547 82.4918 59.8882 82.6236 59.9771C82.7554 60.0661 82.9311 60.1995 83.0189 60.244C83.1068 60.3329 83.2825 60.4664 83.4143 60.5109C83.546 60.5998 83.7218 60.6888 83.8535 60.7777C83.9853 60.8222 84.161 60.9556 84.2928 61.0001C84.4246 61.0446 84.6442 61.178 84.7321 61.2225C84.8639 61.267 85.0396 61.3559 85.1714 61.4004C85.3031 61.4449 85.5228 61.5338 85.6546 61.5783C85.7863 61.6228 86.006 61.7117 86.1377 61.7562C86.2695 61.8007 86.4892 61.8452 86.621 61.8896C86.7527 61.9341 86.9724 61.9786 87.1042 61.9786C87.2359 62.0231 87.4995 62.0231 87.6313 62.0676C87.7631 62.0676 88.0266 62.112 88.1584 62.112C88.2902 62.112 88.5537 62.1565 88.7295 62.1565C88.9052 62.1565 89.0369 62.1565 89.0809 62.1565C89.1248 62.1565 89.1248 62.1565 89.1687 62.1565C89.2127 62.1565 89.2566 62.1565 89.2566 62.1565C89.3005 62.1565 89.3444 62.1565 89.3444 62.1565C89.3884 62.1565 89.4323 62.1565 89.4323 62.1565C89.4762 62.1565 89.5201 62.1565 89.5201 62.1565C89.5641 62.1565 89.608 62.1565 89.608 62.1565C89.6519 62.1565 89.6959 62.1565 89.7398 62.1565C89.7837 62.1565 90.223 62.1565 90.7501 62.1565L92.5951 62.1565C93.1222 62.1565 93.9129 62.1565 94.44 62.1565L97.5149 62.1565C97.9981 62.1565 98.4374 61.7562 98.4374 61.2225L98.4374 42.4087C98.4374 41.8749 98.042 41.4747 97.5149 41.4747ZM54.598 50.5035C54.598 50.9928 54.2027 51.3486 53.7634 51.3486L51.2595 51.3486C50.7763 51.3486 50.4249 51.7489 50.4249 52.1936L50.4249 54.7288C50.4249 55.2181 50.0296 55.5739 49.5903 55.5739L45.4172 55.5739C44.934 55.5739 44.5826 55.1736 44.5826 54.7288L44.5826 52.1936C44.5826 51.7044 44.1873 51.3486 43.748 51.3486L41.2002 51.3486C40.717 51.3486 40.3656 50.9483 40.3656 50.5035L40.3656 46.2337C40.3656 45.7445 40.7609 45.3886 41.2002 45.3886L43.748 45.3886C44.2312 45.3886 44.5826 44.9883 44.5826 44.5436L44.5826 42.0084C44.5826 41.5191 44.978 41.1633 45.4172 41.1633L49.5903 41.1633C50.0735 41.1633 50.4249 41.5636 50.4249 42.0084L50.4249 44.5436C50.4249 45.0328 50.8203 45.3886 51.2595 45.3886L53.7634 45.3886C54.2027 45.3886 54.598 45.7889 54.598 46.2337L54.598 50.5035ZM92.3315 55.6628C92.3315 56.1076 91.9801 56.4634 91.4969 56.4634L90.3108 56.4634C89.8716 56.4634 89.4323 56.4634 89.3884 56.4634C89.3444 56.4634 89.2566 56.419 89.2127 56.419C89.1687 56.419 89.0809 56.3745 89.0809 56.3745C89.0809 56.3745 89.0369 56.3745 88.993 56.3745C88.9491 56.3745 88.8612 56.33 88.8173 56.33C88.7734 56.2855 88.6855 56.2855 88.6416 56.2411C88.5977 56.1966 88.5098 56.1966 88.4659 56.1521C88.422 56.1076 88.3341 56.0631 88.2902 56.0631C88.2463 56.0187 88.1584 55.9742 88.1145 55.9742C88.0705 55.9742 87.9827 55.9297 87.9388 55.8852C87.8948 55.8408 87.807 55.7963 87.7631 55.7518C87.7191 55.7073 87.6313 55.6628 87.5873 55.6184C87.5434 55.5739 87.4556 55.5294 87.4556 55.4849C87.4116 55.4405 87.3677 55.396 87.3238 55.3515C87.2799 55.307 87.192 55.2626 87.192 55.2181C87.1481 55.1736 87.1042 55.1291 87.0602 55.0846C87.0163 55.0402 86.9724 54.9957 86.9284 54.9512C86.8845 54.9067 86.8406 54.8623 86.7967 54.8178C86.7527 54.7733 86.7088 54.6844 86.7088 54.6399C86.6649 54.5954 86.621 54.5064 86.621 54.462C86.577 54.4175 86.5331 54.3285 86.5331 54.2841C86.4892 54.2396 86.4452 54.1506 86.4452 54.1062C86.4013 54.0617 86.3574 53.9727 86.3574 53.9282C86.3574 53.8838 86.3135 53.7948 86.2695 53.7503C86.2695 53.7059 86.2256 53.6169 86.2256 53.5724C86.2256 53.5279 86.1817 53.439 86.1817 53.3945C86.1378 53.35 86.1377 53.2611 86.1377 53.2166C86.1377 53.1721 86.0938 53.0832 86.0938 53.0387C86.0938 52.9942 86.0499 52.9053 86.0499 52.8163C86.0499 52.7718 86.006 52.6829 86.006 52.6384C86.006 52.5939 86.006 52.505 86.006 52.4605C86.006 52.416 86.006 52.3271 86.006 52.2826C86.006 52.2381 85.962 52.1492 85.962 52.0602C85.962 52.0157 85.962 51.9268 85.962 51.8378C85.962 51.7489 85.962 51.6599 86.006 51.6599C86.006 51.6154 86.006 51.5265 86.006 51.482C86.006 51.4375 86.006 51.3486 86.006 51.3041C86.006 51.2596 86.0499 51.1707 86.0499 51.1262C86.0499 51.0817 86.0938 50.9928 86.0938 50.9483C86.0938 50.9038 86.1377 50.8148 86.1377 50.7704C86.1377 50.7259 86.1817 50.6369 86.1817 50.5925C86.2256 50.548 86.2256 50.459 86.2256 50.4146C86.2256 50.3701 86.2695 50.2811 86.2695 50.2366C86.3135 50.1922 86.3135 50.1032 86.3574 50.0587C86.4013 50.0143 86.4452 49.9253 86.4452 49.8808C86.4892 49.8363 86.5331 49.7474 86.5331 49.7029C86.577 49.6584 86.621 49.5695 86.621 49.525C86.6649 49.4805 86.7088 49.3916 86.7088 49.3916C86.7527 49.3471 86.7967 49.3026 86.7967 49.2581C86.8406 49.2137 86.8845 49.1692 86.9284 49.1247C86.9724 49.0802 87.0163 48.9913 87.0602 48.9468C87.1042 48.9023 87.1481 48.8579 87.192 48.8134C87.2359 48.7689 87.2799 48.7244 87.3238 48.6799C87.3677 48.6355 87.4556 48.591 87.4556 48.5465C87.4995 48.502 87.5434 48.4576 87.5873 48.4131C87.6313 48.3686 87.7191 48.3241 87.7631 48.2796C87.807 48.2352 87.8948 48.1907 87.9388 48.1462C87.9827 48.1017 88.0705 48.0573 88.1145 48.0573C88.1584 48.0573 88.2463 48.0128 88.2902 47.9683C88.3341 47.9238 88.422 47.9238 88.4659 47.8794C88.5098 47.8349 88.5977 47.7904 88.6416 47.7904C88.6855 47.7904 88.7734 47.7459 88.8173 47.7459C88.8612 47.7014 88.9491 47.7014 88.993 47.657C89.0369 47.657 89.0809 47.6125 89.0809 47.6125C89.0809 47.6125 89.1687 47.6125 89.2127 47.568C89.2566 47.568 89.3444 47.5235 89.3884 47.5235C89.4323 47.5235 89.8276 47.5235 90.3108 47.5235L91.4969 47.5235C91.9361 47.5235 92.3315 47.8794 92.3315 48.2796L92.3315 55.6628Z" fill="black"/>
<path d="M36.5898 64.0694C36.5898 64.3808 36.8534 64.6476 37.1609 64.6476L98.3515 64.6476C98.659 64.6476 98.9226 64.3808 98.9226 64.0694C98.9226 63.7581 98.659 63.4912 98.3515 63.4912L37.1609 63.4912C36.8534 63.4912 36.5898 63.7581 36.5898 64.0694Z" fill="black"/>
<path d="M99.3164 39.7407C99.3164 39.4739 99.4043 39.207 99.536 38.9846C99.6678 38.7622 99.8435 38.5843 100.107 38.4509C100.327 38.3175 100.59 38.2285 100.854 38.2285C101.073 38.2285 101.249 38.273 101.425 38.362C101.601 38.4509 101.776 38.5399 101.908 38.6733C102.04 38.8067 102.172 38.9846 102.216 39.1625C102.303 39.3404 102.347 39.5628 102.347 39.7407C102.347 39.9631 102.303 40.141 102.216 40.3189C102.128 40.4969 102.04 40.6748 101.908 40.8082C101.776 40.9416 101.601 41.0751 101.425 41.1195C101.249 41.2085 101.03 41.253 100.854 41.253C100.59 41.253 100.327 41.164 100.107 41.0306C99.8875 40.8971 99.7118 40.7192 99.536 40.4969C99.3603 40.2745 99.3164 40.0076 99.3164 39.7407ZM99.536 39.7407C99.536 39.9631 99.58 40.1855 99.7118 40.3634C99.8435 40.5858 99.9753 40.7192 100.195 40.8527C100.371 40.9861 100.59 41.0306 100.854 41.0306C101.073 41.0306 101.293 40.9861 101.469 40.8527C101.645 40.7192 101.82 40.5858 101.952 40.3634C102.084 40.1855 102.128 39.9631 102.128 39.6963C102.128 39.4739 102.084 39.2515 101.952 39.0291C101.82 38.8512 101.688 38.6733 101.469 38.5399C101.293 38.4064 101.073 38.362 100.854 38.362C100.634 38.362 100.415 38.4064 100.195 38.5399C100.019 38.6733 99.8435 38.8067 99.7118 39.0291C99.58 39.296 99.536 39.5184 99.536 39.7407ZM100.239 40.6303L100.239 38.8512L100.898 38.8512C100.942 38.8512 101.03 38.8512 101.117 38.8957C101.205 38.9402 101.249 38.9846 101.337 39.0291C101.381 39.1181 101.425 39.207 101.425 39.3404C101.425 39.4294 101.381 39.5184 101.337 39.6073C101.293 39.6963 101.249 39.7407 101.161 39.7852C101.073 39.8297 101.03 39.8297 100.942 39.8297L100.898 39.8297L101.469 40.6748L101.117 40.6748L100.59 39.8742L100.546 39.8742L100.546 40.6748L100.239 40.6748L100.239 40.6303ZM100.546 39.0736L100.546 39.5628L100.81 39.5628C100.942 39.5628 101.03 39.5184 101.073 39.4739C101.117 39.4294 101.161 39.3849 101.161 39.296C101.161 39.207 101.161 39.1625 101.117 39.1181C101.074 39.0736 100.986 39.0736 100.898 39.0736L100.546 39.0736Z" fill="black"/>
<path d="M38.8731 68.0279L38.0824 68.0279L37.6871 66.6936L37.5553 68.0279L36.6328 68.0279L36.9842 65.4927L38.0824 65.4927L38.4778 66.916L38.8731 65.4482L39.9713 65.4482L40.3227 67.9834L39.3563 67.9834L39.2245 66.6491L38.8731 68.0279Z" fill="black"/>
<path d="M41.2461 68.0274L41.2461 65.4922L43.0032 65.4922L43.0032 66.2483L42.2564 66.2483L42.2564 66.4707L42.9153 66.4707L42.9153 67.0934L42.2564 67.0934L42.2564 67.3158L43.0032 67.3158L43.0032 68.0719L41.2461 68.0719L41.2461 68.0274Z" fill="black"/>
<path d="M44.2781 65.4932L46.4744 65.4932L46.4744 67.3167L46.7819 67.3167L46.7819 68.5621L45.9034 68.5621L45.9034 68.0728L44.5856 68.0728L44.5856 68.5621L43.707 68.5621L43.707 67.3167C43.8388 67.3167 43.9706 67.2723 44.0585 67.1833C44.1463 67.0943 44.1902 67.0054 44.1902 66.872C44.1902 66.7385 44.2342 66.6496 44.2342 66.5161L44.2342 65.4932L44.2781 65.4932ZM45.1566 66.2048L45.1566 66.5606C45.1566 66.7385 45.1566 66.9164 45.1127 67.0054C45.0688 67.0943 45.0249 67.1833 44.937 67.2723L45.4641 67.2723L45.4641 66.2048L45.1566 66.2048Z" fill="black"/>
<path d="M47.6602 65.4932L48.6266 65.4932L48.6266 66.783L49.3294 65.4932L50.2519 65.4932L50.2519 68.0284L49.2855 68.0284L49.2855 66.783L48.5826 68.0284L47.6602 68.0284L47.6602 65.4932Z" fill="black"/>
<path d="M52.6235 68.0274L52.6235 67.1378C52.4917 67.1378 52.4038 67.1823 52.3599 67.1823C52.316 67.1823 52.2281 67.1823 52.1403 67.1823C51.9206 67.1823 51.7449 67.1378 51.6131 67.0934C51.4814 67.0489 51.3935 66.9599 51.3496 66.9155C51.3057 66.8265 51.2617 66.7376 51.2617 66.6486C51.2617 66.5596 51.2617 66.4707 51.2617 66.3373L51.2617 65.4922L52.2281 65.4922L52.2281 66.0704C52.2281 66.1593 52.2281 66.2483 52.272 66.3373C52.272 66.4262 52.3599 66.4262 52.4038 66.4707L52.4917 66.4707C52.5356 66.4707 52.5356 66.4707 52.5795 66.4707C52.6235 66.4707 52.6235 66.4707 52.6674 66.4707L52.6674 65.5367L53.6777 65.5367L53.6777 68.0719L52.6235 68.0719L52.6235 68.0274Z" fill="black"/>
<path d="M54.6875 68.0274L54.6875 65.4922L55.6978 65.4922L55.6978 66.3817L56.181 66.3817L56.181 65.4922L57.1914 65.4922L57.1914 68.0274L56.181 68.0274L56.181 67.0934L55.6978 67.0934L55.6978 68.0274L54.6875 68.0274Z" fill="black"/>
<path d="M58.0273 68.0274L58.9059 65.4922L60.0041 65.4922L60.8826 68.0274L59.8284 68.0274L59.7405 67.6716L59.1255 67.6716L59.0377 68.0274L58.0273 68.0274ZM59.3012 67.0044L59.6527 67.0044L59.4769 66.3373L59.3012 67.0044Z" fill="black"/>
<path d="M63.867 65.4932L66.1951 65.4932L66.1951 68.0284L65.1848 68.0284L65.1848 66.2048L64.7894 66.2048L64.7894 67.1388C64.7894 67.2723 64.7894 67.3612 64.7455 67.4502C64.7455 67.5391 64.7016 67.6281 64.6137 67.717C64.5698 67.806 64.438 67.8949 64.3062 67.9394C64.1745 67.9839 63.9548 68.0284 63.7352 68.0284C63.6034 68.0284 63.5156 68.0284 63.3398 67.9839L63.3398 67.2723C63.3838 67.2723 63.4277 67.3167 63.5156 67.3167C63.6034 67.3167 63.6913 67.2723 63.7352 67.2278C63.7791 67.1833 63.823 67.0943 63.823 67.0499C63.823 66.9609 63.823 66.872 63.823 66.783L63.823 65.4932L63.867 65.4932Z" fill="black"/>
<path d="M67.0313 68.0274L67.9098 65.4922L69.008 65.4922L69.8865 68.0274L68.8323 68.0274L68.7444 67.6716L68.1294 67.6716L68.0416 68.0274L67.0313 68.0274ZM68.3051 67.0044L68.6566 67.0044L68.4809 66.3817L68.3051 67.0044Z" fill="black"/>
<path d="M70.7188 68.0284L70.7188 65.4932L72.8273 65.4932L72.8273 66.2493L71.7291 66.2493L71.7291 66.4717L72.0805 66.4717C72.3441 66.4717 72.5637 66.5161 72.7394 66.6051C72.959 66.6941 73.0469 66.9164 73.0469 67.2278C73.0469 67.3612 73.003 67.4946 72.959 67.5836C72.9151 67.717 72.8273 67.806 72.6516 67.8949C72.5198 67.9839 72.3001 68.0284 72.0366 68.0284L70.7188 68.0284ZM71.7291 67.4057L71.8169 67.4057C71.9926 67.4057 72.0805 67.3612 72.0805 67.2278C72.0805 67.0943 71.9926 67.0499 71.8169 67.0499L71.7291 67.0499L71.7291 67.4057Z" fill="black"/>
<path d="M75.3763 68.1169C75.1567 68.1169 74.9371 68.0724 74.7614 68.0279C74.5857 67.9834 74.4099 67.85 74.2782 67.7611C74.1464 67.6276 74.0585 67.4942 73.9707 67.3163C73.8828 67.1384 73.8828 66.9605 73.8828 66.7826C73.8828 66.6047 73.9267 66.4267 73.9707 66.2488C74.0585 66.0709 74.1464 65.9375 74.2782 65.8041C74.4099 65.6706 74.5417 65.5817 74.7614 65.5372C74.9371 65.4927 75.1567 65.4482 75.3763 65.4482C75.596 65.4482 75.8156 65.4927 75.9913 65.5372C76.167 65.6262 76.3427 65.7151 76.4745 65.8041C76.6063 65.9375 76.6942 66.0709 76.782 66.2488C76.8699 66.4267 76.8699 66.6047 76.8699 66.7826C76.8699 66.9605 76.8259 67.1384 76.782 67.3163C76.6942 67.4942 76.6063 67.6276 76.4745 67.7611C76.3427 67.8945 76.211 67.9834 75.9913 68.0279C75.7717 68.0724 75.596 68.1169 75.3763 68.1169ZM75.3763 67.3163C75.5081 67.3163 75.6399 67.2718 75.7278 67.1829C75.8156 67.0939 75.8595 66.9605 75.8595 66.7826C75.8595 66.6047 75.8156 66.4712 75.7278 66.3823C75.6399 66.2933 75.5081 66.2488 75.3763 66.2488C75.2885 66.2488 75.2006 66.2933 75.1128 66.3378C75.0249 66.3823 74.981 66.4267 74.9371 66.5157C74.8931 66.6047 74.8931 66.6936 74.8931 66.7826C74.8931 66.8715 74.9371 66.9605 74.9371 67.0494C74.981 67.1384 75.0249 67.1829 75.1128 67.2273C75.1567 67.2718 75.2446 67.3163 75.3763 67.3163Z" fill="black"/>
<path d="M77.793 68.0274L77.793 65.4922L79.1108 65.4922C79.3304 65.4922 79.5501 65.5367 79.6818 65.6256C79.8136 65.7146 79.9454 65.8035 79.9893 65.937C80.0772 66.0704 80.0772 66.2038 80.0772 66.3817C80.0772 66.5596 80.0333 66.6931 79.9893 66.8265C79.9015 66.9599 79.8136 67.0489 79.6818 67.1378C79.5501 67.2268 79.3304 67.2713 79.1108 67.2713L78.8033 67.2713L78.8033 68.0719L77.793 68.0719L77.793 68.0274ZM78.7594 66.1593L78.7594 66.6041L78.8912 66.6041C79.0669 66.6041 79.1108 66.5152 79.1108 66.3817C79.1108 66.2483 79.0229 66.1593 78.8912 66.1593L78.7594 66.1593Z" fill="black"/>
<path d="M80.7813 68.0284L81.6598 65.4932L82.758 65.4932L83.6365 68.0284L82.6262 68.0284L82.5383 67.6725L81.9234 67.6725L81.8355 68.0284L80.7813 68.0284ZM82.0551 67.0054L82.4066 67.0054L82.2309 66.3382L82.0551 67.0054Z" fill="black"/>
<path d="M84.8201 68.0279L84.8201 66.2044L84.293 66.2044L84.293 65.4482L86.3576 65.4482L86.3576 66.2044L85.8304 66.2044L85.8304 68.0279L84.8201 68.0279Z" fill="black"/>
<path d="M88.556 68.1169C88.3364 68.1169 88.1168 68.0724 87.941 68.0279C87.7653 67.9834 87.5896 67.85 87.4578 67.7611C87.3261 67.6276 87.2382 67.4942 87.1504 67.3163C87.0625 67.1384 87.0625 66.9605 87.0625 66.7826C87.0625 66.6047 87.1064 66.4267 87.1504 66.2488C87.2382 66.0709 87.3261 65.9375 87.4578 65.8041C87.5896 65.6706 87.7214 65.5817 87.941 65.5372C88.1168 65.4927 88.3364 65.4482 88.556 65.4482C88.7757 65.4482 88.9953 65.4927 89.171 65.5372C89.3467 65.6262 89.5224 65.7151 89.6542 65.8041C89.786 65.9375 89.8738 66.0709 89.9617 66.2488C90.0496 66.4267 90.0496 66.6047 90.0496 66.7826C90.0496 66.9605 90.0056 67.1384 89.9617 67.3163C89.8738 67.4942 89.786 67.6276 89.6542 67.7611C89.5224 67.8945 89.3906 67.9834 89.171 68.0279C88.9953 68.0724 88.7757 68.1169 88.556 68.1169ZM88.556 67.3163C88.6878 67.3163 88.8196 67.2718 88.9074 67.1829C88.9953 67.0939 89.0392 66.9605 89.0392 66.7826C89.0392 66.6047 88.9953 66.4712 88.9074 66.3823C88.8196 66.2933 88.6878 66.2488 88.556 66.2488C88.4682 66.2488 88.3803 66.2933 88.2925 66.3378C88.2046 66.3823 88.1607 66.4267 88.1168 66.5157C88.0728 66.6047 88.0728 66.6936 88.0728 66.7826C88.0728 66.8715 88.0728 66.9605 88.1168 67.0494C88.1607 67.1384 88.2046 67.1829 88.2925 67.2273C88.3803 67.2718 88.4682 67.3163 88.556 67.3163Z" fill="black"/>
<path d="M90.9688 68.0284L90.9688 65.4932L92.2866 65.4932C92.5062 65.4932 92.7258 65.5376 92.8576 65.6266C92.9894 65.7156 93.1212 65.8045 93.1651 65.9379C93.209 66.0714 93.253 66.2048 93.253 66.3827C93.253 66.5606 93.209 66.6941 93.1651 66.8275C93.0773 66.9609 92.9894 67.0499 92.8576 67.1388C92.7258 67.2278 92.5062 67.2723 92.2866 67.2723L91.9791 67.2723L91.9791 68.0728L90.9688 68.0728L90.9688 68.0284ZM91.9791 66.1603L91.9791 66.6051L92.1109 66.6051C92.2866 66.6051 92.3305 66.5161 92.3305 66.3827C92.3305 66.2493 92.2426 66.1603 92.1109 66.1603L91.9791 66.1603Z" fill="black"/>
<path d="M94.2227 68.0274L94.2227 65.4922L95.233 65.4922L95.233 68.0274L94.2227 68.0274Z" fill="black"/>
<path d="M96.1563 68.0274L96.7273 67.0934C96.6395 67.0489 96.5516 67.0044 96.4637 66.9599C96.3759 66.9155 96.332 66.8265 96.288 66.7375C96.2441 66.6486 96.2002 66.5152 96.2002 66.3817C96.2002 66.1149 96.288 65.937 96.4637 65.7591C96.6395 65.5811 96.903 65.4922 97.2984 65.4922L98.5723 65.4922L98.5723 68.0274L97.5619 68.0274L97.5619 67.3158L97.2544 68.0274L96.1563 68.0274ZM97.5619 66.6486L97.5619 66.1593L97.4741 66.1593C97.2984 66.1593 97.1666 66.2483 97.1666 66.3817C97.1666 66.5596 97.2544 66.6041 97.4741 66.6041L97.5619 66.6041L97.5619 66.6486Z" fill="black"/>
<path fill-rule="evenodd" clip-rule="evenodd" d="M67.9104 36.1822C67.9104 38.6729 65.8897 40.7188 63.4298 40.7188C60.9699 40.7188 58.9492 38.6729 58.9492 36.1822C58.9492 33.6915 60.9699 31.6455 63.4298 31.6455C65.9336 31.6455 67.9104 33.6915 67.9104 36.1822Z" fill="black"/>
</svg>
