<svg width="139" height="100" viewBox="0 0 139 100" fill="none" xmlns="http://www.w3.org/2000/svg">
<g clip-path="url(#clip0_49_716)">
<path d="M74.9898 48.9145C72.98 48.4574 72.6418 48.174 72.6418 47.5431C72.6418 47.0038 73.2006 46.6655 74.1124 46.6655C75.1233 46.715 76.0943 47.0497 76.8967 47.6254L76.9849 47.6803L78.1908 45.9936L78.1124 45.9387C76.9875 45.0916 75.5775 44.6431 74.132 44.6725C71.8967 44.6725 70.3477 45.9159 70.3477 47.7077C70.3477 49.6138 71.8182 50.336 73.9653 50.8297C75.8722 51.264 76.1908 51.5885 76.1908 52.1507C76.1908 52.713 75.5192 53.1289 74.5584 53.1289C73.3499 53.1235 72.1911 52.6791 71.3281 51.8902L71.2447 51.8216L69.8575 53.4261L69.931 53.4901C71.1826 54.5323 72.802 55.1084 74.48 55.1082C75.5126 55.1484 76.5281 54.8527 77.3526 54.2717C77.7127 53.9949 78.0006 53.6452 78.1942 53.2492C78.3879 52.8532 78.4822 52.4213 78.4702 51.9862C78.4702 50.4275 77.3967 49.4813 74.9898 48.919L74.9898 48.9145ZM50.6908 50.6926L49.2692 50.6926L49.2692 46.8301L50.6908 46.8301C52.2496 46.8301 53.2594 47.5797 53.2594 48.7408C53.2594 49.9018 52.279 50.6926 50.6908 50.6926ZM55.5928 48.7408C55.6044 48.217 55.4993 47.6967 55.2841 47.2129C55.0689 46.729 54.7484 46.292 54.3428 45.9296C53.3271 45.122 52.019 44.7067 50.6859 44.7685L46.9408 44.7685L46.9408 55.0076L49.2692 55.0076L49.2692 52.7221L51.1761 52.7221L53.0143 55.0076L55.7398 55.0076L53.3869 52.0548C54.0752 51.7803 54.6565 51.3151 55.0519 50.7224C55.4473 50.1296 55.6379 49.4378 55.5977 48.7408L55.5928 48.7408ZM79.6124 46.8301L82.9947 46.8301L82.9947 55.0076L85.3281 55.0076L85.3281 46.8301L88.7104 46.8301L88.7104 44.7685L79.6124 44.7685L79.6124 46.8301ZM94.73 53.0421C94.0552 53.0658 93.3883 52.9009 92.8147 52.5685C92.2412 52.2362 91.7872 51.7515 91.5112 51.1769C91.2352 50.6022 91.1497 49.9637 91.2656 49.3434C91.3816 48.7231 91.6937 48.1492 92.1619 47.6955C92.6302 47.2418 93.2332 46.929 93.8935 46.7972C94.5538 46.6653 95.2412 46.7206 95.8676 46.9557C96.494 47.1909 97.0308 47.5953 97.4089 48.117C97.787 48.6387 97.9893 49.2538 97.9898 49.8835C98.0056 50.7052 97.6713 51.4991 97.0602 52.0912C96.4491 52.6833 95.6111 53.0253 94.73 53.0421ZM94.73 44.668C93.6228 44.668 92.5405 44.9741 91.6199 45.5477C90.6993 46.1213 89.9818 46.9366 89.5581 47.8904C89.1344 48.8443 89.0235 49.8939 89.2395 50.9065C89.4555 51.9191 89.9887 52.8492 90.7716 53.5793C91.5545 54.3093 92.552 54.8065 93.6379 55.0079C94.7238 55.2093 95.8494 55.1059 96.8723 54.7108C97.8952 54.3157 98.7695 53.6467 99.3846 52.7882C99.9997 51.9298 100.328 50.9205 100.328 49.8881C100.325 48.5048 99.7347 47.1789 98.6853 46.2012C97.6358 45.2235 96.2135 44.6738 94.73 44.6725L94.73 44.668ZM62.9506 53.0421C62.2758 53.0658 61.6088 52.9009 61.0353 52.5685C60.4618 52.2362 60.0078 51.7515 59.7318 51.1769C59.4558 50.6022 59.3703 49.9637 59.4862 49.3434C59.6022 48.7231 59.9143 48.1492 60.3825 47.6955C60.8508 47.2418 61.4537 46.929 62.114 46.7972C62.7743 46.6653 63.4618 46.7206 64.0882 46.9557C64.7146 47.1909 65.2514 47.5953 65.6295 48.117C66.0076 48.6387 66.2099 49.2538 66.2104 49.8835C66.2262 50.7052 65.8918 51.4991 65.2807 52.0912C64.6697 52.6833 63.8317 53.0253 62.9506 53.0421ZM62.9506 44.668C61.8434 44.668 60.7611 44.9741 59.8405 45.5477C58.9199 46.1213 58.2024 46.9366 57.7787 47.8904C57.355 48.8443 57.2441 49.8939 57.4601 50.9065C57.6761 51.9191 58.2093 52.8492 58.9922 53.5793C59.7751 54.3093 60.7726 54.8065 61.8585 55.0079C62.9444 55.2093 64.07 55.1059 65.0929 54.7108C66.1158 54.3157 66.9901 53.6467 67.6052 52.7882C68.2203 51.9298 68.5486 50.9205 68.5486 49.8881C68.546 48.5048 67.9553 47.1789 66.9059 46.2012C65.8564 45.2235 64.4341 44.6738 62.9506 44.6725L62.9506 44.668ZM106.25 50.6469L104.833 50.6469L104.833 46.8301L106.25 46.8301C107.808 46.8301 108.818 47.5797 108.818 48.7408C108.818 49.9018 107.808 50.6514 106.25 50.6514L106.25 50.6469ZM109.098 52.1005C109.738 51.7704 110.269 51.2824 110.632 50.6898C110.995 50.0973 111.177 49.423 111.156 48.7408C111.168 48.217 111.063 47.6967 110.848 47.2129C110.633 46.729 110.312 46.292 109.906 45.9296C108.891 45.122 107.583 44.7067 106.25 44.7685L102.5 44.7685L102.5 55.0076L104.833 55.0076L104.833 52.7221L106.671 52.7221L108.441 55.0076L111.348 55.0076L109.098 52.1005ZM40.0928 50.6469L38.681 50.6469L38.681 46.8301L40.0977 46.8301C41.6565 46.8301 42.6663 47.5797 42.6663 48.7408C42.6663 49.9018 41.6565 50.6514 40.0977 50.6514L40.0928 50.6469ZM40.0928 44.7685L36.3428 44.7685L36.3428 55.0076L38.681 55.0076L38.681 52.7221L40.0977 52.7221C41.4337 52.7739 42.7404 52.3471 43.7496 51.5291C44.1465 51.1604 44.4615 50.7224 44.6764 50.2399C44.8913 49.7575 45.0019 49.2403 45.0019 48.7179C45.0019 48.1955 44.8913 47.6783 44.6764 47.1959C44.4615 46.7135 44.1465 46.2754 43.7496 45.9067C42.734 45.0992 41.4259 44.6839 40.0928 44.7457L40.0928 44.7685ZM30.2888 52.1827C29.7071 52.1827 29.1385 52.3436 28.6548 52.645C28.1711 52.9463 27.7942 53.3747 27.5715 53.8758C27.3489 54.377 27.2907 54.9284 27.4042 55.4604C27.5177 55.9924 27.7978 56.4811 28.2091 56.8647C28.6204 57.2482 29.1445 57.5094 29.715 57.6153C30.2856 57.7211 30.8769 57.6668 31.4144 57.4592C31.9518 57.2516 32.4112 56.9001 32.7343 56.4491C33.0575 55.9981 33.23 55.4678 33.23 54.9254C33.23 54.198 32.9201 53.5004 32.3686 52.986C31.817 52.4717 31.0689 52.1827 30.2888 52.1827Z" fill="black"/>
</g>
<defs>
<clipPath id="clip0_49_716">
<rect width="84.4993" height="31.5885" fill="white" transform="translate(27.0977 34.2061)"/>
</clipPath>
</defs>
</svg>
